<svg width="25" height="34" viewBox="0 0 25 34" fill="none" xmlns="http://www.w3.org/2000/svg">
<path d="M5 33.3333V18.0833C3.58333 17.6944 2.39583 16.9167 1.4375 15.75C0.479167 14.5833 0 13.2222 0 11.6667V0H3.33333V11.6667H5V0H8.33333V11.6667H10V0H13.3333V11.6667C13.3333 13.2222 12.8542 14.5833 11.8958 15.75C10.9375 16.9167 9.75 17.6944 8.33333 18.0833V33.3333H5ZM21.6667 33.3333V20H16.6667V8.33333C16.6667 6.02778 17.4792 4.0625 19.1042 2.4375C20.7292 0.8125 22.6944 0 25 0V33.3333H21.6667Z" fill="#3D3D3D"/>
</svg>
