<svg width="148" height="28" viewBox="0 0 148 28" fill="none" xmlns="http://www.w3.org/2000/svg">
<path d="M13.9306 6.6268V1.69606L8.16161 0.204635V6.6268H13.9306Z" fill="#68B3DA"/>
<path d="M2.94747 6.62684V3.98242L0 6.62684H2.94747Z" fill="#64559B"/>
<path d="M18.8496 6.62681V2.97106L13.9306 1.69606V6.6268L18.8496 6.62681Z" fill="#3B8E38"/>
<path d="M8.16161 6.6268V0.204635L7.3785 0L2.94747 3.98242V6.62684L8.16161 6.6268Z" fill="#EAD235"/>
<path d="M32.9534 6.62674L28.8293 5.56032V6.62674H32.9534Z" fill="#3461A4"/>
<path d="M28.8293 6.62674V5.56032L23.8316 4.26574V6.62683L28.8293 6.62674Z" fill="#D8231E"/>
<path d="M23.8316 6.62683V4.26574L18.8496 2.97106V6.62681L23.8316 6.62683Z" fill="#97207C"/>
<path d="M28.8607 19.6954H23.863V27.1211H28.8607V19.6954Z" fill="#D8231E"/>
<path d="M23.863 19.6954H18.7867V27.1211H23.863V19.6954Z" fill="#97207C"/>
<path d="M18.7867 19.6954H13.8834V27.1211H18.7867V19.6954Z" fill="#3B8E38"/>
<path d="M3.7778 19.6954H0V27.1211H3.7778V19.6954Z" fill="#64559B"/>
<path d="M32.9495 19.6954H28.8607V27.1211H32.9495V19.6954Z" fill="#3461A4"/>
<path d="M8.90147 19.6954H3.7778V27.1211H8.90147V19.6954Z" fill="#EAD235"/>
<path d="M13.8834 19.6954H8.90147V27.1211H13.8834V19.6954Z" fill="#68B3DA"/>
<path d="M0.898391 16.9211V9.409H2.59487V12.6567H2.69344L5.28745 9.409H7.31077L4.58188 12.7656L7.35228 16.9211H5.31339L3.34713 13.8966L2.59487 14.8356V16.9211H0.898391Z" fill="white"/>
<path d="M10.434 13.964H12.2498L11.373 11.2144H11.3107L10.434 13.964ZM12.67 15.2714H10.0137L9.48974 16.9211H7.66875L10.2316 9.409H12.4625L15.0202 16.9211H13.194L12.67 15.2714Z" fill="white"/>
<path d="M15.8399 16.9211V9.409H17.5363V12.4699H20.6336V9.409H22.3353V16.9211H20.6336V13.8551H17.5363V16.9211H15.8399Z" fill="white"/>
<path d="M23.5181 9.409H25.6193L27.6115 14.2545H27.6945L29.6815 9.409H31.7878V16.9211H30.138V12.1638H30.0706L28.1977 16.8796H27.1082L25.2302 12.1482H25.1679V16.9211H23.5181V9.409Z" fill="white"/>
<path d="M50.5015 16.8844V18.7267H39.2489V13.9223H41.5427V16.8844H50.5015ZM41.7414 8.46764C41.1815 8.47667 40.739 8.61214 40.4048 8.85597C40.0707 9.0998 39.9081 9.45201 39.9172 9.89452C39.9081 10.337 40.0707 10.6802 40.4048 10.924C40.73 11.1679 41.1725 11.2853 41.7414 11.2853C42.3104 11.2853 42.7619 11.1588 43.0961 10.924C43.4302 10.6712 43.6018 10.337 43.6018 9.89452C43.6018 9.45201 43.4302 9.0998 43.0961 8.85597C42.7619 8.61214 42.3104 8.47667 41.7414 8.46764ZM41.7414 6.71565C42.5271 6.71565 43.2315 6.85112 43.8366 7.11301C44.4507 7.37491 44.9294 7.7542 45.2725 8.23284C45.6157 8.71147 45.7873 9.27139 45.7873 9.89452C45.7873 10.5176 45.6157 11.0685 45.2816 11.5381C44.9384 12.0168 44.4598 12.387 43.8457 12.6399C43.2315 12.9108 42.5271 13.0373 41.7414 13.0373C40.9467 13.0373 40.2423 12.9108 39.6282 12.6399C39.005 12.387 38.5264 12.0168 38.1832 11.5381C37.831 11.0685 37.6594 10.5176 37.6594 9.89452C37.6594 9.27139 37.831 8.71147 38.1832 8.23284C38.5264 7.7542 39.005 7.37491 39.6282 7.11301C40.2423 6.85112 40.9467 6.71565 41.7414 6.71565ZM46.6182 4.31345V6.13768H36.8647V4.31345H40.6035V2.56146H42.8974V4.31345H46.6182ZM49.9054 2.59758V7.6368H52.1271V9.51522H49.9054V14.8615H47.5935V2.59758H49.9054Z" fill="white"/>
<path d="M66.107 3.30199V4.58437C66.107 5.42424 66.107 6.16477 66.107 6.80596C66.107 7.45619 66.107 8.16962 66.107 8.95531H67.8952V10.7976H61.5012V13.1637H66.1251V19.0157H63.8132V14.9699H54.3667V13.1637H59.1893V10.7976H52.8495V8.95531H63.8132C63.8132 8.25993 63.8132 7.61874 63.8132 7.0227C63.8132 6.41764 63.8132 5.78548 63.8132 5.12622H54.6919V3.30199H66.107Z" fill="white"/>
<path d="M82.5976 2.57952V19.0518H80.2676V2.57952H82.5976ZM71.9591 5.86675V13.2721H75.3548V5.86675H71.9591ZM77.5944 4.06058V15.0963H69.6472V4.06058H77.5944Z" fill="white"/>
<path d="M99.8107 9.04562V10.8518H93.4529V11.9355H97.9864V16.18H88.829V17.1734H98.4199V18.9073H86.5712V14.5544H95.7106V13.6875H86.5532V11.9355H91.1409V10.8518H84.8192V9.04562H99.8107ZM93.507 3.013C93.507 3.56388 93.7238 4.08767 94.1482 4.58437C94.5727 5.0901 95.2049 5.52358 96.0447 5.88482C96.8846 6.25508 97.8871 6.49891 99.0701 6.62535L98.3115 8.35927C96.9027 8.20575 95.6835 7.8716 94.654 7.36588C93.6244 6.86015 92.8387 6.22799 92.3059 5.46037C91.7641 6.22799 90.9784 6.86015 89.9579 7.36588C88.9374 7.8716 87.7272 8.20575 86.3364 8.35927L85.5598 6.62535C86.7428 6.49891 87.7453 6.25508 88.5942 5.88482C89.425 5.52358 90.0662 5.0901 90.4907 4.58437C90.9151 4.08767 91.1319 3.56388 91.1409 3.013V2.66983H93.507V3.013Z" fill="white"/>
<path d="M109.636 8.37733H112.364V6.64341H109.645C109.7 6.9053 109.727 7.17623 109.727 7.47425C109.727 7.7542 109.7 8.06125 109.636 8.37733ZM105.392 5.39715C104.967 5.39715 104.579 5.47843 104.254 5.65001C103.911 5.8216 103.658 6.0564 103.477 6.37248C103.288 6.68856 103.197 7.0498 103.206 7.47425C103.197 7.91676 103.288 8.29606 103.477 8.61214C103.658 8.93725 103.911 9.18108 104.254 9.35267C104.579 9.52425 104.967 9.60553 105.392 9.60553C105.798 9.60553 106.168 9.52425 106.494 9.35267C106.819 9.18108 107.072 8.93725 107.261 8.61214C107.451 8.29606 107.541 7.91676 107.541 7.47425C107.541 7.05883 107.451 6.69759 107.261 6.37248C107.072 6.06543 106.819 5.8216 106.494 5.65001C106.159 5.47843 105.798 5.39715 105.392 5.39715ZM114.658 2.57952V12.2967H112.364V10.2196H108.679C108.282 10.6441 107.803 10.9782 107.234 11.213C106.665 11.4569 106.051 11.5743 105.392 11.5743C104.57 11.5743 103.82 11.3936 103.152 11.0505C102.484 10.6892 101.96 10.2016 101.581 9.58747C101.201 8.95531 101.012 8.25993 101.021 7.47425C101.012 6.71565 101.201 6.02931 101.581 5.41521C101.951 4.81014 102.475 4.33151 103.134 3.98834C103.802 3.63613 104.543 3.46455 105.356 3.46455C106.024 3.46455 106.647 3.58195 107.216 3.80772C107.785 4.03349 108.273 4.3586 108.679 4.78305H112.364V2.57952H114.658ZM114.658 13.0373V19.0157H112.364V14.8434H103.369V13.0373H114.658Z" fill="white"/>
<path d="M129.757 2.57952V8.91918H132.178V10.8699H129.757V19.0157H127.445V2.57952H129.757ZM122.84 6.30024C122.831 7.30266 122.975 8.27799 123.264 9.22623C123.553 10.1654 123.987 11.0053 124.574 11.7549C125.161 12.5044 125.874 13.0824 126.723 13.4888L125.332 15.3311C124.474 14.9066 123.743 14.3196 123.147 13.552C122.533 12.7844 122.054 11.8903 121.702 10.8608C121.332 11.9536 120.826 12.9108 120.185 13.7417C119.534 14.5544 118.758 15.1956 117.855 15.6381L116.428 13.7778C117.322 13.3714 118.08 12.7754 118.694 11.9897C119.309 11.213 119.769 10.328 120.076 9.35267C120.374 8.35927 120.528 7.34781 120.528 6.30024V3.84384H122.84V6.30024Z" fill="white"/>
<path d="M146.519 16.8844V18.7267H134.977V13.7778H137.289V16.8844H146.519ZM146.013 2.57952V7.58262H148V9.51522H146.013V14.8796H143.647V2.57952H146.013ZM137.903 7.56456V10.8157C139.773 10.8157 141.389 10.8157 142.762 10.8157V12.658C141.335 12.658 139.8 12.658 138.165 12.658C136.531 12.658 134.661 12.658 132.557 12.658V10.8157C133.867 10.8157 134.878 10.8157 135.609 10.8157V7.56456H137.903ZM141.985 3.77159V4.80111C141.985 5.64098 141.985 6.4357 141.985 7.1672C141.985 7.90773 141.985 8.72954 141.985 9.62359H139.728C139.728 8.22381 139.728 6.89627 139.728 5.65001H133.532V3.77159H141.985Z" fill="white"/>
<path d="M40.2627 26.3537V20.5109H41.3199V23.1983H41.3965L43.6723 20.5109H44.9716L42.7079 23.1337L44.9878 26.3537H43.7127L41.9695 23.8479L41.3199 24.6186V26.3537H40.2627Z" fill="white"/>
<path d="M47.1829 25.6153C47.4089 25.6153 47.5985 25.5507 47.7599 25.4256C47.9132 25.2965 48.0343 25.123 48.1069 24.9091C48.1876 24.6912 48.2239 24.4451 48.2239 24.1748C48.2239 23.9044 48.1876 23.6583 48.1069 23.4404C48.0343 23.2184 47.9132 23.0449 47.7599 22.9199C47.5985 22.7948 47.4089 22.7302 47.1829 22.7302C46.9529 22.7302 46.7592 22.7948 46.5978 22.9199C46.4404 23.0449 46.3194 23.2184 46.2387 23.4363C46.158 23.6542 46.1176 23.9004 46.1176 24.1748C46.1176 24.4491 46.158 24.6953 46.2387 24.9091C46.3194 25.123 46.4404 25.2965 46.5978 25.4256C46.7592 25.5507 46.9529 25.6153 47.1829 25.6153ZM47.1748 26.4384C46.7552 26.4384 46.388 26.3456 46.0652 26.156C45.7504 25.9663 45.5043 25.704 45.3308 25.3611C45.1573 25.0181 45.0725 24.6267 45.0725 24.1788C45.0725 23.7269 45.1573 23.3314 45.3308 22.9884C45.5043 22.6495 45.7504 22.3872 46.0652 22.1976C46.388 22.0079 46.7552 21.9151 47.1748 21.9151C47.5985 21.9151 47.9697 22.0079 48.2845 22.1976C48.6073 22.3872 48.8494 22.6495 49.0189 22.9884C49.1883 23.3314 49.2731 23.7269 49.2731 24.1788C49.2731 24.6267 49.1883 25.0181 49.0189 25.3611C48.8494 25.704 48.6073 25.9663 48.2845 26.156C47.9697 26.3456 47.5985 26.4384 47.1748 26.4384Z" fill="white"/>
<path d="M50.0801 26.3537V21.9716H51.0808V22.702H51.1292C51.2099 22.4478 51.3471 22.2541 51.5368 22.1169C51.7305 21.9756 51.9524 21.9071 52.2066 21.9071C52.3398 21.9071 52.4649 21.9151 52.5819 21.9353V22.8876C52.5375 22.8714 52.4689 22.8593 52.3721 22.8432C52.2752 22.8351 52.1864 22.827 52.1017 22.827C51.9161 22.827 51.7466 22.8674 51.6013 22.9481C51.448 23.0288 51.331 23.1418 51.2463 23.287C51.1615 23.4323 51.1171 23.5977 51.1171 23.7793V26.3537H50.0801Z" fill="white"/>
<path d="M56.9398 24.4451H53.8852C53.8893 24.6872 53.9336 24.897 54.0224 25.0705C54.1152 25.2521 54.2443 25.3933 54.4138 25.4902C54.5833 25.587 54.781 25.6355 55.003 25.6355C55.1482 25.6355 55.2814 25.6153 55.3944 25.5749C55.5154 25.5346 55.6123 25.4821 55.697 25.4176C55.7817 25.349 55.8423 25.2723 55.8866 25.1795H56.8995C56.8389 25.4297 56.7219 25.6516 56.5484 25.8372C56.3789 26.0309 56.161 26.1762 55.8947 26.2811C55.6284 26.386 55.3258 26.4384 54.9908 26.4384C54.5591 26.4384 54.1798 26.3456 53.861 26.164C53.5422 25.9825 53.2961 25.7202 53.1186 25.3812C52.9491 25.0423 52.8603 24.6469 52.8603 24.1909C52.8603 23.743 52.9491 23.3435 53.1186 22.9965C53.2961 22.6535 53.5382 22.3872 53.8489 22.1976C54.1596 22.0079 54.5228 21.9151 54.9384 21.9151C55.3137 21.9151 55.6526 21.9958 55.9552 22.1532C56.2579 22.3106 56.4959 22.5567 56.6735 22.8916C56.851 23.2225 56.9398 23.6341 56.9398 24.1223V24.4451ZM54.0224 23.2628C53.9458 23.4121 53.9014 23.5735 53.8893 23.747H55.9472C55.9472 23.5493 55.9068 23.3718 55.8221 23.2144C55.7373 23.0611 55.6203 22.94 55.471 22.8513C55.3217 22.7625 55.1482 22.7181 54.9505 22.7181C54.7447 22.7181 54.5591 22.7665 54.4017 22.8674C54.2403 22.9642 54.1152 23.0974 54.0224 23.2628Z" fill="white"/>
<path d="M59.9218 23.7511L60.2849 23.739L60.2809 23.3799C60.2809 23.2386 60.2526 23.1135 60.1921 23.0127C60.1316 22.9118 60.0428 22.8351 59.9258 22.7827C59.8088 22.7302 59.6635 22.706 59.49 22.706C59.2721 22.706 59.0905 22.7504 58.9533 22.8432C58.8081 22.936 58.7193 23.0611 58.683 23.2225H57.6742C57.7024 22.9683 57.7953 22.7463 57.9486 22.5446C58.1019 22.3509 58.3118 22.1935 58.5821 22.0846C58.8525 21.9716 59.1632 21.9151 59.5223 21.9151C59.833 21.9151 60.1235 21.9635 60.3898 22.0604C60.6602 22.1532 60.8821 22.3146 61.0516 22.5365C61.2291 22.7625 61.3139 23.057 61.3139 23.4202V26.3537H60.3212V25.7484H60.289C60.2244 25.8816 60.1356 25.9986 60.0186 26.0995C59.9016 26.2004 59.7604 26.2851 59.5909 26.3456C59.4174 26.4102 59.2197 26.4425 58.9977 26.4425C58.7153 26.4425 58.4651 26.39 58.2432 26.2891C58.0212 26.1883 57.8477 26.0349 57.7186 25.8372C57.5935 25.6395 57.5289 25.4014 57.5289 25.123C57.5289 24.667 57.6823 24.3362 57.9849 24.1344C58.2916 23.9367 58.683 23.8197 59.1632 23.7914C59.2358 23.7834 59.49 23.7713 59.9218 23.7511ZM60.289 24.78L60.2849 24.4209C60.176 24.4249 59.9944 24.433 59.7321 24.4532L59.3246 24.4855C59.0744 24.5056 58.8807 24.5662 58.7395 24.6751C58.5982 24.78 58.5296 24.9253 58.5296 25.1069C58.5296 25.2319 58.5619 25.3369 58.6225 25.4176C58.687 25.5063 58.7758 25.5709 58.8888 25.6112C58.9977 25.6597 59.1268 25.6798 59.2681 25.6798C59.4739 25.6798 59.6514 25.6395 59.8047 25.5548C59.9581 25.474 60.0751 25.3651 60.1639 25.2319C60.2446 25.0948 60.289 24.9455 60.289 24.78Z" fill="white"/>
<path d="M65.809 24.0618H67.4392L66.6483 21.7093H66.5999L65.809 24.0618ZM67.7217 24.9091H65.5265L65.0423 26.3537H63.9165L65.9744 20.5109H67.2818L69.3357 26.3537H68.2059L67.7217 24.9091Z" fill="white"/>
<path d="M69.9975 26.3537V21.9716H70.9982V22.702H71.0466C71.1273 22.4478 71.2645 22.2541 71.4541 22.1169C71.6478 21.9756 71.8698 21.9071 72.124 21.9071C72.2571 21.9071 72.3822 21.9151 72.4992 21.9353V22.8876C72.4549 22.8714 72.3863 22.8593 72.2894 22.8432C72.1926 22.8351 72.1038 22.827 72.0191 22.827C71.8334 22.827 71.664 22.8674 71.5187 22.9481C71.3654 23.0288 71.2484 23.1418 71.1636 23.287C71.0789 23.4323 71.0345 23.5977 71.0345 23.7793V26.3537H69.9975Z" fill="white"/>
<path d="M74.6822 20.9225V21.9716H75.5377V22.7665H74.6822V25.0342C74.6822 25.1674 74.7024 25.2683 74.7428 25.3449C74.7831 25.4176 74.8356 25.466 74.9042 25.4983C74.9728 25.5225 75.0535 25.5386 75.1503 25.5426C75.2673 25.5467 75.4166 25.5386 75.5982 25.5225V26.3698C75.4328 26.3981 75.2391 26.4142 75.0172 26.4142C74.7508 26.4142 74.5128 26.3698 74.307 26.2811C74.1012 26.1883 73.9357 26.0551 73.8187 25.8695C73.7017 25.6919 73.6412 25.466 73.6452 25.2037V22.7665H73.0238V21.9716H73.6452V20.9225H74.6822Z" fill="white"/>
<path d="M78.3461 26.3537V20.5109H79.4033V22.9884H82.1149V20.5109H83.1762V26.3537H82.1149V23.8721H79.4033V26.3537H78.3461Z" fill="white"/>
<path d="M84.2172 26.3537V21.9716H85.2543V26.3537H84.2172ZM84.7337 21.3502C84.6288 21.3502 84.5279 21.326 84.4392 21.2776C84.3423 21.2251 84.2697 21.1565 84.2172 21.0678C84.1648 20.983 84.1365 20.8902 84.1365 20.7893C84.1365 20.6885 84.1648 20.5916 84.2172 20.5069C84.2697 20.4221 84.3423 20.3536 84.4392 20.3011C84.5279 20.2527 84.6288 20.2285 84.7337 20.2285C84.8427 20.2285 84.9476 20.2527 85.0364 20.3011C85.1332 20.3536 85.2058 20.4221 85.2583 20.5069C85.3107 20.5916 85.339 20.6885 85.339 20.7893C85.339 20.8902 85.3107 20.983 85.2583 21.0678C85.2058 21.1565 85.1332 21.2251 85.0364 21.2776C84.9476 21.326 84.8427 21.3502 84.7337 21.3502Z" fill="white"/>
<path d="M88.7245 23.2225C88.6922 23.049 88.6074 22.9158 88.4743 22.823C88.3411 22.7302 88.1676 22.6818 87.9538 22.6818C87.8085 22.6818 87.6794 22.702 87.5623 22.7463C87.4494 22.7907 87.3606 22.8513 87.296 22.932C87.2274 23.0086 87.1951 23.0974 87.1951 23.1983C87.1911 23.3153 87.2395 23.4121 87.3444 23.4969C87.4413 23.5816 87.6027 23.6462 87.8166 23.6906L88.5631 23.852C88.9787 23.9407 89.2894 24.082 89.4911 24.2797C89.6929 24.4734 89.7938 24.7276 89.7938 25.0383C89.7938 25.3126 89.7171 25.5548 89.5638 25.7646C89.4145 25.9784 89.1966 26.1439 88.9181 26.2609C88.6357 26.3779 88.3048 26.4384 87.9255 26.4384C87.5543 26.4384 87.2355 26.386 86.9651 26.2811C86.6948 26.1762 86.4809 26.0228 86.3276 25.8211C86.1662 25.6233 86.0734 25.3812 86.0371 25.1028H87.0902C87.1266 25.2844 87.2153 25.4256 87.3525 25.5144C87.4978 25.6112 87.6834 25.6556 87.9215 25.6556C88.0829 25.6556 88.2241 25.6355 88.3492 25.5951C88.4743 25.5507 88.5671 25.4902 88.6357 25.4095C88.7043 25.3328 88.7366 25.24 88.7366 25.1351C88.7366 25.006 88.6841 24.9011 88.5832 24.8204C88.4824 24.7356 88.3209 24.6711 88.1031 24.6267L87.3969 24.4774C86.9894 24.3927 86.6827 24.2474 86.4729 24.0376C86.263 23.8318 86.1581 23.5695 86.1622 23.2588C86.1622 22.9884 86.2348 22.7544 86.3841 22.5527C86.5294 22.3469 86.7351 22.1895 87.0055 22.0806C87.2718 21.9716 87.5825 21.9151 87.9416 21.9151C88.2846 21.9151 88.5832 21.9676 88.8415 22.0765C89.0997 22.1814 89.3015 22.3348 89.4508 22.5285C89.6001 22.7302 89.6808 22.9602 89.701 23.2225H88.7245Z" fill="white"/>
<path d="M91.9122 20.9225V21.9716H92.7677V22.7665H91.9122V25.0342C91.9122 25.1674 91.9324 25.2683 91.9727 25.3449C92.0131 25.4176 92.0655 25.466 92.1341 25.4983C92.2027 25.5225 92.2834 25.5386 92.3803 25.5426C92.4973 25.5467 92.6466 25.5386 92.8282 25.5225V26.3698C92.6627 26.3981 92.4691 26.4142 92.2471 26.4142C91.9808 26.4142 91.7427 26.3698 91.5369 26.2811C91.3311 26.1883 91.1657 26.0551 91.0487 25.8695C90.9317 25.6919 90.8711 25.466 90.8752 25.2037V22.7665H90.2538V21.9716H90.8752V20.9225H91.9122Z" fill="white"/>
<path d="M95.4429 25.6153C95.6689 25.6153 95.8586 25.5507 96.02 25.4256C96.1733 25.2965 96.2943 25.123 96.367 24.9091C96.4477 24.6912 96.484 24.4451 96.484 24.1748C96.484 23.9044 96.4477 23.6583 96.367 23.4404C96.2943 23.2184 96.1733 23.0449 96.02 22.9199C95.8586 22.7948 95.6689 22.7302 95.4429 22.7302C95.2129 22.7302 95.0192 22.7948 94.8578 22.9199C94.7005 23.0449 94.5794 23.2184 94.4987 23.4363C94.418 23.6542 94.3777 23.9004 94.3777 24.1748C94.3777 24.4491 94.418 24.6953 94.4987 24.9091C94.5794 25.123 94.7005 25.2965 94.8578 25.4256C95.0192 25.5507 95.2129 25.6153 95.4429 25.6153ZM95.4349 26.4384C95.0152 26.4384 94.648 26.3456 94.3252 26.156C94.0105 25.9663 93.7643 25.704 93.5908 25.3611C93.4173 25.0181 93.3326 24.6267 93.3326 24.1788C93.3326 23.7269 93.4173 23.3314 93.5908 22.9884C93.7643 22.6495 94.0105 22.3872 94.3252 22.1976C94.648 22.0079 95.0152 21.9151 95.4349 21.9151C95.8586 21.9151 96.2298 22.0079 96.5445 22.1976C96.8673 22.3872 97.1094 22.6495 97.2789 22.9884C97.4484 23.3314 97.5331 23.7269 97.5331 24.1788C97.5331 24.6267 97.4484 25.0181 97.2789 25.3611C97.1094 25.704 96.8673 25.9663 96.5445 26.156C96.2298 26.3456 95.8586 26.4384 95.4349 26.4384Z" fill="white"/>
<path d="M98.3402 26.3537V21.9716H99.3409V22.702H99.3893C99.47 22.4478 99.6072 22.2541 99.7968 22.1169C99.9905 21.9756 100.212 21.9071 100.467 21.9071C100.6 21.9071 100.725 21.9151 100.842 21.9353V22.8876C100.798 22.8714 100.729 22.8593 100.632 22.8432C100.535 22.8351 100.446 22.827 100.362 22.827C100.176 22.827 100.007 22.8674 99.8614 22.9481C99.7081 23.0288 99.591 23.1418 99.5063 23.287C99.4216 23.4323 99.3772 23.5977 99.3772 23.7793V26.3537H98.3402Z" fill="white"/>
<path d="M102.214 28C102.008 28 101.831 27.9919 101.673 27.9798V27.1486L101.855 27.1567C101.923 27.1607 102.012 27.1647 102.113 27.1647C102.218 27.1647 102.307 27.1526 102.371 27.1365C102.444 27.1123 102.508 27.0679 102.573 26.9993C102.634 26.9307 102.69 26.8218 102.742 26.6805L102.835 26.4465L101.245 21.9716H102.343L103.348 25.2763H103.396L104.409 21.9716H105.515L103.755 26.8783C103.626 27.2414 103.437 27.5198 103.186 27.7095C102.94 27.9032 102.613 28 102.214 28Z" fill="white"/>
<path d="M108.166 20.5109H109.465L111.2 24.7397H111.269L113 20.5109H114.299V26.3537H113.278V22.3388H113.226L111.612 26.3335H110.853L109.235 22.3307H109.187V26.3537H108.166V20.5109Z" fill="white"/>
<path d="M118.14 24.5056V21.9716H119.169V26.3537H118.173V25.5749H118.124C118.015 25.8291 117.85 26.0349 117.624 26.1842C117.402 26.3335 117.128 26.4102 116.805 26.4102C116.518 26.4102 116.264 26.3456 116.042 26.2165C115.824 26.0833 115.655 25.8937 115.53 25.6476C115.405 25.4014 115.344 25.1028 115.344 24.7598V21.9716H116.381V24.6025C116.381 24.7841 116.413 24.9414 116.482 25.0786C116.551 25.2118 116.647 25.3167 116.773 25.3933C116.898 25.47 117.043 25.5063 117.204 25.5063C117.366 25.5063 117.519 25.466 117.66 25.3933C117.802 25.3126 117.919 25.1997 118.007 25.0463C118.096 24.897 118.14 24.7155 118.14 24.5056Z" fill="white"/>
<path d="M122.644 23.2225C122.611 23.049 122.527 22.9158 122.394 22.823C122.26 22.7302 122.087 22.6818 121.873 22.6818C121.728 22.6818 121.599 22.702 121.482 22.7463C121.369 22.7907 121.28 22.8513 121.215 22.932C121.147 23.0086 121.114 23.0974 121.114 23.1983C121.11 23.3153 121.159 23.4121 121.264 23.4969C121.361 23.5816 121.522 23.6462 121.736 23.6906L122.482 23.852C122.898 23.9407 123.209 24.082 123.41 24.2797C123.612 24.4734 123.713 24.7276 123.713 25.0383C123.713 25.3126 123.636 25.5548 123.483 25.7646C123.334 25.9784 123.116 26.1439 122.837 26.2609C122.555 26.3779 122.224 26.4384 121.845 26.4384C121.474 26.4384 121.155 26.386 120.884 26.2811C120.614 26.1762 120.4 26.0228 120.247 25.8211C120.085 25.6233 119.993 25.3812 119.956 25.1028H121.009C121.046 25.2844 121.135 25.4256 121.272 25.5144C121.417 25.6112 121.603 25.6556 121.841 25.6556C122.002 25.6556 122.143 25.6355 122.268 25.5951C122.394 25.5507 122.486 25.4902 122.555 25.4095C122.624 25.3328 122.656 25.24 122.656 25.1351C122.656 25.006 122.603 24.9011 122.502 24.8204C122.402 24.7356 122.24 24.6711 122.022 24.6267L121.316 24.4774C120.909 24.3927 120.602 24.2474 120.392 24.0376C120.182 23.8318 120.077 23.5695 120.081 23.2588C120.081 22.9884 120.154 22.7544 120.303 22.5527C120.449 22.3469 120.654 22.1895 120.925 22.0806C121.191 21.9716 121.502 21.9151 121.861 21.9151C122.204 21.9151 122.502 21.9676 122.761 22.0765C123.019 22.1814 123.221 22.3348 123.37 22.5285C123.519 22.7302 123.6 22.9602 123.62 23.2225H122.644Z" fill="white"/>
<path d="M128.394 24.4451H125.339C125.343 24.6872 125.388 24.897 125.476 25.0705C125.569 25.2521 125.698 25.3933 125.868 25.4902C126.037 25.587 126.235 25.6355 126.457 25.6355C126.602 25.6355 126.735 25.6153 126.848 25.5749C126.969 25.5346 127.066 25.4821 127.151 25.4176C127.236 25.349 127.296 25.2723 127.341 25.1795H128.353C128.293 25.4297 128.176 25.6516 128.002 25.8372C127.833 26.0309 127.615 26.1762 127.349 26.2811C127.082 26.386 126.78 26.4384 126.445 26.4384C126.013 26.4384 125.634 26.3456 125.315 26.164C124.996 25.9825 124.75 25.7202 124.572 25.3812C124.403 25.0423 124.314 24.6469 124.314 24.1909C124.314 23.743 124.403 23.3435 124.572 22.9965C124.75 22.6535 124.992 22.3872 125.303 22.1976C125.614 22.0079 125.977 21.9151 126.392 21.9151C126.768 21.9151 127.107 21.9958 127.409 22.1532C127.712 22.3106 127.95 22.5567 128.127 22.8916C128.305 23.2225 128.394 23.6341 128.394 24.1223V24.4451ZM125.476 23.2628C125.4 23.4121 125.355 23.5735 125.343 23.747H127.401C127.401 23.5493 127.361 23.3718 127.276 23.2144C127.191 23.0611 127.074 22.94 126.925 22.8513C126.776 22.7625 126.602 22.7181 126.404 22.7181C126.199 22.7181 126.013 22.7665 125.856 22.8674C125.694 22.9642 125.569 23.0974 125.476 23.2628Z" fill="white"/>
<path d="M131.989 24.5056V21.9716H133.018V26.3537H132.021V25.5749H131.973C131.864 25.8291 131.698 26.0349 131.473 26.1842C131.251 26.3335 130.976 26.4102 130.653 26.4102C130.367 26.4102 130.113 26.3456 129.891 26.2165C129.673 26.0833 129.503 25.8937 129.378 25.6476C129.253 25.4014 129.193 25.1028 129.193 24.7598V21.9716H130.23V24.6025C130.23 24.7841 130.262 24.9414 130.331 25.0786C130.399 25.2118 130.496 25.3167 130.621 25.3933C130.746 25.47 130.891 25.5063 131.053 25.5063C131.214 25.5063 131.368 25.466 131.509 25.3933C131.65 25.3126 131.767 25.1997 131.856 25.0463C131.945 24.897 131.989 24.7155 131.989 24.5056Z" fill="white"/>
<path d="M134.011 26.3537V21.9716H134.999V22.7141H135.052C135.149 22.4599 135.302 22.2662 135.508 22.1249C135.717 21.9837 135.968 21.9151 136.258 21.9151C136.456 21.9151 136.633 21.9474 136.791 22.012C136.948 22.0725 137.085 22.1653 137.194 22.2863C137.303 22.4034 137.388 22.5486 137.44 22.7141H137.489C137.557 22.5486 137.654 22.4074 137.779 22.2863C137.905 22.1693 138.058 22.0765 138.235 22.012C138.409 21.9474 138.599 21.9151 138.804 21.9151C139.079 21.9151 139.317 21.9716 139.527 22.0846C139.728 22.2016 139.89 22.3711 140.003 22.593C140.12 22.819 140.176 23.0934 140.176 23.4162V26.3537H139.139V23.5735C139.139 23.3113 139.071 23.1176 138.929 22.9844C138.788 22.8513 138.611 22.7867 138.389 22.7867C138.223 22.7867 138.082 22.823 137.965 22.8916C137.848 22.9602 137.755 23.057 137.695 23.1821C137.63 23.3072 137.598 23.4525 137.598 23.6179V26.3537H136.585V23.5291C136.585 23.3799 136.553 23.2507 136.492 23.1337C136.432 23.0207 136.343 22.936 136.234 22.8755C136.125 22.8149 135.996 22.7867 135.855 22.7867C135.705 22.7867 135.572 22.823 135.451 22.8997C135.326 22.9763 135.229 23.0813 135.157 23.2144C135.084 23.3516 135.048 23.509 135.048 23.6865V26.3537H134.011Z" fill="white"/>
</svg>
