<svg width="36" height="51" viewBox="0 0 36 51" fill="none" xmlns="http://www.w3.org/2000/svg">
<mask id="path-1-outside-1_434_316" maskUnits="userSpaceOnUse" x="-0.492188" y="-0.0800781" width="37" height="51" fill="black">
<rect fill="white" x="-0.492188" y="-0.0800781" width="37" height="51"/>
<path d="M4.7775 41.5199C13.5375 33.1199 25.4775 24.5999 25.4775 17.2199C25.4775 12.2999 22.3575 8.81992 17.9175 8.81992C14.4975 8.81992 11.0775 11.2799 9.5175 14.8199L3.9375 12.3599C6.3375 6.83992 12.1575 2.99992 17.9175 2.99992C26.1375 2.99992 31.8375 8.87992 31.8375 17.2199C31.8375 26.3999 21.8775 34.5599 13.7775 41.5199H32.5575V47.0999H5.3775L4.7775 41.5199Z"/>
</mask>
<path d="M4.7775 41.5199L2.70114 39.3546L1.63709 40.3749L1.79469 41.8407L4.7775 41.5199ZM9.5175 14.8199L8.30731 17.565L11.0528 18.7754L12.2628 16.0297L9.5175 14.8199ZM3.9375 12.3599L1.18629 11.1637L-0.00380337 13.901L2.72731 15.105L3.9375 12.3599ZM13.7775 41.5199L11.8224 39.2445L5.68289 44.5199H13.7775V41.5199ZM32.5575 41.5199H35.5575V38.5199H32.5575V41.5199ZM32.5575 47.0999V50.0999H35.5575V47.0999H32.5575ZM5.3775 47.0999L2.39469 47.4207L2.68279 50.0999H5.3775V47.0999ZM4.7775 41.5199L6.85386 43.6853C8.99428 41.6328 11.332 39.5701 13.7034 37.4568C16.051 35.3648 18.4279 33.2263 20.5396 31.1029C22.6427 28.9883 24.5798 26.7936 26.0037 24.5633C27.4166 22.35 28.4775 19.8646 28.4775 17.2199H25.4775H22.4775C22.4775 18.2652 22.0459 19.6123 20.9464 21.3347C19.8577 23.0399 18.2623 24.8841 16.2854 26.8719C14.3171 28.851 12.0665 30.8788 9.71158 32.9774C7.38049 35.0547 4.94073 37.207 2.70114 39.3546L4.7775 41.5199ZM25.4775 17.2199H28.4775C28.4775 14.1282 27.4918 11.2809 25.5935 9.16927C23.6749 7.03506 20.9664 5.81992 17.9175 5.81992V8.81992V11.8199C19.3086 11.8199 20.3801 12.3448 21.1315 13.1806C21.9032 14.0389 22.4775 15.3916 22.4775 17.2199H25.4775ZM17.9175 8.81992V5.81992C13.1084 5.81992 8.72549 9.17778 6.77224 13.6101L9.5175 14.8199L12.2628 16.0297C13.4295 13.3821 15.8866 11.8199 17.9175 11.8199V8.81992ZM9.5175 14.8199L10.7277 12.0748L5.14769 9.61485L3.9375 12.3599L2.72731 15.105L8.30731 17.565L9.5175 14.8199ZM3.9375 12.3599L6.68871 13.5561C8.62719 9.0976 13.3883 5.99992 17.9175 5.99992V2.99992V-8.01086e-05C10.9267 -8.01086e-05 4.04781 4.58224 1.18629 11.1637L3.9375 12.3599ZM17.9175 2.99992V5.99992C21.2876 5.99992 23.9713 7.19096 25.8132 9.07795C27.6609 10.9709 28.8375 13.7462 28.8375 17.2199H31.8375H34.8375C34.8375 12.3536 33.1641 8.01897 30.1068 4.88689C27.0437 1.74887 22.7674 -8.01086e-05 17.9175 -8.01086e-05V2.99992ZM31.8375 17.2199H28.8375C28.8375 20.7233 26.9201 24.3659 23.5741 28.2421C20.2519 32.0907 15.941 35.7055 11.8224 39.2445L13.7775 41.5199L15.7326 43.7953C19.714 40.3743 24.4331 36.4291 28.1159 32.1627C31.7749 27.9239 34.8375 22.8966 34.8375 17.2199H31.8375ZM13.7775 41.5199V44.5199H32.5575V41.5199V38.5199H13.7775V41.5199ZM32.5575 41.5199H29.5575V47.0999H32.5575H35.5575V41.5199H32.5575ZM32.5575 47.0999V44.0999H5.3775V47.0999V50.0999H32.5575V47.0999ZM5.3775 47.0999L8.36031 46.7792L7.76031 41.1992L4.7775 41.5199L1.79469 41.8407L2.39469 47.4207L5.3775 47.0999Z" fill="#EAE7E0" mask="url(#path-1-outside-1_434_316)"/>
</svg>
