<svg width="38" height="52" viewBox="0 0 38 52" fill="none" xmlns="http://www.w3.org/2000/svg">
<mask id="path-1-outside-1_434_314" maskUnits="userSpaceOnUse" x="-0.695312" y="-0.869141" width="39" height="53" fill="black">
<rect fill="white" x="-0.695312" y="-0.869141" width="39" height="53"/>
<path d="M22.4763 48.3109V37.0309H3.69625L3.09625 31.5109L20.7963 4.09086L26.0763 7.33086L10.5363 31.5109H22.4763V19.0909H28.8363V31.5109H34.3563V37.0309H28.8363V48.3109H22.4763Z"/>
</mask>
<path d="M22.4762 48.3109H19.4762V51.3109H22.4762V48.3109ZM22.4762 37.0309H25.4762V34.0309H22.4762V37.0309ZM3.69625 37.0309L0.713817 37.355L1.00467 40.0309H3.69625V37.0309ZM3.09625 31.5109L0.575765 29.8839L-0.00112784 30.7775L0.113817 31.835L3.09625 31.5109ZM20.7963 4.09086L22.3653 1.53389L19.866 0.000259399L18.2758 2.46385L20.7963 4.09086ZM26.0763 7.33086L28.6 8.95282L30.2561 6.37596L27.6453 4.77389L26.0763 7.33086ZM10.5363 31.5109L8.01251 29.8889L5.04207 34.5109H10.5363V31.5109ZM22.4762 31.5109V34.5109H25.4762V31.5109H22.4762ZM22.4762 19.0909V16.0909H19.4762V19.0909H22.4762ZM28.8363 19.0909H31.8363V16.0909H28.8363V19.0909ZM28.8363 31.5109H25.8363V34.5109H28.8363V31.5109ZM34.3563 31.5109H37.3563V28.5109H34.3563V31.5109ZM34.3563 37.0309V40.0309H37.3563V37.0309H34.3563ZM28.8363 37.0309V34.0309H25.8363V37.0309H28.8363ZM28.8363 48.3109V51.3109H31.8363V48.3109H28.8363ZM22.4762 48.3109H25.4762V37.0309H22.4762H19.4762V48.3109H22.4762ZM22.4762 37.0309V34.0309H3.69625V37.0309V40.0309H22.4762V37.0309ZM3.69625 37.0309L6.67868 36.7067L6.07868 31.1867L3.09625 31.5109L0.113817 31.835L0.713817 37.355L3.69625 37.0309ZM3.09625 31.5109L5.61673 33.1379L23.3167 5.71786L20.7963 4.09086L18.2758 2.46385L0.575765 29.8839L3.09625 31.5109ZM20.7963 4.09086L19.2272 6.64783L24.5072 9.88783L26.0763 7.33086L27.6453 4.77389L22.3653 1.53389L20.7963 4.09086ZM26.0763 7.33086L23.5525 5.7089L8.01251 29.8889L10.5363 31.5109L13.06 33.1328L28.6 8.95282L26.0763 7.33086ZM10.5363 31.5109V34.5109H22.4762V31.5109V28.5109H10.5363V31.5109ZM22.4762 31.5109H25.4762V19.0909H22.4762H19.4762V31.5109H22.4762ZM22.4762 19.0909V22.0909H28.8363V19.0909V16.0909H22.4762V19.0909ZM28.8363 19.0909H25.8363V31.5109H28.8363H31.8363V19.0909H28.8363ZM28.8363 31.5109V34.5109H34.3563V31.5109V28.5109H28.8363V31.5109ZM34.3563 31.5109H31.3563V37.0309H34.3563H37.3563V31.5109H34.3563ZM34.3563 37.0309V34.0309H28.8363V37.0309V40.0309H34.3563V37.0309ZM28.8363 37.0309H25.8363V48.3109H28.8363H31.8363V37.0309H28.8363ZM28.8363 48.3109V45.3109H22.4762V48.3109V51.3109H28.8363V48.3109Z" fill="#EAE7E0" mask="url(#path-1-outside-1_434_314)"/>
</svg>
