<?xml version="1.0" encoding="UTF-8"?>
<svg xmlns="http://www.w3.org/2000/svg" version="1.1" viewBox="0 0 850 84">
  <!-- Generator: Adobe Illustrator 30.0.0, SVG Export Plug-In . SVG Version: 2.1.1 Build 123)  -->
  <defs>
    <style>
      .st0 {
        fill: #fff;
      }

      .st1 {
        display: none;
      }

      .st2 {
        fill: none;
        stroke: #000;
        stroke-miterlimit: 10;
        stroke-width: 3px;
      }
    </style>
  </defs>
  <g id="Layer_1" class="st1">
    <path class="st0" d="M15.07,65.78l.32.91c-.18.64-2.7,3.08-7.56,7.31l.23.37c1.83-.64,3.57-.81,5.22-.5l1.37.23.41.59-.23.55c-4.12,3.35-6.32,5.39-6.6,6.12l1.74.82,9.12-.09-.14.55c-.31,1.07-4.22,1.51-11.73,1.32l-1.1-.23c-.98-.12-1.44-.49-1.37-1.1l.18-.73c.46-1.46,2.6-3.52,6.41-6.17l.05-.27-.82-.14-6.19.59h-.27l-.32-.59c2.14-2.38,4.89-4.98,8.25-7.81l.14-.55h-.27c-3.18.3-5.65,1.26-7.42,2.88l-1.74.27-.41-.64c4.92-3.05,9.16-4.28,12.74-3.7ZM11.27,54.12c0,2.19-.84,4.25-2.52,6.17v.27c7.09-1.46,11.99-2.01,14.71-1.64l.18.27v.27c-.37.55-3.44,1.1-9.21,1.64-5.22,1.07-9.77,2.19-13.65,3.38h-.27l-.5-.64c.7-.58,2.44-1.33,5.22-2.24,1.74-1.52,2.84-3.72,3.3-6.58.64-.79,1.56-1.1,2.75-.91ZM16.77,35.03l.23.32-.09.27c-.12.52-2.84.47-8.16-.14l-.82-.18-.41-.64c3.6-.4,6.69-.27,9.26.37ZM14.52,39.55l1.37.32c.31.15.53.69.69,1.6l-3.02,4.02c2.05.82,3.01,1.54,2.89,2.15l-.14.55c-.55,2.04-3.05,4.05-7.51,6.03l-1.7.14-.55-.14c-.92-.24-1.37-.65-1.37-1.23l.14-.5c.58-2.38,3.12-6.08,7.61-11.1l.23-.82c-1.89-.46-4.49.03-7.79,1.46l-1.65-.14-.27-.09.14-.46c3.45-2.16,7.1-2.76,10.95-1.78ZM12.05,47.09c-1.53,2.13-2.44,3.88-2.75,5.25,2.05-1.4,3.21-2.6,3.48-3.61l.09-.55-.55-1.05-.27-.05Z"/>
    <path class="st0" d="M56.99,45.9h.55l.55.55c-3.45,4.66-6.29,12.34-8.52,23.03,0,2.01-.82,3.02-2.47,3.02l-.27-.27v-.27c0-5,1.74-11.85,5.22-20.56-7.06,6.03-11.64,9.05-13.75,9.05l-.55-.55c.27-1.64,1.1-2.47,2.47-2.47l.27,1.1c3.67-2.38,8.34-6.12,14.02-11.24,0-.55.82-1.01,2.47-1.37ZM35.18,51.52c1.19,0,1.92.82,2.2,2.47-.12,3.38-3.01,9.02-8.66,16.9l-.27.27h-.82l-.55-.55,5.64-10.6c-3.21,1.92-5.51,3.21-6.92,3.88h-.55l-.27-.27v-.27c2.5-2.1,5.36-3.85,8.57-5.25.37-.73.55-1.74.55-3.02.37-1.01,0-1.4-1.1-1.19l-.96.27c-.58.24-1.37.59-2.38,1.05l-2.75,1.55-.55-.55v-.27c2.29-2.41,5.24-3.88,8.84-4.43Z"/>
    <path class="st0" d="M89.43,46.45h1.37v.27c-2.32,3.32-6.58,11.18-12.78,23.58-.76,1.1-1.59,1.64-2.47,1.64l-.27-.27v-.27c5.13-12.85,9.48-21.08,13.06-24.67l1.1-.27ZM75.14,51.38l.5.05-.69,1.46c-7.97,2.56-12.81,3.72-14.52,3.47l-.96-.14.09-.69c.64-.73,1.85-1.16,3.62-1.28l1.1-.23c2.02-.73,5.64-1.61,10.86-2.65ZM71.56,54.86l.41.78-.18,1.42c.09,1.89-1.1,4.26-3.57,7.13h.27l6.19-1.28v.82c-.52.64-4.18,1.89-11,3.75l-3.12,1.19-.69-.09c.15-1.13,1.74-2.27,4.77-3.43,2.75-3.38,4.28-6.27,4.58-8.68l.14-.96c.06-.33.79-.55,2.2-.64ZM64.97,57l.23.27-.41,1.23c-.34,1.04-.38,2.06-.14,3.06-1.01.7-1.82,1.02-2.43.96-.58-.09-.72-1.1-.41-3.02.61-1.86,1.66-2.7,3.16-2.51Z"/>
    <path class="st0" d="M115.9,68.11c8.1-1.28,13.5-1.74,16.22-1.37l.18.27v.27c-.37.55-4.64,1.23-12.83,2.06-4.64.76-8.9,1.74-12.78,2.92h-.28l-.5-.59c.7-.61,2.44-1.37,5.22-2.28l4.76-1.28ZM126.39,46.08l.5.09-.69,1.42c-7.97,2.56-12.81,3.73-14.53,3.52l-.96-.14.09-.69c.64-.73,1.85-1.17,3.62-1.33l1.1-.18c2.02-.73,5.64-1.63,10.86-2.7ZM122.82,49.6l.41.73-.18,1.46c.09,1.86-1.1,4.23-3.57,7.13h.28l6.19-1.33v.82c-.52.64-4.18,1.9-11,3.79l-3.12,1.14-.69-.05c.15-1.16,1.74-2.3,4.76-3.43,2.75-3.38,4.28-6.29,4.58-8.73l.14-.96c.06-.3.79-.5,2.2-.59ZM116.22,51.7l.23.27-.41,1.23c-.34,1.07-.38,2.1-.14,3.11-1.01.67-1.82.99-2.43.96-.58-.09-.72-1.1-.41-3.02.61-1.89,1.66-2.74,3.16-2.56Z"/>
    <path class="st0" d="M162.93,48.5h1.37v.27c-2.35,3.35-5.7,9.5-10.03,18.46-.79,1.1-1.62,1.64-2.47,1.64l-.27-.27v-.27c3.3-9.41,6.74-15.93,10.31-19.56l1.1-.27ZM141.08,52.62c2.29,0,3.16.85,2.61,2.56l-3.8,4.66,2.02.32c1.47.7,1.76,1.84.87,3.43l-3.57,3.52h1.65c2.17-.33,5.45-2.06,9.85-5.16l-2.29,2.42c-4.34,3.84-7.93,5.62-10.77,5.35l-.92-.41c-.4-.7-.46-1.39-.18-2.06.46-1.16,1.76-2.71,3.89-4.66-.09-.24-.75-.46-1.97-.64l-.78-.14c-1.31-.21-1.63-1.01-.96-2.38,1.47-1.01,2.75-2.59,3.85-4.75-1.56.15-3.07.87-4.54,2.15l.09.32v.23c-.43.49-1.07.5-1.92.05l-.37-.14-.18-.59c.82-2.16,3.3-3.52,7.42-4.07Z"/>
    <path class="st0" d="M195.66,46.45h1.37v.27c-2.32,3.32-6.58,11.18-12.78,23.58-.76,1.1-1.59,1.64-2.47,1.64l-.27-.27v-.27c5.13-12.85,9.48-21.08,13.06-24.67l1.1-.27ZM173.25,53.17l.27.73-6.05,12.06-1.51.78-.28-.27v-.78c0-2.22,1.59-6.06,4.76-11.51l2.8-1.01ZM179.99,53.17c.7,0,1.21.34,1.51,1.01v.23l-5.41,9.78c-.61,1.1-.81,1.74-.6,1.92.24.15.72.08,1.42-.23.73-.34,1.56-.73,2.47-1.19.4.09.32.38-.23.87-2.84,2.01-4.72,3.02-5.64,3.02s-1.44-.24-1.56-.73c0-1.8,2.06-5.76,6.19-11.88l.27-1.01v-.55l-4.67,1.28h-.23l-.55-.46c1.56-1.37,3.9-2.06,7.01-2.06Z"/>
    <path class="st0" d="M219.02,64.5l.55.82v.82l-2.2,5.76v.27h.55l6.87-2.19.27.27v.27c0,.82-3.02,2.1-9.07,3.84h-1.1l-.55-.55v-.55c0-.61.82-2.62,2.47-6.03v-.55h-1.1c-1.74,0-4.58,2.83-8.52,8.5l-1.65.55-.28-.27v-.27c1.74-6.94,3.57-10.42,5.5-10.42l.28.27h.27c-1.1,2.04-1.65,3.5-1.65,4.39,3.09-3.29,6.2-4.93,9.35-4.93ZM229.19,42.61l.55.82c-2.32,2.71-5.44,7.83-9.35,15.35l-1.37.27h-.55l-.55-.55c1.28-3.29,2.75-6.31,4.4-9.05v-.27c-4.61,3.66-7.73,5.48-9.35,5.48h-.83v-.27c0-.3,1.37-1.13,4.12-2.47l11.27-9.05,1.65-.27ZM207.57,48.78l.18.27-.05.55-1.37,2.01.18.05c2.29.91,3.33,2.18,3.12,3.79l-.09.27c-.4,2.68-2.96,4.96-7.7,6.85l-1.69.05c-.98-.12-1.56-.58-1.74-1.37l.14-1.1c.27-1.83,1.51-4.4,3.71-7.72l-.28-.09-.46-.59c1.96-.88,3.21-1.8,3.76-2.74l2.29-.23ZM204.59,53.58c-1.56,2.83-2.44,5.01-2.66,6.53l.14.87h.27c2.23-1.31,3.44-2.59,3.62-3.84l.23-1.1c.12-1.01-.23-1.8-1.05-2.38l-.55-.09Z"/>
    <path class="st0" d="M276.46,48.87h1.1l.55.55c-2.57,3.66-5.13,8.68-7.7,15.08l-1.65.55h-.27l-.55-.55c0-1.43.64-3.72,1.92-6.85h-.27c-4.15,2.74-7.18,4.11-9.07,4.11h-.83l-.55-.55v-.27c.73-1.1,1.65-1.64,2.75-1.64h.55v.55c1.28,0,4.4-1.92,9.35-5.76,1.89-3.47,3.45-5.21,4.67-5.21ZM262.17,54.63h.82v.82c-2.84,1.1-5.32,3.93-7.42,8.5-.55.85-1.01,2.22-1.38,4.11l.27.82-2.2.82h-.55c-.37-.09-.73-.55-1.1-1.37.37-2.65,2.02-5.76,4.95-9.32v-.27h-.28c-5.53,3.11-8.83,4.66-9.9,4.66l-.55-.55c7.76-4.63,13.53-7.37,17.32-8.22ZM260.2,39.82l.18.27-.05.55-1.38,1.96.18.09c2.29.91,3.33,2.16,3.11,3.75l-.09.27c-.4,2.71-2.96,5-7.7,6.85l-1.7.09c-.98-.15-1.56-.61-1.74-1.37l.14-1.1c.27-1.83,1.51-4.42,3.71-7.77l-.28-.05-.46-.64c1.96-.85,3.21-1.77,3.76-2.74l2.29-.18ZM257.22,44.62c-1.56,2.83-2.44,5-2.66,6.49l.14.91h.27c2.23-1.34,3.44-2.62,3.62-3.84l.23-1.1c.12-1.01-.23-1.81-1.05-2.42l-.55-.05ZM261.89,67.01h.82l.55.55c-1.83,2.25-2.75,4.63-2.75,7.13v.55c.34.73.98,1.1,1.92,1.1h.55l7.15-1.92h.55v.27c0,1.07-3.21,2.35-9.62,3.84h-.55c-2.02,0-3.02-.73-3.02-2.19v-.27c0-3.14,1.47-6.15,4.4-9.05Z"/>
    <path class="st0" d="M299.92,58.24l.28,1.46-.96.96c-2.81.64-4.92,1.25-6.32,1.83-2.57,3.56-4.4,6.88-5.5,9.96l.05.87c-.46.73-1.12,1.23-1.97,1.51l-.82-.18-.64-1.05.14-.46c.89-3.75,2.7-7.07,5.45-9.96-4.46,1.34-7.79,2.24-9.99,2.7l-.18-.37.05-.27c.73-.67,6.09-2.6,16.08-5.8.09-.34,1.54-.73,4.35-1.19ZM286.58,48.09c1.56-1.13,2.26-1.14,2.11-.05-1.5,1.83-2.64,4.43-3.44,7.81-.21,1.22,3.45.17,11-3.15,1.47-.24,1.42.09-.14,1.01-6.05,3.47-9.82,5.21-11.32,5.21h-1.24c-1.38,0-2.06-.56-2.06-1.69,0-3.08,1.69-6.12,5.09-9.14ZM294.74,43.84l.37.27-.09.27-7.88,2.15c-1.8.94-3.16,1.37-4.08,1.28l-.27-.32.09-.27c4.43-2.71,8.38-3.84,11.87-3.38Z"/>
    <path class="st0" d="M315.19,62.53c-1.1,1.55-2.57,2.88-4.4,3.97l-.55.55c5.74-1.46,9.96-2.01,12.65-1.64l.23.27v.27c-.92.58-3.7,1.22-8.34,1.92-4.43.85-8.6,1.87-12.51,3.06h-.28l-.46-.59c.67-.61,2.41-1.37,5.22-2.28,3.21-1.86,5.27-3.55,6.19-5.07-.46-.64.29-.79,2.24-.46ZM312.95,47.77c2.41-.49,3.62.05,3.62,1.6v.27c-.95,1.55-2.96,3.21-6.05,4.98v.27c3.21-.37,4.81-.15,4.81.64.18.49.05,1.02-.41,1.6-.46.58-1.85,1.6-4.17,3.06l-.27.32v.23c.86.09,1.8.15,2.84.18,1.07,0,1.65.43,1.74,1.28.09.85-.6,1.28-2.06,1.28,0-.91-1.19-1.13-3.57-.64l-1.15.09c-1.07-.34-1.16-1.1-.27-2.28,2.47-1.86,3.71-2.97,3.71-3.34v-.27c-3.45.27-5.18-.03-5.18-.91v-.73c.55-.97,2.34-2.42,5.36-4.34l1.37-1.51-2.2.37-3.07.87-.27.09-.5-.41v-.55c1.92-1.07,3.83-1.78,5.73-2.15Z"/>
    <path class="st0" d="M357.98,38.5l.46.09-.69,1.42c-7.97,2.56-12.8,3.73-14.48,3.52l-.96-.14.05-.69c.64-.73,1.86-1.17,3.67-1.33l1.1-.18c2.02-.73,5.64-1.63,10.86-2.7ZM354.41,42.02l.41.73-.23,1.46c.09,1.86-1.1,4.23-3.57,7.13h.27l6.19-1.33v.82c-.49.64-4.15,1.9-11,3.79l-3.07,1.14-.69-.05c.12-1.16,1.7-2.3,4.72-3.43,2.75-3.38,4.29-6.29,4.63-8.73l.14-.96c.03-.3.76-.5,2.2-.59ZM347.81,44.12l.18.27-.41,1.23c-.31,1.07-.35,2.1-.14,3.11-1.01.67-1.8.99-2.38.96-.61-.09-.75-1.1-.41-3.02.58-1.89,1.63-2.74,3.16-2.56ZM350.47,64.95l1.05-.14-1.74,1.37c-.73.79-1.16,1.48-1.28,2.06l.32-.18,1.65.27c1.56.49,2.14,1.72,1.74,3.7-.79,3.87-3.57,6.47-8.34,7.81-1.83-.06-2.63-1.07-2.38-3.02.37-2.01,1.25-4.1,2.66-6.26l-.32-.73c.83-.46,1.83-1.54,3.02-3.24,1.38-1.01,2.58-1.55,3.62-1.64ZM347.4,70.02c-2.11,2.65-3.15,4.8-3.12,6.44.15.7.79.81,1.92.32,1.16-.49,2.26-1.75,3.3-3.79l.09-.55c.27-1.43-.46-2.24-2.2-2.42ZM358.67,54.81l.27,1.46-.96.96c-2.81.64-4.92,1.25-6.32,1.83-2.11,3.11-3.25,5.28-3.44,6.53l.04.87c-.46.73-1.11,1.23-1.97,1.51l-.27-.96-.14-1.14.14-.5c-.06-1.92.72-3.79,2.34-5.62-4.46,1.34-7.79,2.24-9.99,2.7l-.18-.37.05-.27c.73-.67,6.09-2.6,16.08-5.8.09-.34,1.54-.73,4.35-1.19Z"/>
    <path class="st0" d="M380.82,58.69l.27,1.46-.96.96c-2.78.64-4.89,1.25-6.32,1.83-2.57,3.56-4.4,6.88-5.5,9.96l.09.87c-.46.73-1.13,1.23-2.02,1.51l-.82-.18-.6-1.05.14-.46c.86-3.75,2.66-7.07,5.41-9.96-4.43,1.34-7.74,2.24-9.94,2.7l-.23-.37.09-.27c.73-.67,6.09-2.6,16.08-5.8.09-.34,1.53-.73,4.31-1.19ZM381.23,43.07h.55l.41.5v.27c.28,3.05-2.34,7.3-7.83,12.75-1.95,1.55-4.02,2.39-6.19,2.51-1.1-.12-1.65-.58-1.65-1.37,0-1.86,3.83-4.75,11.5-8.68,1.31-2.35,1.95-4.17,1.92-5.48l1.28-.5ZM370.51,44.53l.37.41c-.64,3.87-1.22,6.15-1.74,6.85-.64.46-1.24.69-1.79.69-.31,0-.49-.27-.55-.82.55-4.75,1.65-7.13,3.3-7.13h.41ZM369.09,56.18v.69l.41.41h1.38c1.31,0,3.33-2.06,6.05-6.17v-.23h-.27c-3.67,1.83-6.19,3.59-7.56,5.3Z"/>
    <path class="st0" d="M399.63,65.5h.83l.55.55c-1.83,2.25-2.75,4.63-2.75,7.13v.55c.34.73.98,1.1,1.92,1.1h.55l7.15-1.92h.55v.27c0,1.07-3.21,2.35-9.62,3.84h-.55c-2.02,0-3.02-.73-3.02-2.19v-.27c0-3.14,1.47-6.15,4.4-9.05ZM411.73,41.33l.27.27v.55c-3.88,6.24-5.82,10.63-5.82,13.16,0,1.46.64,2.19,1.93,2.19l9.35-3.29.27.27v.27c-4.92,2.92-9.04,4.48-12.37,4.66-1.65-.24-2.47-1.07-2.47-2.47,0-4.45,2.31-9.47,6.92-15.08l1.93-.55ZM397.3,45.35l.23.37-.09.27c-.12.49-2.84.44-8.16-.14l-.83-.23-.41-.59c3.6-.43,6.69-.32,9.26.32ZM395.05,49.88l1.38.37c.31.12.53.64.69,1.55l-3.02,4.07c2.05.82,3.01,1.52,2.89,2.1l-.14.55c-.55,2.07-3.05,4.08-7.51,6.03l-1.7.14-.55-.14c-.92-.21-1.38-.62-1.38-1.23l.14-.46c.58-2.38,3.11-6.08,7.61-11.1l.23-.82c-1.89-.46-4.49.02-7.79,1.42l-1.65-.14-.27-.05.14-.5c3.45-2.13,7.1-2.73,10.95-1.78ZM392.58,57.41c-1.53,2.16-2.44,3.93-2.75,5.3,2.05-1.43,3.21-2.65,3.48-3.66l.09-.55-.55-1.01-.28-.09Z"/>
    <path class="st0" d="M452.89,64.08l.23.27-.09.27c-1.28.94-1.99,1.68-2.11,2.19l.32-.23,1.37.41c1.38.55,1.91,1.45,1.6,2.7-.92,3.5-3.8,5.83-8.66,6.99l-.92-.27c-.64-.46-.96-.87-.96-1.23l.37-1.37c.46-1.74,1.3-3.37,2.52-4.89v-1.01c.43-.06,1.44-.97,3.02-2.74,1.44-.97,2.54-1.34,3.3-1.1ZM449.82,68.24c-1.34,1.83-2.29,3.78-2.84,5.85l.64.59.18.09c.7.18,1.79-1.04,3.25-3.66l.14-.46c.18-1.34-.27-2.15-1.38-2.42ZM461.51,42.06l.28.37-.09.27c-1.01.76-2.67,4.1-4.99,10.01,4.86-2.74,8.12-3.98,9.8-3.7l.55.05.41.69c-2.23.15-5.59,1.55-10.08,4.2-.92-.15-2.15,1.77-3.71,5.76-1.1,2.22-2.29,3.23-3.57,3.02l-.27-.27.05-.27c3.64-14.04,7.51-20.74,11.64-20.1ZM469.94,55.08l.28.37-.05.27-10.03,3.34c-1.71,1.07-2.99,1.52-3.85,1.37l-.23-.32.09-.27c5.96-3.66,10.55-5.24,13.79-4.75ZM446.16,46.31l.23.37-.09.27c-.12.49-2.84.44-8.16-.14l-.83-.23-.41-.59c3.6-.43,6.69-.32,9.26.32ZM443.91,50.84l1.38.37c.31.12.54.64.69,1.55l-3.02,4.07c2.05.82,3.01,1.52,2.89,2.1l-.14.55c-.55,2.07-3.05,4.08-7.51,6.03l-1.7.14-.55-.14c-.92-.21-1.38-.62-1.38-1.23l.14-.46c.58-2.38,3.11-6.08,7.61-11.1l.23-.82c-1.89-.46-4.49.02-7.79,1.42l-1.65-.14-.27-.05.14-.5c3.45-2.13,7.1-2.73,10.95-1.78ZM441.44,58.37c-1.53,2.16-2.44,3.93-2.75,5.3,2.05-1.43,3.21-2.65,3.48-3.66l.09-.55-.55-1.01-.28-.09Z"/>
    <path class="st0" d="M483.12,48.5h1.65c1.44,0,2.35.46,2.75,1.37v.55c0,1.37-2.84,5.76-8.52,13.16l-1.93.55-.27-.82c0-.43,2.02-3.53,6.05-9.32l1.38-3.02v-.55c-.09-.55-.83-.82-2.2-.82l-6.32,1.1-.55-.55c2.44-1.1,5.1-1.64,7.97-1.64ZM499.61,49.05h.28c.37,0,.55.27.55.82-1.13,1.92-1.96,4.39-2.47,7.4v1.1c0,.37.27.55.82.55l9.9-2.19v.55c0,.58-3.67,1.58-11,3.02h-1.38c-1.01,0-1.65-.46-1.92-1.37l.55-3.56c-11.09,9.69-18.24,14.53-21.44,14.53-1.28-.27-1.92-.64-1.92-1.1,0-5.12,1.47-9.41,4.4-12.88l1.65-.27h.27c-2.2,5.15-3.3,9.17-3.3,12.06l.83.55c4.83-2.35,11.97-8.1,21.44-17.27,0-1.16.92-1.8,2.75-1.92Z"/>
    <path class="st0" d="M555.13,38h1.38v.27c-2.32,3.35-6.58,11.21-12.78,23.58-.76,1.1-1.59,1.64-2.47,1.64l-.28-.27v-.27c5.13-12.82,9.48-21.05,13.06-24.67l1.1-.27ZM533.96,47.13c1.47,0,2.2.64,2.2,1.92-.64,2.13-3.16,7.02-7.56,14.67-1.38,3.66-2.8,5.48-4.26,5.48l-.27-.27v-.27c.46-2.35,3.39-8.33,8.8-17.96v-1.92h-.28c-2.51,0-4.8,1.1-6.87,3.29l-1.65.27-.28-.27v-.27c3.27-3.11,6.66-4.66,10.17-4.66ZM547.71,65.68l.23.27-.09.5c-1.68-.18-6.46.56-14.34,2.24l-1.65-.18-.5-.55c6.78-2.01,12.23-2.77,16.36-2.28ZM536.58,68.79l.5.05.18.27h.23l-2.02,5.76.23.78c-.55.37-1.31.55-2.29.55l-.83-.91c1.19-4.51,2.52-6.67,3.99-6.49ZM542.49,69.93l.23.09-.14,1.23c-.18,2.19-.85,4.11-2.02,5.76h.27c1.53-.52,4.77-.84,9.71-.96l.18.27-.05.27c-.61.4-3.94.87-9.99,1.42l-6.92,2.33-.41-.82c2.84-1.28,4.28-2.07,4.31-2.38,1.1-1.28,1.96-3.5,2.57-6.67.67-.46,1.42-.64,2.24-.55Z"/>
    <path class="st0" d="M567.05,66.6l.28.27c-1.38,2.16-2.06,3.84-2.06,5.03v.87c0,.73,1.38,1.23,4.12,1.51l8.43-2.06.27.27v.27c-1.37,1.55-4.86,2.92-10.45,4.11h-1.24c-2.93,0-4.4-.97-4.4-2.92,1.25-4.9,2.93-7.36,5.04-7.36ZM567.88,60.25c8.09-1.28,13.5-1.74,16.22-1.37l.18.27v.27c-.37.55-4.64,1.23-12.83,2.06-4.64.76-8.9,1.74-12.78,2.92h-.27l-.5-.59c.7-.61,2.44-1.37,5.22-2.28l4.77-1.28ZM574.61,41.47l.18.27-.04.55-1.38,1.96.18.09c2.29.91,3.33,2.16,3.12,3.75l-.09.27c-.4,2.71-2.96,5-7.7,6.85l-1.7.09c-.98-.15-1.56-.61-1.74-1.37l.14-1.1c.28-1.83,1.51-4.42,3.71-7.77l-.28-.05-.46-.64c1.95-.85,3.21-1.77,3.76-2.74l2.29-.18ZM571.63,46.27c-1.56,2.83-2.44,5-2.66,6.49l.14.91h.27c2.23-1.34,3.44-2.62,3.62-3.84l.23-1.1c.12-1.01-.23-1.81-1.05-2.42l-.55-.05Z"/>
    <path class="st0" d="M617.56,64.4h.27l.28.27h.27c0,.82-3.21,4.57-9.62,11.24-.09.46-.73.91-1.92,1.37l-.28-.27v-.27c.83-1.46,3.66-4.75,8.52-9.87.61-1.1,1.44-1.92,2.47-2.47ZM616.73,68.79c0,1.64,3.3,2.83,9.9,3.56l.82-.27.27.27v.27c0,1.1-2.2,1.83-6.6,2.19-4.4-1.01-6.6-2.01-6.6-3.02v-1.1c.64-.94,1.38-1.58,2.2-1.92ZM630.48,41.06l.27.27v.55c-4.77,7.71-7.15,12.82-7.15,15.35,0,1.46.64,2.19,1.92,2.19l9.35-3.29.28.27v.27c-4.89,2.92-9.01,4.48-12.37,4.66-1.65-.24-2.47-1.07-2.47-2.47,0-4.45,2.75-10.2,8.25-17.27l1.93-.55ZM606.97,47.82l.28.78-6.05,12.06-1.51.73-.28-.27v-.73c0-2.25,1.59-6.09,4.77-11.51l2.79-1.05ZM613.71,47.82c.7,0,1.21.35,1.51,1.05v.18l-4.99,8.86c-.98,1.68-1.28,2.7-.92,3.06,2.57-.3,6.87-4.2,12.92-11.7l4.9-5.71-3.3,4.61c-7.79,10.51-13.32,15.53-16.59,15.08-.92,0-1.44-.26-1.56-.78,0-1.77,2.06-5.71,6.19-11.83l.28-1.05v-.55l-4.67,1.33h-.23l-.55-.5c1.56-1.37,3.89-2.06,7.01-2.06Z"/>
    <path class="st0" d="M654.33,62.71l.32.91c-.18.64-2.7,3.08-7.56,7.31l.23.37c1.83-.64,3.57-.81,5.22-.5l1.37.23.41.59-.23.55c-4.12,3.35-6.32,5.39-6.6,6.12l1.74.82,9.12-.09-.14.55c-.31,1.07-4.22,1.51-11.73,1.32l-1.1-.23c-.98-.12-1.44-.49-1.38-1.1l.18-.73c.46-1.46,2.6-3.52,6.41-6.17l.05-.27-.82-.14-6.19.59h-.27l-.32-.59c2.14-2.38,4.89-4.98,8.25-7.81l.14-.55h-.27c-3.18.3-5.65,1.26-7.42,2.88l-1.74.27-.41-.64c4.92-3.05,9.16-4.28,12.74-3.7ZM646.49,56.14c8.1-1.28,13.5-1.74,16.22-1.37l.18.27v.27c-.37.55-4.64,1.23-12.83,2.06-4.64.79-8.9,1.78-12.78,2.97h-.27l-.5-.64c.7-.58,2.44-1.33,5.22-2.24l4.77-1.32ZM653.23,37.36l.18.27-.05.55-1.38,2.01.18.05c2.29.91,3.33,2.18,3.12,3.79l-.09.27c-.4,2.68-2.96,4.96-7.7,6.85l-1.7.05c-.98-.12-1.56-.58-1.74-1.37l.14-1.1c.28-1.83,1.51-4.4,3.71-7.72l-.27-.09-.46-.59c1.96-.88,3.21-1.8,3.76-2.74l2.29-.23ZM650.25,42.15c-1.56,2.83-2.44,5.01-2.66,6.53l.14.87h.28c2.23-1.31,3.44-2.59,3.62-3.84l.23-1.1c.12-1.01-.23-1.8-1.05-2.38l-.55-.09Z"/>
    <path class="st0" d="M692.46,63.26h.78l.46.55c-1.65,2.22-2.47,4.6-2.47,7.13v.55c.34.73.93,1.1,1.79,1.1l2.02-.41,5.82-2.33c5.1-1.92,6.96-2.3,5.59-1.14-1.38,1.13-5.77,3.06-13.2,5.8l-2.02.27c-1.77,0-2.66-.73-2.66-2.19v-.27c0-3.17,1.3-6.18,3.9-9.05ZM708.09,43.57l.55.82c-2.35,2.71-5.47,7.83-9.35,15.35l-1.37.27h-.55l-.55-.55c1.28-3.29,2.75-6.31,4.4-9.05v-.27c-4.64,3.66-7.76,5.48-9.35,5.48h-.82v-.27c0-.3,1.37-1.13,4.12-2.47l11.27-9.05,1.65-.27ZM688.71,47.36h.55l.46.55c-1.5,1.58-3.19,3.87-5.09,6.85,1.25,4.78,1.92,8.53,2.02,11.24-.34,1.22-.83,1.36-1.47.41-.37-.34-1.15-3.35-2.34-9.05-1.5,2.28-2.96,3.43-4.4,3.43h-.46v-.82c5.04-8.41,8.61-12.61,10.72-12.61Z"/>
    <path class="st0" d="M737.61,46.08l.27.27v.55c-4.76,7.74-7.15,12.85-7.15,15.35,0,1.46.64,2.19,1.93,2.19l9.35-3.29.28.27v.27c-4.92,2.92-9.04,4.48-12.37,4.66-1.65-.21-2.47-1.04-2.47-2.47,0-4.42,2.75-10.17,8.25-17.27l1.92-.55ZM721.52,52.34h.55l.55.55c-1.62,1.58-3.45,3.87-5.5,6.85,1.31,4.78,2.05,8.53,2.2,11.24-.37,1.22-.9,1.36-1.6.41-.4-.33-1.24-3.35-2.52-9.05-1.62,2.28-3.18,3.43-4.67,3.43h-.55v-.82c5.41-8.41,9.26-12.61,11.55-12.61Z"/>
    <path class="st0" d="M763.01,63.81l1.1.05.55.64-.14.82-.96,4.29h5.5l1.1.14.46.55c-.09.91-2.8,1.19-8.11.82-2.23,3.84-4.95,6.34-8.16,7.49l-.83-.09c-.37-.03-.54-.32-.5-.87.34-2.99,2.9-5.48,7.7-7.49l.92-3.75-.23-.37.14-1.1,1.47-1.14ZM756.55,64.77c-1.83,8.25-3.53,12.32-5.09,12.2l-.28-.09-.23-.27-.27-.05c1.8-8.1,3.41-12.06,4.81-11.88l1.05.09ZM756,75.74l-.09.55c1.65-1.16,2.83-2.51,3.53-4.07l-.28-.05c-.98-.09-2.03,1.1-3.16,3.56ZM771.44,39.73l.28.27v.55c-3.88,6.27-5.82,10.66-5.82,13.16,0,1.46.64,2.19,1.92,2.19l9.35-3.29.27.27v.27c-4.92,2.92-9.04,4.48-12.37,4.66-1.65-.21-2.48-1.04-2.48-2.47,0-4.42,2.31-9.44,6.92-15.08l1.92-.55ZM757.01,43.8l.23.32-.09.27c-.12.52-2.84.47-8.16-.14l-.83-.18-.41-.64c3.6-.4,6.69-.27,9.26.37ZM754.76,48.32l1.38.32c.3.15.53.69.69,1.6l-3.02,4.02c2.05.82,3.01,1.54,2.89,2.15l-.14.55c-.55,2.04-3.05,4.05-7.51,6.03l-1.7.14-.55-.14c-.92-.24-1.38-.65-1.38-1.23l.14-.5c.58-2.38,3.12-6.08,7.61-11.1l.23-.82c-1.89-.46-4.49.03-7.79,1.46l-1.65-.14-.28-.09.14-.46c3.45-2.16,7.1-2.76,10.95-1.78ZM752.29,55.86c-1.53,2.13-2.44,3.88-2.75,5.25,2.05-1.4,3.21-2.6,3.48-3.61l.09-.55-.55-1.05-.27-.05Z"/>
    <path class="st0" d="M806.66,46.45h1.38v.27c-2.35,3.32-6.61,11.18-12.78,23.58-.79,1.1-1.62,1.64-2.47,1.64l-.27-.27v-.27c5.13-12.85,9.48-21.08,13.06-24.67l1.1-.27ZM784.94,53.58l.27.82-.78,1.14c-1.19,1.89-2.03,4.2-2.52,6.94l.27,1.1,9.35-4.11,1.1-.27h.27v.55c-6.02,4.02-9.73,6.03-11.13,6.03h-1.1c-1.28,0-1.93-.64-1.93-1.92,0-3.38,1.42-6.72,4.26-10.01l1.92-.27Z"/>
    <path class="st0" d="M811.97,65.23l1.79.64c5.71-1.19,11.55-4.84,17.5-10.97,2.17-2.99,3.73-4.61,4.67-4.89h.82l.23.27h.27c-2.57,4.26-3.85,7.36-3.85,9.27v.55c0,1.46,1.11,2.19,3.35,2.19l8.61-1.92v.55c-1.47,1.04-4.08,1.95-7.83,2.74l-3.39.27h-1.01c-2.63,0-3.94-1.28-3.94-3.84v-.27c-6.08,5.67-11.55,8.5-16.4,8.5-2.26-.18-3.39-.64-3.39-1.37v-.55c0-1.46.85-1.86,2.57-1.19ZM814.17,58.05c1.47-1.1,2.12-1.13,1.97-.09-1.41,1.71-2.47,4.13-3.21,7.26-.18,1.16,3.59-.03,11.32-3.56,1.37-.18,1.36.14-.05.96-6.41,3.66-10.34,5.48-11.78,5.48h-1.1c-1.28,0-1.92-.55-1.92-1.64,0-2.83,1.59-5.64,4.77-8.41ZM821.77,53.44l.28.37-.05.27-7.28,2.38c-1.71,1.07-2.99,1.52-3.85,1.37l-.23-.32.09-.27c4.12-3.02,7.8-4.28,11.04-3.79Z"/>
    <path class="st0" d="M848.41,66.28c1.28.09,1.79.79,1.51,2.1-.18.97-.72,1.51-1.6,1.6-.64.12-1.18.03-1.6-.27-.43-.34-.6-.87-.5-1.6.18-1.13.92-1.74,2.2-1.83Z"/>
    <path class="st0" d="M100.69,3.88l.69.51c-1.55,2.17-3.52,5.82-5.93,10.94-.63,1.54-1.41,2.69-2.35,3.46-.52,0-1.03-2.31-1.55-6.94v-1.37l-2.75,7.02c-.67,1.98-1.21,2.94-1.63,2.88-.32,0-.83-2.82-1.52-8.45-.52-5.94-.17-8.91,1.03-8.91l.34,1.2.14,5.05.52,6.68c1.66-4.11,2.79-6.94,3.38-8.48.67-1.54,1.21-2.04,1.63-1.48l.32,2.17.72,6.51c2.35-4.74,4.35-8.28,6.01-10.62l.95-.17Z"/>
    <path class="st0" d="M109.71.94h1.06l.4.37c-.92,0-2.74,4.11-5.47,12.34,2.73-3.16,4.81-4.74,6.24-4.74h.17l.37.37v.74l-2,8.05v.37l.37.4.92-.4.2.57c-.59,1.09-1.51,1.63-2.75,1.63-.52-.17-.89-.48-1.12-.91v-.54c0-.78.79-3.71,2.38-8.8-3.59,2.89-5.8,5.94-6.62,9.14-.63.86-1.26,1.28-1.89,1.28l-.17-.17v-1.68c1.26-5.44,3.41-10.97,6.44-16.56l1.46-1.46Z"/>
    <path class="st0" d="M119.86,7.68h.54l.34.4c-1.72.34-3.06,1.1-4.01,2.28-.93,1.16-1.46,2.51-1.57,4.05l.17,1.4c.29,1.26,1.09,1.85,2.41,1.77,1.03,0,2.11-1.05,3.24-3.14l.29-1.46c-.02-1.48-.99-2.51-2.92-3.08.46-.59,1.26-.89,2.41-.89,1.24.17,1.86,1.29,1.86,3.34s-1.23,4.17-3.69,6.17c-1.15.63-2.22.94-3.24.94-1.85,0-2.78-1.06-2.78-3.17,0-3.98,1.75-6.8,5.24-8.45l1.72-.17Z"/>
    <path class="st0" d="M132.34,0v.23c-1.7,4.63-3.49,9.83-5.38,15.62l-.34,2.66v.74c-.71,1.16-1.42,1.74-2.15,1.74l-.17-.51c1.13-7.44,3.21-14.08,6.24-19.9l1.8-.57Z"/>
    <path class="st0" d="M139.46,7.48h.6c1.34,0,2.15.61,2.43,1.83v.4c-.12,2.68-2.35,4.86-6.7,6.54l-.03.23c.48,1.09,1.19,1.63,2.15,1.63h.63c1.01,0,2.69-.85,5.04-2.54l.17.23v.17c-1.87,2.36-3.95,3.54-6.24,3.54h-1.23c-1.32-.36-2.18-.94-2.58-1.74l-.43-1.11h-.95c-.9-.15-1.47-.54-1.72-1.17v-.2c.31-.61.66-.77,1.06-.49.4.29.94.43,1.63.43l.06-.8c.54-2.21,1.34-3.86,2.41-4.94,1.09-1.09,2.32-1.75,3.69-2ZM135.46,14.93c3.38-1.09,5.1-2.56,5.15-4.43l.06-.6c.02-.8-.21-1.2-.69-1.2-2.86,1.18-4.37,3.26-4.52,6.23Z"/>
    <path class="st0" d="M162.26,7.48c.86.11,1.29.3,1.29.54,0,.27-.37.46-1.12.57l-.92-.17c-1.2,0-2.76,1.54-4.67,4.63l-.92,3.51c.23.57.48.89.74.94h.95c.74,0,1.79-.25,3.12-.74h.4v.17c-1.81,1.48-3.87,2.23-6.16,2.23-.94,0-1.68-.37-2.23-1.11v-1.11c0-1.9,1.43-4.37,4.29-7.4,2.01-1.37,3.74-2.06,5.21-2.06Z"/>
    <path class="st0" d="M170.93,7.68h.54l.34.4c-1.72.34-3.05,1.1-4.01,2.28-.93,1.16-1.46,2.51-1.57,4.05l.17,1.4c.29,1.26,1.09,1.85,2.41,1.77,1.03,0,2.11-1.05,3.24-3.14l.29-1.46c-.02-1.48-.99-2.51-2.92-3.08.46-.59,1.26-.89,2.4-.89,1.24.17,1.86,1.29,1.86,3.34s-1.23,4.17-3.69,6.17c-1.15.63-2.22.94-3.24.94-1.85,0-2.78-1.06-2.78-3.17,0-3.98,1.75-6.8,5.24-8.45l1.72-.17Z"/>
    <path class="st0" d="M187.01.94c.93,0,1.48.25,1.63.74-.12.69-.66,1.18-1.63,1.48.51-.88.21-1.3-.92-1.29-1.72,1.24-2.72,3.52-3.01,6.85,2.04.4,3.72,0,5.04-1.23h.52l.2.17v.37c-.92,1.71-2.92,2.56-6.01,2.54-.42,3.6-1.82,6.52-4.21,8.77-.82.72-1.86,1.23-3.12,1.51-.95-.11-1.03-.34-.23-.69.8-.34,1.52-.86,2.15-1.54,2.23-2.61,3.26-5.34,3.09-8.2-1.32-.17-2.16.03-2.52.6l-.23.4v.17c0,.46-.47.55-1.4.29l-.23-.2v-.17c0-1.37,1.54-2.28,4.61-2.74.8-3.26,1.6-5.27,2.41-6.05.97-1.37,2.26-1.97,3.87-1.8Z"/>
    <path class="st0" d="M202.22.94c.94,0,1.48.25,1.63.74-.11.69-.66,1.18-1.63,1.48.52-.88.21-1.3-.92-1.29-1.72,1.24-2.72,3.52-3.01,6.85,2.04.4,3.72,0,5.04-1.23h.51l.2.17v.37c-.92,1.71-2.92,2.56-6.01,2.54-.42,3.6-1.82,6.52-4.21,8.77-.82.72-1.86,1.23-3.12,1.51-.96-.11-1.03-.34-.23-.69.8-.34,1.52-.86,2.15-1.54,2.23-2.61,3.26-5.34,3.09-8.2-1.32-.17-2.16.03-2.52.6l-.23.4v.17c0,.46-.47.55-1.4.29l-.23-.2v-.17c0-1.37,1.54-2.28,4.61-2.74.8-3.26,1.6-5.27,2.4-6.05.97-1.37,2.26-1.97,3.87-1.8Z"/>
    <path class="st0" d="M212.48,7.48h.6c1.34,0,2.15.61,2.43,1.83v.4c-.11,2.68-2.35,4.86-6.7,6.54l-.03.23c.48,1.09,1.19,1.63,2.15,1.63h.63c1.01,0,2.69-.85,5.04-2.54l.17.23v.17c-1.87,2.36-3.95,3.54-6.24,3.54h-1.23c-1.32-.36-2.18-.94-2.58-1.74l-.43-1.11h-.95c-.9-.15-1.47-.54-1.72-1.17v-.2c.31-.61.66-.77,1.06-.49.4.29.95.43,1.63.43l.06-.8c.53-2.21,1.34-3.86,2.4-4.94,1.09-1.09,2.32-1.75,3.69-2ZM208.47,14.93c3.38-1.09,5.1-2.56,5.15-4.43l.06-.6c.02-.8-.21-1.2-.69-1.2-2.86,1.18-4.37,3.26-4.52,6.23Z"/>
    <path class="st0" d="M225.18,7.48h.6c1.34,0,2.15.61,2.43,1.83v.4c-.12,2.68-2.35,4.86-6.7,6.54l-.03.23c.48,1.09,1.19,1.63,2.15,1.63h.63c1.01,0,2.69-.85,5.04-2.54l.17.23v.17c-1.87,2.36-3.95,3.54-6.24,3.54h-1.23c-1.32-.36-2.18-.94-2.58-1.74l-.43-1.11h-.95c-.9-.15-1.47-.54-1.72-1.17v-.2c.31-.61.66-.77,1.06-.49.4.29.94.43,1.63.43l.06-.8c.54-2.21,1.34-3.86,2.41-4.94,1.09-1.09,2.32-1.75,3.69-2ZM221.17,14.93c3.38-1.09,5.1-2.56,5.15-4.43l.06-.6c.02-.8-.21-1.2-.69-1.2-2.86,1.18-4.37,3.26-4.52,6.23Z"/>
    <path class="st0" d="M244.92,6.08c.32.13.47.3.43.51-.11.4-.26.89-.43,1.46,1.15-.55,2.28-.83,3.41-.83,2.12.44,3.1,1.41,2.95,2.91l-.2,1.54c-.52,2.28-2.41,4.13-5.67,5.54-1.38.46-2.48.78-3.32.97l-1.72,7.54-.26.6c-1.39.8-1.99.62-1.8-.54l.83-4.34.51-2.14.2-1.03c-1.05,0-1.6-.35-1.66-1.06-.06-.72.29-1.2,1.03-1.43-.27.86.05,1.22.95,1.09.8-3.18,1.67-6.51,2.61-9.99.44-.36,1.15-.63,2.15-.8ZM242.51,16.53c3.93-1.37,5.99-2.99,6.16-4.85.36-1.71-.14-2.69-1.52-2.94h-.51c-1.57.48-2.55,1.48-2.95,3l-1.17,4.8Z"/>
    <path class="st0" d="M261.82,8.22c.86.17,1.32.46,1.37.86l-.26.34-1.89-.17c-1.57,0-3.03,1.6-4.38,4.8-.74,3.54-1.86,5.31-3.35,5.31l-.08-.17v-.17l1.8-7.2-.09-.17.06-.69.12-.17c.06-1.03-.23-1.54-.86-1.54l-.09-.17v-.17c.11-.34.37-.51.77-.51h.83c.99,0,1.43.86,1.32,2.57,1.76-1.83,3.33-2.74,4.73-2.74Z"/>
    <path class="st0" d="M270.77,7.48h.6c1.34,0,2.15.61,2.43,1.83v.4c-.11,2.68-2.35,4.86-6.7,6.54l-.03.23c.48,1.09,1.19,1.63,2.15,1.63h.63c1.01,0,2.69-.85,5.04-2.54l.17.23v.17c-1.87,2.36-3.95,3.54-6.24,3.54h-1.23c-1.32-.36-2.18-.94-2.58-1.74l-.43-1.11h-.95c-.9-.15-1.47-.54-1.72-1.17v-.2c.31-.61.66-.77,1.06-.49.4.29.95.43,1.63.43l.06-.8c.53-2.21,1.34-3.86,2.4-4.94,1.09-1.09,2.32-1.75,3.7-2ZM266.76,14.93c3.38-1.09,5.1-2.56,5.15-4.43l.06-.6c.02-.8-.21-1.2-.69-1.2-2.86,1.18-4.37,3.26-4.52,6.23Z"/>
    <path class="st0" d="M288.01,7.6l.69.11c.67.44.92,1.29.74,2.54-.74,3.83-1.71,6.65-2.89,8.48,0,.3-.47.54-1.4.71l-.17-.51c1.43-3.94,2.27-6.46,2.52-7.57.27-1.12.14-1.75-.37-1.88-1.2.42-2.38,2.14-3.52,5.17-1.26,3.41-2.28,4.95-3.06,4.63-.4-.11.06-1.84,1.38-5.17,1.32-3.35,1.29-4.71-.09-4.08l-1.12,1.8c-1.57,3.24-2.46,5.23-2.69,5.97-.23.74-.63,1.22-1.2,1.43-.55.19-1.01.1-1.37-.29,2.02-4.7,2.96-7.43,2.81-8.2-.13-.76-.54-.72-1.23.11-.42.8-1.05.95-1.89.46-.34-.4-.3-.63.14-.69.42-.06.89-.51,1.4-1.37.52-.86,1.08-1.29,1.69-1.29h.54c.8.27,1.05,1.11.74,2.54.92-2.04,2.04-3.06,3.38-3.06.97.06,1.57.68,1.8,1.86.92-1.14,1.98-1.71,3.18-1.71Z"/>
    <path class="st0" d="M297.61,3.86c.4,0,.76.57,1.09,1.71-.5.51-.92.77-1.26.77-.71,0-1.23-.32-1.58-.97v-.4c0-.46.58-.83,1.75-1.11ZM297.35,7.71l.17.23v.17c-.52,1.03-1.47,4.75-2.86,11.17l-1.17.94h-.37l-.4-.37c.86-8.09,2.34-12.14,4.44-12.14h.2Z"/>
    <path class="st0" d="M309.11,7.74c-.82,1.73-1.48,4.31-1.98,7.74l.09,3.23c-.57.48-1.07.71-1.49.71-.63-.53-.77-1.94-.43-4.23l.2-1.43c-.97,3.24-2.55,5.12-4.73,5.65l-1.32.14c-1.2-.21-1.89-.98-2.06-2.31.42-5.03,1.82-7.91,4.21-8.65h.86v.17c-1.49.91-2.46,2.92-2.92,6.03-.4,1.87-.03,2.78,1.12,2.74,1.15-.06,2.26-.97,3.35-2.74,1.09-1.79,1.92-3.57,2.49-5.34.42-1.48,1.29-2.06,2.61-1.71Z"/>
    <path class="st0" d="M322.08,7.6l.69.11c.67.44.92,1.29.74,2.54-.74,3.83-1.71,6.65-2.89,8.48,0,.3-.47.54-1.4.71l-.17-.51c1.43-3.94,2.27-6.46,2.52-7.57.27-1.12.14-1.75-.37-1.88-1.2.42-2.38,2.14-3.52,5.17-1.26,3.41-2.28,4.95-3.06,4.63-.4-.11.06-1.84,1.37-5.17,1.32-3.35,1.29-4.71-.09-4.08l-1.12,1.8c-1.57,3.24-2.46,5.23-2.69,5.97-.23.74-.63,1.22-1.2,1.43-.55.19-1.01.1-1.38-.29,2.02-4.7,2.96-7.43,2.81-8.2-.13-.76-.54-.72-1.23.11-.42.8-1.05.95-1.89.46-.34-.4-.3-.63.14-.69.42-.06.89-.51,1.4-1.37.52-.86,1.08-1.29,1.69-1.29h.54c.8.27,1.05,1.11.74,2.54.92-2.04,2.04-3.06,3.38-3.06.97.06,1.58.68,1.8,1.86.92-1.14,1.98-1.71,3.18-1.71Z"/>
    <path class="st0" d="M342.17,1.94h.43c.84.08,1.26.29,1.26.63-1.3.17-2.92,3.31-4.87,9.42v.23c2.04-1.98,3.95-2.75,5.73-2.31.69.08,1.13.48,1.32,1.2v.37c-.25,3.98-3.26,6.72-9.05,8.22-.74,0-1.16.23-1.26.69l-1.03.23h-.63c-.29,0-.43-.22-.43-.66.99-3.62,3.11-8.99,6.36-16.11.65-1.28,1.38-1.91,2.18-1.91ZM336.59,18.65c2.52-.21,4.87-2.21,7.05-6l.23-.86-.23-.83h-.2c-1.7,0-3.49,1.25-5.38,3.74l-1.46,3.94Z"/>
    <path class="st0" d="M354.47,7.48h.6c1.34,0,2.15.61,2.43,1.83v.4c-.11,2.68-2.35,4.86-6.7,6.54l-.03.23c.48,1.09,1.19,1.63,2.15,1.63h.63c1.01,0,2.69-.85,5.04-2.54l.17.23v.17c-1.87,2.36-3.95,3.54-6.24,3.54h-1.23c-1.32-.36-2.18-.94-2.58-1.74l-.43-1.11h-.95c-.9-.15-1.47-.54-1.72-1.17v-.2c.3-.61.66-.77,1.06-.49.4.29.95.43,1.63.43l.06-.8c.54-2.21,1.34-3.86,2.41-4.94,1.09-1.09,2.32-1.75,3.69-2ZM350.46,14.93c3.38-1.09,5.1-2.56,5.15-4.43l.06-.6c.02-.8-.21-1.2-.69-1.2-2.86,1.18-4.37,3.26-4.52,6.23Z"/>
    <path class="st0" d="M370.48,7.85c.65-.13.8-.04.46.29-.34.3-.77.91-1.29,1.83l-.52,1.29-.74,2.03-.17.63c-.52,1.98-.1,3.44,1.26,4.37.46.29.2.42-.77.4-1.64,0-2.53-1.08-2.66-3.23h.26c-2.06,2.74-3.81,4.07-5.24,4-1.26.02-1.68-1.07-1.26-3.26,1.49-5.03,3.64-7.79,6.44-8.28h.26c.74,0,1.37.45,1.89,1.34.74-.8,1.44-1.27,2.09-1.4ZM361.75,14.39c-.63,1.94-.59,2.89.11,2.86,1.43-.08,2.81-1.2,4.12-3.37.61-1.18.93-2.2.94-3.06.04-.88-.34-1.25-1.14-1.11h-.06c-.86.06-1.86.96-3.01,2.71l-.97,1.97Z"/>
    <path class="st0" d="M381.55,9.45c.31.55-.06,2.08-1.09,4.57s-.93,3.98.32,4.45c1.26.48.86.74-1.2.8-1.78,0-2.05-1.67-.83-5,1.24-3.35,1.17-4.71-.2-4.08l-1.12,1.8c-1.58,3.22-2.49,5.2-2.72,5.94-.23.74-.62,1.22-1.17,1.43-.55.19-1.02.1-1.4-.26,2.04-4.72,2.99-7.45,2.84-8.2-.13-.76-.62-1.03-1.46-.8-.57.7-1.12.19-1.63-1.54.5.69,1,.79,1.52.31.52-.49,1.07-.74,1.66-.74h.57c.8.25,1.04,1.09.72,2.51.92-2.02,2.05-3.03,3.41-3.03.97.06,1.58.67,1.8,1.83Z"/>
    <path class="st0" d="M390.53,7.65c1.68.1,2.52.4,2.52.91,0,.3-.49.54-1.46.71l-1.4-.37h-1.29c-.4.17-1.05.77-1.95,1.8,0,.7,1.51,1.6,4.52,2.68l.89,1.09v.34c.32,1.6-.66,2.91-2.95,3.94l-2.63.51h-1.23c-.57,0-1.39-.4-2.46-1.2v-.69c0-.78.49-1.32,1.46-1.63,0,.69.97,1.23,2.92,1.63,1.98.06,3.01-.49,3.06-1.63v-.17c-.67-.72-2.29-1.68-4.87-2.88l-.54-.71v-.91c0-1.71,1.8-2.86,5.41-3.43Z"/>
    <path class="st0" d="M408.52,6.08c.32.13.47.3.43.51-.11.4-.26.89-.43,1.46,1.14-.55,2.28-.83,3.41-.83,2.12.44,3.1,1.41,2.95,2.91l-.2,1.54c-.52,2.28-2.41,4.13-5.67,5.54-1.38.46-2.48.78-3.32.97l-1.72,7.54-.26.6c-1.39.8-1.99.62-1.8-.54l.83-4.34.52-2.14.2-1.03c-1.05,0-1.6-.35-1.66-1.06-.06-.72.29-1.2,1.03-1.43-.27.86.05,1.22.95,1.09.8-3.18,1.67-6.51,2.61-9.99.44-.36,1.15-.63,2.15-.8ZM406.11,16.53c3.93-1.37,5.99-2.99,6.16-4.85.36-1.71-.14-2.69-1.52-2.94h-.52c-1.57.48-2.55,1.48-2.95,3l-1.17,4.8Z"/>
    <path class="st0" d="M425.42,8.22c.86.17,1.32.46,1.37.86l-.26.34-1.89-.17c-1.57,0-3.03,1.6-4.38,4.8-.74,3.54-1.86,5.31-3.35,5.31l-.09-.17v-.17l1.8-7.2-.09-.17.06-.69.11-.17c.06-1.03-.23-1.54-.86-1.54l-.09-.17v-.17c.11-.34.37-.51.77-.51h.83c.99,0,1.43.86,1.32,2.57,1.76-1.83,3.33-2.74,4.73-2.74Z"/>
    <path class="st0" d="M433.33,7.68h.54l.34.4c-1.72.34-3.05,1.1-4.01,2.28-.93,1.16-1.46,2.51-1.58,4.05l.17,1.4c.29,1.26,1.09,1.85,2.41,1.77,1.03,0,2.11-1.05,3.24-3.14l.29-1.46c-.02-1.48-.99-2.51-2.92-3.08.46-.59,1.26-.89,2.4-.89,1.24.17,1.86,1.29,1.86,3.34s-1.23,4.17-3.69,6.17c-1.15.63-2.23.94-3.24.94-1.85,0-2.78-1.06-2.78-3.17,0-3.98,1.75-6.8,5.24-8.45l1.72-.17Z"/>
    <path class="st0" d="M446.27,8.02l.26.34c-1.72,2.23-3.41,4.79-5.07,7.68-1.3,2.11-2.32,3.24-3.06,3.37-1.28-2.59-1.6-6.07-.97-10.45.13-.74.45-.94.95-.6h.95l-.23,1.11-.34,5.4.32,1.94c3.63-5.86,6.03-8.8,7.22-8.8Z"/>
    <path class="st0" d="M453.55,3.86c.4,0,.76.57,1.09,1.71-.5.51-.92.77-1.26.77-.71,0-1.23-.32-1.57-.97v-.4c0-.46.58-.83,1.75-1.11ZM453.29,7.71l.17.23v.17c-.51,1.03-1.47,4.75-2.86,11.17l-1.17.94h-.37l-.4-.37c.86-8.09,2.34-12.14,4.44-12.14h.2Z"/>
    <path class="st0" d="M465.11,1.14h1.09l.37.34v.17c-.8.86-2.06,4.45-3.78,10.79-1.16,4.26-2.15,6.97-2.95,8.11l-.83-.09-.54-.86c-.61.63-1.67,1.01-3.18,1.14h-.69c-.61,0-1.01-.89-1.2-2.66l-.06-.17.17-.17-.17-.17c.86-5.77,3.06-8.65,6.62-8.65l1.26.34c1.78-5.27,3.07-7.99,3.9-8.14ZM455.48,18.28l.43,1.26h.17c1.47,0,2.52-.89,3.15-2.66l1.49-5.28c-.29-1.43-1.06-1.83-2.32-1.2-2.14,1.47-3.11,4.09-2.92,7.88Z"/>
    <path class="st0" d="M474.97,7.48h.6c1.34,0,2.15.61,2.43,1.83v.4c-.11,2.68-2.35,4.86-6.7,6.54l-.03.23c.48,1.09,1.19,1.63,2.15,1.63h.63c1.01,0,2.69-.85,5.04-2.54l.17.23v.17c-1.87,2.36-3.95,3.54-6.24,3.54h-1.23c-1.32-.36-2.18-.94-2.58-1.74l-.43-1.11h-.94c-.9-.15-1.47-.54-1.72-1.17v-.2c.31-.61.66-.77,1.06-.49.4.29.94.43,1.63.43l.06-.8c.53-2.21,1.34-3.86,2.41-4.94,1.09-1.09,2.32-1.75,3.69-2ZM470.96,14.93c3.38-1.09,5.1-2.56,5.15-4.43l.06-.6c.02-.8-.21-1.2-.69-1.2-2.86,1.18-4.37,3.26-4.52,6.23Z"/>
    <path class="st0" d="M497.71,8.22c.86.17,1.32.46,1.37.86l-.26.34-1.89-.17c-1.57,0-3.03,1.6-4.38,4.8-.74,3.54-1.86,5.31-3.35,5.31l-.09-.17v-.17l1.8-7.2-.09-.17.06-.69.12-.17c.06-1.03-.23-1.54-.86-1.54l-.09-.17v-.17c.11-.34.37-.51.77-.51h.83c.99,0,1.43.86,1.32,2.57,1.76-1.83,3.33-2.74,4.73-2.74Z"/>
    <path class="st0" d="M505.28,3.86c.4,0,.76.57,1.09,1.71-.5.51-.92.77-1.26.77-.71,0-1.23-.32-1.57-.97v-.4c0-.46.58-.83,1.75-1.11ZM505.02,7.71l.17.23v.17c-.51,1.03-1.47,4.75-2.86,11.17l-1.17.94h-.37l-.4-.37c.86-8.09,2.34-12.14,4.44-12.14h.2Z"/>
    <path class="st0" d="M514.58,7.48c.86.11,1.29.3,1.29.54,0,.27-.37.46-1.12.57l-.92-.17c-1.2,0-2.76,1.54-4.67,4.63l-.92,3.51c.23.57.48.89.74.94h.95c.74,0,1.79-.25,3.12-.74h.4v.17c-1.81,1.48-3.87,2.23-6.16,2.23-.94,0-1.68-.37-2.23-1.11v-1.11c0-1.9,1.43-4.37,4.3-7.4,2-1.37,3.74-2.06,5.21-2.06Z"/>
    <path class="st0" d="M524.19.94h1.06l.4.37c-.92,0-2.74,4.11-5.47,12.34,2.73-3.16,4.81-4.74,6.24-4.74h.17l.37.37v.74l-2,8.05v.37l.37.4.92-.4.2.57c-.59,1.09-1.51,1.63-2.75,1.63-.52-.17-.89-.48-1.12-.91v-.54c0-.78.79-3.71,2.38-8.8-3.59,2.89-5.79,5.94-6.62,9.14-.63.86-1.26,1.28-1.89,1.28l-.17-.17v-1.68c1.26-5.44,3.41-10.97,6.44-16.56l1.46-1.46Z"/>
    <path class="st0" d="M547.29,7.85c.65-.13.8-.04.46.29-.34.3-.77.91-1.29,1.83l-.52,1.29-.74,2.03-.17.63c-.52,1.98-.1,3.44,1.26,4.37.46.29.2.42-.77.4-1.64,0-2.53-1.08-2.66-3.23h.26c-2.06,2.74-3.81,4.07-5.24,4-1.26.02-1.68-1.07-1.26-3.26,1.49-5.03,3.64-7.79,6.44-8.28h.26c.74,0,1.37.45,1.89,1.34.74-.8,1.44-1.27,2.09-1.4ZM538.55,14.39c-.63,1.94-.59,2.89.11,2.86,1.43-.08,2.81-1.2,4.12-3.37.61-1.18.93-2.2.95-3.06.04-.88-.34-1.25-1.14-1.11h-.06c-.86.06-1.86.96-3.01,2.71l-.97,1.97Z"/>
    <path class="st0" d="M558.12,8.22c.86.17,1.32.46,1.38.86l-.26.34-1.89-.17c-1.57,0-3.03,1.6-4.38,4.8-.74,3.54-1.86,5.31-3.35,5.31l-.09-.17v-.17l1.8-7.2-.08-.17.06-.69.11-.17c.06-1.03-.23-1.54-.86-1.54l-.09-.17v-.17c.12-.34.37-.51.77-.51h.83c.99,0,1.43.86,1.32,2.57,1.76-1.83,3.33-2.74,4.72-2.74Z"/>
    <path class="st0" d="M566.03,7.68h.54l.34.4c-1.72.34-3.05,1.1-4.01,2.28-.94,1.16-1.46,2.51-1.58,4.05l.17,1.4c.29,1.26,1.09,1.85,2.41,1.77,1.03,0,2.11-1.05,3.24-3.14l.29-1.46c-.02-1.48-.99-2.51-2.92-3.08.46-.59,1.26-.89,2.41-.89,1.24.17,1.86,1.29,1.86,3.34s-1.23,4.17-3.69,6.17c-1.15.63-2.22.94-3.24.94-1.85,0-2.78-1.06-2.78-3.17,0-3.98,1.75-6.8,5.24-8.45l1.72-.17Z"/>
    <path class="st0" d="M581.71,7.6l.69.11c.67.44.92,1.29.74,2.54-.74,3.83-1.71,6.65-2.89,8.48,0,.3-.47.54-1.4.71l-.17-.51c1.43-3.94,2.27-6.46,2.52-7.57.27-1.12.14-1.75-.37-1.88-1.2.42-2.38,2.14-3.52,5.17-1.26,3.41-2.28,4.95-3.06,4.63-.4-.11.06-1.84,1.38-5.17,1.32-3.35,1.29-4.71-.09-4.08l-1.12,1.8c-1.57,3.24-2.46,5.23-2.69,5.97-.23.74-.63,1.22-1.2,1.43-.55.19-1.01.1-1.37-.29,2.02-4.7,2.96-7.43,2.81-8.2-.13-.76-.54-.72-1.23.11-.42.8-1.05.95-1.89.46-.34-.4-.3-.63.14-.69.42-.06.89-.51,1.4-1.37.52-.86,1.08-1.29,1.69-1.29h.54c.8.27,1.05,1.11.74,2.54.92-2.04,2.04-3.06,3.38-3.06.97.06,1.58.68,1.8,1.86.92-1.14,1.98-1.71,3.18-1.71Z"/>
    <path class="st0" d="M596,7.85c.65-.13.8-.04.46.29-.34.3-.77.91-1.29,1.83l-.52,1.29-.74,2.03-.17.63c-.52,1.98-.1,3.44,1.26,4.37.46.29.2.42-.77.4-1.64,0-2.53-1.08-2.66-3.23h.26c-2.06,2.74-3.81,4.07-5.24,4-1.26.02-1.68-1.07-1.26-3.26,1.49-5.03,3.64-7.79,6.44-8.28h.26c.75,0,1.38.45,1.89,1.34.74-.8,1.44-1.27,2.09-1.4ZM587.27,14.39c-.63,1.94-.59,2.89.11,2.86,1.43-.08,2.81-1.2,4.12-3.37.61-1.18.93-2.2.95-3.06.04-.88-.34-1.25-1.15-1.11h-.06c-.86.06-1.86.96-3.01,2.71l-.97,1.97Z"/>
    <path class="st0" d="M617.28,7.85c.65-.13.8-.04.46.29-.34.3-.77.91-1.29,1.83l-.52,1.29-.74,2.03-.17.63c-.52,1.98-.1,3.44,1.26,4.37.46.29.2.42-.77.4-1.64,0-2.53-1.08-2.66-3.23h.26c-2.06,2.74-3.81,4.07-5.24,4-1.26.02-1.68-1.07-1.26-3.26,1.49-5.03,3.64-7.79,6.44-8.28h.26c.74,0,1.37.45,1.89,1.34.74-.8,1.44-1.27,2.09-1.4ZM608.55,14.39c-.63,1.94-.59,2.89.11,2.86,1.43-.08,2.81-1.2,4.12-3.37.61-1.18.93-2.2.95-3.06.04-.88-.34-1.25-1.15-1.11h-.06c-.86.06-1.86.96-3.01,2.71l-.97,1.97Z"/>
    <path class="st0" d="M628.35,9.45c.31.55-.06,2.08-1.09,4.57s-.93,3.98.32,4.45c1.26.48.86.74-1.2.8-1.77,0-2.05-1.67-.83-5,1.24-3.35,1.17-4.71-.2-4.08l-1.12,1.8c-1.59,3.22-2.49,5.2-2.72,5.94-.23.74-.62,1.22-1.17,1.43-.55.19-1.02.1-1.4-.26,2.04-4.72,2.99-7.45,2.84-8.2-.13-.76-.62-1.03-1.46-.8-.57.7-1.12.19-1.63-1.54.5.69,1,.79,1.52.31.52-.49,1.07-.74,1.66-.74h.57c.8.25,1.04,1.09.72,2.51.92-2.02,2.05-3.03,3.41-3.03.97.06,1.58.67,1.8,1.83Z"/>
    <path class="st0" d="M641.65,1.14h1.09l.37.34v.17c-.8.86-2.06,4.45-3.78,10.79-1.17,4.26-2.15,6.97-2.95,8.11l-.83-.09-.54-.86c-.61.63-1.67,1.01-3.18,1.14h-.69c-.61,0-1.01-.89-1.2-2.66l-.06-.17.17-.17-.17-.17c.86-5.77,3.07-8.65,6.62-8.65l1.26.34c1.77-5.27,3.07-7.99,3.89-8.14ZM632.03,18.28l.43,1.26h.17c1.47,0,2.52-.89,3.15-2.66l1.49-5.28c-.29-1.43-1.06-1.83-2.32-1.2-2.14,1.47-3.11,4.09-2.92,7.88Z"/>
    <path class="st0" d="M663.89,1.14h1.09l.37.34v.17c-.8.86-2.06,4.45-3.78,10.79-1.16,4.26-2.15,6.97-2.95,8.11l-.83-.09-.55-.86c-.61.63-1.67,1.01-3.18,1.14h-.69c-.61,0-1.01-.89-1.2-2.66l-.06-.17.17-.17-.17-.17c.86-5.77,3.07-8.65,6.62-8.65l1.26.34c1.78-5.27,3.07-7.99,3.89-8.14ZM654.27,18.28l.43,1.26h.17c1.47,0,2.52-.89,3.15-2.66l1.49-5.28c-.29-1.43-1.06-1.83-2.32-1.2-2.14,1.47-3.11,4.09-2.92,7.88Z"/>
    <path class="st0" d="M673.76,7.48h.6c1.34,0,2.15.61,2.43,1.83v.4c-.11,2.68-2.35,4.86-6.7,6.54l-.03.23c.48,1.09,1.19,1.63,2.15,1.63h.63c1.01,0,2.69-.85,5.04-2.54l.17.23v.17c-1.87,2.36-3.95,3.54-6.24,3.54h-1.23c-1.32-.36-2.18-.94-2.58-1.74l-.43-1.11h-.94c-.9-.15-1.47-.54-1.72-1.17v-.2c.3-.61.66-.77,1.06-.49.4.29.94.43,1.63.43l.06-.8c.53-2.21,1.34-3.86,2.4-4.94,1.09-1.09,2.32-1.75,3.7-2ZM669.74,14.93c3.38-1.09,5.1-2.56,5.16-4.43l.06-.6c.02-.8-.21-1.2-.69-1.2-2.86,1.18-4.37,3.26-4.53,6.23Z"/>
    <path class="st0" d="M686.45,7.48h.6c1.34,0,2.15.61,2.43,1.83v.4c-.11,2.68-2.35,4.86-6.7,6.54l-.03.23c.48,1.09,1.19,1.63,2.15,1.63h.63c1.01,0,2.69-.85,5.04-2.54l.17.23v.17c-1.87,2.36-3.95,3.54-6.24,3.54h-1.23c-1.32-.36-2.18-.94-2.58-1.74l-.43-1.11h-.95c-.9-.15-1.47-.54-1.72-1.17v-.2c.31-.61.66-.77,1.06-.49.4.29.95.43,1.63.43l.06-.8c.53-2.21,1.34-3.86,2.41-4.94,1.09-1.09,2.32-1.75,3.69-2ZM682.44,14.93c3.38-1.09,5.1-2.56,5.15-4.43l.06-.6c.02-.8-.21-1.2-.69-1.2-2.86,1.18-4.37,3.26-4.52,6.23Z"/>
    <path class="st0" d="M697.6,6.08c.33.13.47.3.43.51-.11.4-.26.89-.43,1.46,1.15-.55,2.28-.83,3.41-.83,2.12.44,3.1,1.41,2.95,2.91l-.2,1.54c-.52,2.28-2.4,4.13-5.67,5.54-1.38.46-2.48.78-3.32.97l-1.72,7.54-.26.6c-1.39.8-1.99.62-1.8-.54l.83-4.34.51-2.14.2-1.03c-1.05,0-1.6-.35-1.66-1.06-.06-.72.29-1.2,1.03-1.43-.27.86.05,1.22.95,1.09.8-3.18,1.67-6.51,2.6-9.99.44-.36,1.15-.63,2.15-.8ZM695.2,16.53c3.93-1.37,5.99-2.99,6.16-4.85.36-1.71-.14-2.69-1.52-2.94h-.52c-1.56.48-2.55,1.48-2.95,3l-1.17,4.8Z"/>
    <path class="st0" d="M723.15,3.86l.8.26v.17c-.02.21-.45.34-1.29.4-1.22.51-2.21,1.46-2.95,2.83l.17.03,3.35.06c.57.19.61.49.11.89l-3.98.57c-.96,1.79-1.63,4.16-2.03,7.11l-.11,1.2c-.04.65.09,1,.37,1.06l.52.06c.44-.1,1.53-.94,3.27-2.54l.92-.43.17.17-.06.17c-2.35,3.12-4.45,4.57-6.3,4.34-.9-.38-1.23-1.38-1-3,.61-3.41,1.23-5.97,1.86-7.68l.03-.17-1.2-.11c-1.16-.55-1.66-1.14-1.49-1.77.11-.97.66-1.37,1.63-1.2.65.4.56.65-.26.74-.33.69.05.97,1.12.86.82.02,1.35-.35,1.57-1.11,1.64-2.09,3.24-3.06,4.78-2.88Z"/>
    <path class="st0" d="M735.83,7.85c.65-.13.8-.04.46.29-.34.3-.77.91-1.29,1.83l-.52,1.29-.74,2.03-.17.63c-.52,1.98-.1,3.44,1.26,4.37.46.29.2.42-.77.4-1.64,0-2.53-1.08-2.66-3.23h.26c-2.06,2.74-3.81,4.07-5.24,4-1.26.02-1.68-1.07-1.26-3.26,1.49-5.03,3.64-7.79,6.44-8.28h.26c.74,0,1.38.45,1.89,1.34.74-.8,1.44-1.27,2.09-1.4ZM727.1,14.39c-.63,1.94-.59,2.89.11,2.86,1.43-.08,2.81-1.2,4.12-3.37.61-1.18.93-2.2.95-3.06.04-.88-.34-1.25-1.14-1.11h-.06c-.86.06-1.86.96-3.01,2.71l-.97,1.97Z"/>
    <path class="st0" d="M744.66,7.65c1.68.1,2.52.4,2.52.91,0,.3-.49.54-1.46.71l-1.4-.37h-1.29c-.4.17-1.05.77-1.95,1.8,0,.7,1.51,1.6,4.53,2.68l.89,1.09v.34c.33,1.6-.66,2.91-2.95,3.94l-2.64.51h-1.23c-.57,0-1.39-.4-2.46-1.2v-.69c0-.78.49-1.32,1.46-1.63,0,.69.97,1.23,2.92,1.63,1.99.06,3.01-.49,3.07-1.63v-.17c-.67-.72-2.29-1.68-4.87-2.88l-.54-.71v-.91c0-1.71,1.8-2.86,5.41-3.43Z"/>
    <path class="st0" d="M757.13,3.86l.8.26v.17c-.02.21-.45.34-1.29.4-1.22.51-2.21,1.46-2.95,2.83l.17.03,3.35.06c.57.19.61.49.11.89l-3.98.57c-.96,1.79-1.63,4.16-2.03,7.11l-.11,1.2c-.04.65.09,1,.37,1.06l.52.06c.44-.1,1.53-.94,3.26-2.54l.92-.43.17.17-.06.17c-2.35,3.12-4.45,4.57-6.3,4.34-.9-.38-1.23-1.38-1-3,.61-3.41,1.23-5.97,1.86-7.68l.03-.17-1.2-.11c-1.16-.55-1.66-1.14-1.49-1.77.11-.97.66-1.37,1.63-1.2.65.4.56.65-.26.74-.32.69.05.97,1.12.86.82.02,1.35-.35,1.58-1.11,1.64-2.09,3.24-3.06,4.78-2.88Z"/>
    <path class="st0" d="M766.49,7.48h.6c1.34,0,2.15.61,2.43,1.83v.4c-.11,2.68-2.35,4.86-6.7,6.54l-.03.23c.48,1.09,1.19,1.63,2.15,1.63h.63c1.01,0,2.69-.85,5.04-2.54l.17.23v.17c-1.87,2.36-3.95,3.54-6.24,3.54h-1.23c-1.32-.36-2.18-.94-2.58-1.74l-.43-1.11h-.95c-.9-.15-1.47-.54-1.72-1.17v-.2c.3-.61.66-.77,1.06-.49.4.29.95.43,1.63.43l.06-.8c.53-2.21,1.34-3.86,2.41-4.94,1.09-1.09,2.32-1.75,3.69-2ZM762.48,14.93c3.38-1.09,5.1-2.56,5.15-4.43l.06-.6c.02-.8-.21-1.2-.69-1.2-2.86,1.18-4.37,3.26-4.52,6.23Z"/>
    <path class="st0" d="M772.66,16.22c.8.06,1.12.5.95,1.31-.11.61-.45.94-1,1-.4.08-.73.02-1-.17-.27-.21-.37-.54-.31-1,.11-.7.57-1.09,1.37-1.14Z"/>
  </g>
  <g id="Layer_2">
    <g id="signiture_x5F_text">
      <path id="_홀커피_x5F_홀" data-name="홀커피_x5F_홀" class="st0" d="M15.07,65.78l.32.91c-.18.64-2.7,3.08-7.56,7.31l.23.37c1.83-.64,3.57-.81,5.22-.5l1.37.23.41.59-.23.55c-4.12,3.35-6.32,5.39-6.6,6.12l1.74.82,9.12-.09-.14.55c-.31,1.07-4.22,1.51-11.73,1.32l-1.1-.23c-.98-.12-1.44-.49-1.37-1.1l.18-.73c.46-1.46,2.6-3.52,6.41-6.17l.05-.27-.82-.14-6.19.59h-.27l-.32-.59c2.14-2.38,4.89-4.98,8.25-7.81l.14-.55h-.27c-3.18.3-5.65,1.26-7.42,2.88l-1.74.27-.41-.64c4.92-3.05,9.16-4.28,12.74-3.7ZM11.27,54.12c0,2.19-.84,4.25-2.52,6.17v.27c7.09-1.46,11.99-2.01,14.71-1.64l.18.27v.27c-.37.55-3.44,1.1-9.21,1.64-5.22,1.07-9.77,2.19-13.65,3.38h-.27L0,63.86c.7-.58,2.44-1.33,5.22-2.24,1.74-1.52,2.84-3.72,3.3-6.58.64-.79,1.56-1.1,2.75-.91ZM16.77,35.03l.23.32-.09.27c-.12.52-2.84.47-8.16-.14l-.82-.18-.41-.64c3.6-.4,6.69-.27,9.26.37ZM14.52,39.55l1.37.32c.31.15.53.69.69,1.6l-3.02,4.02c2.05.82,3.01,1.54,2.89,2.15l-.14.55c-.55,2.04-3.05,4.05-7.51,6.03l-1.7.14-.55-.14c-.92-.24-1.37-.65-1.37-1.23l.14-.5c.58-2.38,3.12-6.08,7.61-11.1l.23-.82c-1.89-.46-4.49.03-7.79,1.46l-1.65-.14-.27-.09.14-.46c3.45-2.16,7.1-2.76,10.95-1.78ZM12.05,47.09c-1.53,2.13-2.44,3.88-2.75,5.25,2.05-1.4,3.21-2.6,3.48-3.61l.09-.55-.55-1.05-.27-.05Z"/>
      <path id="_홀커피_x5F_커" data-name="홀커피_x5F_커" class="st0" d="M56.99,45.9h.55l.55.55c-3.45,4.66-6.29,12.34-8.52,23.03,0,2.01-.82,3.02-2.47,3.02l-.27-.27v-.27c0-5,1.74-11.85,5.22-20.56-7.06,6.03-11.64,9.05-13.75,9.05l-.55-.55c.27-1.64,1.1-2.47,2.47-2.47l.27,1.1c3.67-2.38,8.34-6.12,14.02-11.24,0-.55.82-1.01,2.47-1.37ZM35.18,51.52c1.19,0,1.92.82,2.2,2.47-.12,3.38-3.01,9.02-8.66,16.9l-.27.27h-.82l-.55-.55,5.64-10.6c-3.21,1.92-5.51,3.21-6.92,3.88h-.55l-.27-.27v-.27c2.5-2.1,5.36-3.85,8.57-5.25.37-.73.55-1.74.55-3.02.37-1.01,0-1.4-1.1-1.19l-.96.27c-.58.24-1.37.59-2.38,1.05l-2.75,1.55-.55-.55v-.27c2.29-2.41,5.24-3.88,8.84-4.43Z"/>
      <path id="_홀커피_x5F_피" data-name="홀커피_x5F_피" class="st0" d="M89.43,46.45h1.37v.27c-2.32,3.32-6.58,11.18-12.78,23.58-.76,1.1-1.59,1.64-2.47,1.64l-.27-.27v-.27c5.13-12.85,9.48-21.08,13.06-24.67l1.1-.27ZM75.14,51.38l.5.05-.69,1.46c-7.97,2.56-12.81,3.72-14.52,3.47l-.96-.14.09-.69c.64-.73,1.85-1.16,3.62-1.28l1.1-.23c2.02-.73,5.64-1.61,10.86-2.65ZM71.56,54.86l.41.78-.18,1.42c.09,1.89-1.1,4.26-3.57,7.13h.27l6.19-1.28v.82c-.52.64-4.18,1.89-11,3.75l-3.12,1.19-.69-.09c.15-1.13,1.74-2.27,4.77-3.43,2.75-3.38,4.28-6.27,4.58-8.68l.14-.96c.06-.33.79-.55,2.2-.64ZM64.97,57l.23.27-.41,1.23c-.34,1.04-.38,2.06-.14,3.06-1.01.7-1.82,1.02-2.43.96-.58-.09-.72-1.1-.41-3.02.61-1.86,1.66-2.7,3.16-2.51Z"/>
      <path id="_프리미엄_x5F_프" data-name="프리미엄_x5F_프" class="st0" d="M115.9,68.11c8.1-1.28,13.5-1.74,16.22-1.37l.18.27v.27c-.37.55-4.64,1.23-12.83,2.06-4.64.76-8.9,1.74-12.78,2.92h-.28l-.5-.59c.7-.61,2.44-1.37,5.22-2.28l4.76-1.28ZM126.39,46.08l.5.09-.69,1.42c-7.97,2.56-12.81,3.73-14.53,3.52l-.96-.14.09-.69c.64-.73,1.85-1.17,3.62-1.33l1.1-.18c2.02-.73,5.64-1.63,10.86-2.7ZM122.82,49.6l.41.73-.18,1.46c.09,1.86-1.1,4.23-3.57,7.13h.28l6.19-1.33v.82c-.52.64-4.18,1.9-11,3.79l-3.12,1.14-.69-.05c.15-1.16,1.74-2.3,4.76-3.43,2.75-3.38,4.28-6.29,4.58-8.73l.14-.96c.06-.3.79-.5,2.2-.59ZM116.22,51.7l.23.27-.41,1.23c-.34,1.07-.38,2.1-.14,3.11-1.01.67-1.82.99-2.43.96-.58-.09-.72-1.1-.41-3.02.61-1.89,1.66-2.74,3.16-2.56Z"/>
      <path id="_프리미엄_x5F_리" data-name="프리미엄_x5F_리" class="st0" d="M162.93,48.5h1.37v.27c-2.35,3.35-5.7,9.5-10.03,18.46-.79,1.1-1.62,1.64-2.47,1.64l-.27-.27v-.27c3.3-9.41,6.74-15.93,10.31-19.56l1.1-.27ZM141.08,52.62c2.29,0,3.16.85,2.61,2.56l-3.8,4.66,2.02.32c1.47.7,1.76,1.84.87,3.43l-3.57,3.52h1.65c2.17-.33,5.45-2.06,9.85-5.16l-2.29,2.42c-4.34,3.84-7.93,5.62-10.77,5.35l-.92-.41c-.4-.7-.46-1.39-.18-2.06.46-1.16,1.76-2.71,3.89-4.66-.09-.24-.75-.46-1.97-.64l-.78-.14c-1.31-.21-1.63-1.01-.96-2.38,1.47-1.01,2.75-2.59,3.85-4.75-1.56.15-3.07.87-4.54,2.15l.09.32v.23c-.43.49-1.07.5-1.92.05l-.37-.14-.18-.59c.82-2.16,3.3-3.52,7.42-4.07Z"/>
      <path id="_프리미엄_x5F_미" data-name="프리미엄_x5F_미" class="st0" d="M195.66,46.45h1.37v.27c-2.32,3.32-6.58,11.18-12.78,23.58-.76,1.1-1.59,1.64-2.47,1.64l-.27-.27v-.27c5.13-12.85,9.48-21.08,13.06-24.67l1.1-.27ZM173.25,53.17l.27.73-6.05,12.06-1.51.78-.28-.27v-.78c0-2.22,1.59-6.06,4.76-11.51l2.8-1.01ZM179.99,53.17c.7,0,1.21.34,1.51,1.01v.23l-5.41,9.78c-.61,1.1-.81,1.74-.6,1.92.24.15.72.08,1.42-.23.73-.34,1.56-.73,2.47-1.19.4.09.32.38-.23.87-2.84,2.01-4.72,3.02-5.64,3.02s-1.44-.24-1.56-.73c0-1.8,2.06-5.76,6.19-11.88l.27-1.01v-.55l-4.67,1.28h-.23l-.55-.46c1.56-1.37,3.9-2.06,7.01-2.06Z"/>
      <path id="_프리미엄_x5F_엄" data-name="프리미엄_x5F_엄" class="st0" d="M219.02,64.5l.55.82v.82l-2.2,5.76v.27h.55l6.87-2.19.27.27v.27c0,.82-3.02,2.1-9.07,3.84h-1.1l-.55-.55v-.55c0-.61.82-2.62,2.47-6.03v-.55h-1.1c-1.74,0-4.58,2.83-8.52,8.5l-1.65.55-.28-.27v-.27c1.74-6.94,3.57-10.42,5.5-10.42l.28.27h.27c-1.1,2.04-1.65,3.5-1.65,4.39,3.09-3.29,6.2-4.93,9.35-4.93ZM229.19,42.61l.55.82c-2.32,2.71-5.44,7.83-9.35,15.35l-1.37.27h-.55l-.55-.55c1.28-3.29,2.75-6.31,4.4-9.05v-.27c-4.61,3.66-7.73,5.48-9.35,5.48h-.83v-.27c0-.3,1.37-1.13,4.12-2.47l11.27-9.05,1.65-.27ZM207.57,48.78l.18.27-.05.55-1.37,2.01.18.05c2.29.91,3.33,2.18,3.12,3.79l-.09.27c-.4,2.68-2.96,4.96-7.7,6.85l-1.69.05c-.98-.12-1.56-.58-1.74-1.37l.14-1.1c.27-1.83,1.51-4.4,3.71-7.72l-.28-.09-.46-.59c1.96-.88,3.21-1.8,3.76-2.74l2.29-.23ZM204.59,53.58c-1.56,2.83-2.44,5.01-2.66,6.53l.14.87h.27c2.23-1.31,3.44-2.59,3.62-3.84l.23-1.1c.12-1.01-.23-1.8-1.05-2.38l-.55-.09Z"/>
      <path id="_원두로_x5F_원" data-name="원두로_x5F_원" class="st0" d="M276.46,48.87h1.1l.55.55c-2.57,3.66-5.13,8.68-7.7,15.08l-1.65.55h-.27l-.55-.55c0-1.43.64-3.72,1.92-6.85h-.27c-4.15,2.74-7.18,4.11-9.07,4.11h-.83l-.55-.55v-.27c.73-1.1,1.65-1.64,2.75-1.64h.55v.55c1.28,0,4.4-1.92,9.35-5.76,1.89-3.47,3.45-5.21,4.67-5.21ZM262.17,54.63h.82v.82c-2.84,1.1-5.32,3.93-7.42,8.5-.55.85-1.01,2.22-1.38,4.11l.27.82-2.2.82h-.55c-.37-.09-.73-.55-1.1-1.37.37-2.65,2.02-5.76,4.95-9.32v-.27h-.28c-5.53,3.11-8.83,4.66-9.9,4.66l-.55-.55c7.76-4.63,13.53-7.37,17.32-8.22ZM260.2,39.82l.18.27-.05.55-1.38,1.96.18.09c2.29.91,3.33,2.16,3.11,3.75l-.09.27c-.4,2.71-2.96,5-7.7,6.85l-1.7.09c-.98-.15-1.56-.61-1.74-1.37l.14-1.1c.27-1.83,1.51-4.42,3.71-7.77l-.28-.05-.46-.64c1.96-.85,3.21-1.77,3.76-2.74l2.29-.18ZM257.22,44.62c-1.56,2.83-2.44,5-2.66,6.49l.14.91h.27c2.23-1.34,3.44-2.62,3.62-3.84l.23-1.1c.12-1.01-.23-1.81-1.05-2.42l-.55-.05ZM261.89,67.01h.82l.55.55c-1.83,2.25-2.75,4.63-2.75,7.13v.55c.34.73.98,1.1,1.92,1.1h.55l7.15-1.92h.55v.27c0,1.07-3.21,2.35-9.62,3.84h-.55c-2.02,0-3.02-.73-3.02-2.19v-.27c0-3.14,1.47-6.15,4.4-9.05Z"/>
      <path id="_원두로_x5F_두" data-name="원두로_x5F_두" class="st0" d="M299.92,58.24l.28,1.46-.96.96c-2.81.64-4.92,1.25-6.32,1.83-2.57,3.56-4.4,6.88-5.5,9.96l.05.87c-.46.73-1.12,1.23-1.97,1.51l-.82-.18-.64-1.05.14-.46c.89-3.75,2.7-7.07,5.45-9.96-4.46,1.34-7.79,2.24-9.99,2.7l-.18-.37.05-.27c.73-.67,6.09-2.6,16.08-5.8.09-.34,1.54-.73,4.35-1.19ZM286.58,48.09c1.56-1.13,2.26-1.14,2.11-.05-1.5,1.83-2.64,4.43-3.44,7.81-.21,1.22,3.45.17,11-3.15,1.47-.24,1.42.09-.14,1.01-6.05,3.47-9.82,5.21-11.32,5.21h-1.24c-1.38,0-2.06-.56-2.06-1.69,0-3.08,1.69-6.12,5.09-9.14ZM294.74,43.84l.37.27-.09.27-7.88,2.15c-1.8.94-3.16,1.37-4.08,1.28l-.27-.32.09-.27c4.43-2.71,8.38-3.84,11.87-3.38Z"/>
      <path id="_원두로_x5F_로" data-name="원두로_x5F_로" class="st0" d="M315.19,62.53c-1.1,1.55-2.57,2.88-4.4,3.97l-.55.55c5.74-1.46,9.96-2.01,12.65-1.64l.23.27v.27c-.92.58-3.7,1.22-8.34,1.92-4.43.85-8.6,1.87-12.51,3.06h-.28l-.46-.59c.67-.61,2.41-1.37,5.22-2.28,3.21-1.86,5.27-3.55,6.19-5.07-.46-.64.29-.79,2.24-.46ZM312.95,47.77c2.41-.49,3.62.05,3.62,1.6v.27c-.95,1.55-2.96,3.21-6.05,4.98v.27c3.21-.37,4.81-.15,4.81.64.18.49.05,1.02-.41,1.6-.46.58-1.85,1.6-4.17,3.06l-.27.32v.23c.86.09,1.8.15,2.84.18,1.07,0,1.65.43,1.74,1.28.09.85-.6,1.28-2.06,1.28,0-.91-1.19-1.13-3.57-.64l-1.15.09c-1.07-.34-1.16-1.1-.27-2.28,2.47-1.86,3.71-2.97,3.71-3.34v-.27c-3.45.27-5.18-.03-5.18-.91v-.73c.55-.97,2.34-2.42,5.36-4.34l1.37-1.51-2.2.37-3.07.87-.27.09-.5-.41v-.55c1.92-1.07,3.83-1.78,5.73-2.15Z"/>
      <path id="_풍부한_x5F_풍" data-name="풍부한_x5F_풍" class="st0" d="M357.98,38.5l.46.09-.69,1.42c-7.97,2.56-12.8,3.73-14.48,3.52l-.96-.14.05-.69c.64-.73,1.86-1.17,3.67-1.33l1.1-.18c2.02-.73,5.64-1.63,10.86-2.7ZM354.41,42.02l.41.73-.23,1.46c.09,1.86-1.1,4.23-3.57,7.13h.27l6.19-1.33v.82c-.49.64-4.15,1.9-11,3.79l-3.07,1.14-.69-.05c.12-1.16,1.7-2.3,4.72-3.43,2.75-3.38,4.29-6.29,4.63-8.73l.14-.96c.03-.3.76-.5,2.2-.59ZM347.81,44.12l.18.27-.41,1.23c-.31,1.07-.35,2.1-.14,3.11-1.01.67-1.8.99-2.38.96-.61-.09-.75-1.1-.41-3.02.58-1.89,1.63-2.74,3.16-2.56ZM350.47,64.95l1.05-.14-1.74,1.37c-.73.79-1.16,1.48-1.28,2.06l.32-.18,1.65.27c1.56.49,2.14,1.72,1.74,3.7-.79,3.87-3.57,6.47-8.34,7.81-1.83-.06-2.63-1.07-2.38-3.02.37-2.01,1.25-4.1,2.66-6.26l-.32-.73c.83-.46,1.83-1.54,3.02-3.24,1.38-1.01,2.58-1.55,3.62-1.64ZM347.4,70.02c-2.11,2.65-3.15,4.8-3.12,6.44.15.7.79.81,1.92.32,1.16-.49,2.26-1.75,3.3-3.79l.09-.55c.27-1.43-.46-2.24-2.2-2.42ZM358.67,54.81l.27,1.46-.96.96c-2.81.64-4.92,1.25-6.32,1.83-2.11,3.11-3.25,5.28-3.44,6.53l.04.87c-.46.73-1.11,1.23-1.97,1.51l-.27-.96-.14-1.14.14-.5c-.06-1.92.72-3.79,2.34-5.62-4.46,1.34-7.79,2.24-9.99,2.7l-.18-.37.05-.27c.73-.67,6.09-2.6,16.08-5.8.09-.34,1.54-.73,4.35-1.19Z"/>
      <path id="_풍부한_x5F_부" data-name="풍부한_x5F_부" class="st0" d="M380.82,58.69l.27,1.46-.96.96c-2.78.64-4.89,1.25-6.32,1.83-2.57,3.56-4.4,6.88-5.5,9.96l.09.87c-.46.73-1.13,1.23-2.02,1.51l-.82-.18-.6-1.05.14-.46c.86-3.75,2.66-7.07,5.41-9.96-4.43,1.34-7.74,2.24-9.94,2.7l-.23-.37.09-.27c.73-.67,6.09-2.6,16.08-5.8.09-.34,1.53-.73,4.31-1.19ZM381.23,43.07h.55l.41.5v.27c.28,3.05-2.34,7.3-7.83,12.75-1.95,1.55-4.02,2.39-6.19,2.51-1.1-.12-1.65-.58-1.65-1.37,0-1.86,3.83-4.75,11.5-8.68,1.31-2.35,1.95-4.17,1.92-5.48l1.28-.5ZM370.51,44.53l.37.41c-.64,3.87-1.22,6.15-1.74,6.85-.64.46-1.24.69-1.79.69-.31,0-.49-.27-.55-.82.55-4.75,1.65-7.13,3.3-7.13h.41ZM369.09,56.18v.69l.41.41h1.38c1.31,0,3.33-2.06,6.05-6.17v-.23h-.27c-3.67,1.83-6.19,3.59-7.56,5.3Z"/>
      <path id="_풍부한_x5F_한" data-name="풍부한_x5F_한" class="st0" d="M399.63,65.5h.83l.55.55c-1.83,2.25-2.75,4.63-2.75,7.13v.55c.34.73.98,1.1,1.92,1.1h.55l7.15-1.92h.55v.27c0,1.07-3.21,2.35-9.62,3.84h-.55c-2.02,0-3.02-.73-3.02-2.19v-.27c0-3.14,1.47-6.15,4.4-9.05ZM411.73,41.33l.27.27v.55c-3.88,6.24-5.82,10.63-5.82,13.16,0,1.46.64,2.19,1.93,2.19l9.35-3.29.27.27v.27c-4.92,2.92-9.04,4.48-12.37,4.66-1.65-.24-2.47-1.07-2.47-2.47,0-4.45,2.31-9.47,6.92-15.08l1.93-.55ZM397.3,45.35l.23.37-.09.27c-.12.49-2.84.44-8.16-.14l-.83-.23-.41-.59c3.6-.43,6.69-.32,9.26.32ZM395.05,49.88l1.38.37c.31.12.53.64.69,1.55l-3.02,4.07c2.05.82,3.01,1.52,2.89,2.1l-.14.55c-.55,2.07-3.05,4.08-7.51,6.03l-1.7.14-.55-.14c-.92-.21-1.38-.62-1.38-1.23l.14-.46c.58-2.38,3.11-6.08,7.61-11.1l.23-.82c-1.89-.46-4.49.02-7.79,1.42l-1.65-.14-.27-.05.14-.5c3.45-2.13,7.1-2.73,10.95-1.78ZM392.58,57.41c-1.53,2.16-2.44,3.93-2.75,5.3,2.05-1.43,3.21-2.65,3.48-3.66l.09-.55-.55-1.01-.28-.09Z"/>
      <path id="_향과_x5F_향" data-name="향과_x5F_향" class="st0" d="M452.89,64.08l.23.27-.09.27c-1.28.94-1.99,1.68-2.11,2.19l.32-.23,1.37.41c1.38.55,1.91,1.45,1.6,2.7-.92,3.5-3.8,5.83-8.66,6.99l-.92-.27c-.64-.46-.96-.87-.96-1.23l.37-1.37c.46-1.74,1.3-3.37,2.52-4.89v-1.01c.43-.06,1.44-.97,3.02-2.74,1.44-.97,2.54-1.34,3.3-1.1ZM449.82,68.24c-1.34,1.83-2.29,3.78-2.84,5.85l.64.59.18.09c.7.18,1.79-1.04,3.25-3.66l.14-.46c.18-1.34-.27-2.15-1.38-2.42ZM461.51,42.06l.28.37-.09.27c-1.01.76-2.67,4.1-4.99,10.01,4.86-2.74,8.12-3.98,9.8-3.7l.55.05.41.69c-2.23.15-5.59,1.55-10.08,4.2-.92-.15-2.15,1.77-3.71,5.76-1.1,2.22-2.29,3.23-3.57,3.02l-.27-.27.05-.27c3.64-14.04,7.51-20.74,11.64-20.1ZM469.94,55.08l.28.37-.05.27-10.03,3.34c-1.71,1.07-2.99,1.52-3.85,1.37l-.23-.32.09-.27c5.96-3.66,10.55-5.24,13.79-4.75ZM446.16,46.31l.23.37-.09.27c-.12.49-2.84.44-8.16-.14l-.83-.23-.41-.59c3.6-.43,6.69-.32,9.26.32ZM443.91,50.84l1.38.37c.31.12.54.64.69,1.55l-3.02,4.07c2.05.82,3.01,1.52,2.89,2.1l-.14.55c-.55,2.07-3.05,4.08-7.51,6.03l-1.7.14-.55-.14c-.92-.21-1.38-.62-1.38-1.23l.14-.46c.58-2.38,3.11-6.08,7.61-11.1l.23-.82c-1.89-.46-4.49.02-7.79,1.42l-1.65-.14-.27-.05.14-.5c3.45-2.13,7.1-2.73,10.95-1.78ZM441.44,58.37c-1.53,2.16-2.44,3.93-2.75,5.3,2.05-1.43,3.21-2.65,3.48-3.66l.09-.55-.55-1.01-.28-.09Z"/>
      <path id="_향과_x5F_과" data-name="향과_x5F_과" class="st0" d="M483.12,48.5h1.65c1.44,0,2.35.46,2.75,1.37v.55c0,1.37-2.84,5.76-8.52,13.16l-1.93.55-.27-.82c0-.43,2.02-3.53,6.05-9.32l1.38-3.02v-.55c-.09-.55-.83-.82-2.2-.82l-6.32,1.1-.55-.55c2.44-1.1,5.1-1.64,7.97-1.64ZM499.62,49.05h.28c.37,0,.55.27.55.82-1.13,1.92-1.96,4.39-2.47,7.4v1.1c0,.37.27.55.82.55l9.9-2.19v.55c0,.58-3.67,1.58-11,3.02h-1.38c-1.01,0-1.65-.46-1.92-1.37l.55-3.56c-11.09,9.69-18.24,14.53-21.44,14.53-1.28-.27-1.92-.64-1.92-1.1,0-5.12,1.47-9.41,4.4-12.88l1.65-.27h.27c-2.2,5.15-3.3,9.17-3.3,12.06l.83.55c4.83-2.35,11.97-8.1,21.44-17.27,0-1.16.92-1.8,2.75-1.92Z"/>
      <path id="_깊은_x5F_깊" data-name="깊은_x5F_깊" class="st0" d="M555.13,38h1.38v.27c-2.32,3.35-6.58,11.21-12.78,23.58-.76,1.1-1.59,1.64-2.47,1.64l-.28-.27v-.27c5.13-12.82,9.48-21.05,13.06-24.67l1.1-.27ZM533.96,47.13c1.47,0,2.2.64,2.2,1.92-.64,2.13-3.16,7.02-7.56,14.67-1.38,3.66-2.8,5.48-4.26,5.48l-.27-.27v-.27c.46-2.35,3.39-8.33,8.8-17.96v-1.92h-.28c-2.51,0-4.8,1.1-6.87,3.29l-1.65.27-.28-.27v-.27c3.27-3.11,6.66-4.66,10.17-4.66ZM547.71,65.68l.23.27-.09.5c-1.68-.18-6.46.56-14.34,2.24l-1.65-.18-.5-.55c6.78-2.01,12.23-2.77,16.36-2.28ZM536.58,68.79l.5.05.18.27h.23l-2.02,5.76.23.78c-.55.37-1.31.55-2.29.55l-.83-.91c1.19-4.51,2.52-6.67,3.99-6.49ZM542.49,69.93l.23.09-.14,1.23c-.18,2.19-.85,4.11-2.02,5.76h.27c1.53-.52,4.77-.84,9.71-.96l.18.27-.05.27c-.61.4-3.94.87-9.99,1.42l-6.92,2.33-.41-.82c2.84-1.28,4.28-2.07,4.31-2.38,1.1-1.28,1.96-3.5,2.57-6.67.67-.46,1.42-.64,2.24-.55Z"/>
      <path id="_깊은_x5F_은" data-name="깊은_x5F_은" class="st0" d="M567.05,66.6l.28.27c-1.38,2.16-2.06,3.84-2.06,5.03v.87c0,.73,1.38,1.23,4.12,1.51l8.43-2.06.27.27v.27c-1.37,1.55-4.86,2.92-10.45,4.11h-1.24c-2.93,0-4.4-.97-4.4-2.92,1.25-4.9,2.93-7.36,5.04-7.36ZM567.88,60.25c8.09-1.28,13.5-1.74,16.22-1.37l.18.27v.27c-.37.55-4.64,1.23-12.83,2.06-4.64.76-8.9,1.74-12.78,2.92h-.27l-.5-.59c.7-.61,2.44-1.37,5.22-2.28l4.77-1.28ZM574.61,41.47l.18.27-.04.55-1.38,1.96.18.09c2.29.91,3.33,2.16,3.12,3.75l-.09.27c-.4,2.71-2.96,5-7.7,6.85l-1.7.09c-.98-.15-1.56-.61-1.74-1.37l.14-1.1c.28-1.83,1.51-4.42,3.71-7.77l-.28-.05-.46-.64c1.95-.85,3.21-1.77,3.76-2.74l2.29-.18ZM571.63,46.27c-1.56,2.83-2.44,5-2.66,6.49l.14.91h.27c2.23-1.34,3.44-2.62,3.62-3.84l.23-1.1c.12-1.01-.23-1.81-1.05-2.42l-.55-.05Z"/>
      <path id="_맛을_x5F_맛" data-name="맛을_x5F_맛" class="st0" d="M617.56,64.4h.27l.28.27h.27c0,.82-3.21,4.57-9.62,11.24-.09.46-.73.91-1.92,1.37l-.28-.27v-.27c.83-1.46,3.66-4.75,8.52-9.87.61-1.1,1.44-1.92,2.47-2.47ZM616.73,68.79c0,1.64,3.3,2.83,9.9,3.56l.82-.27.27.27v.27c0,1.1-2.2,1.83-6.6,2.19-4.4-1.01-6.6-2.01-6.6-3.02v-1.1c.64-.94,1.38-1.58,2.2-1.92ZM630.48,41.06l.27.27v.55c-4.77,7.71-7.15,12.82-7.15,15.35,0,1.46.64,2.19,1.92,2.19l9.35-3.29.28.27v.27c-4.89,2.92-9.01,4.48-12.37,4.66-1.65-.24-2.47-1.07-2.47-2.47,0-4.45,2.75-10.2,8.25-17.27l1.93-.55ZM606.97,47.82l.28.78-6.05,12.06-1.51.73-.28-.27v-.73c0-2.25,1.59-6.09,4.77-11.51l2.79-1.05ZM613.71,47.82c.7,0,1.21.35,1.51,1.05v.18l-4.99,8.86c-.98,1.68-1.28,2.7-.92,3.06,2.57-.3,6.87-4.2,12.92-11.7l4.9-5.71-3.3,4.61c-7.79,10.51-13.32,15.53-16.59,15.08-.92,0-1.44-.26-1.56-.78,0-1.77,2.06-5.71,6.19-11.83l.28-1.05v-.55l-4.67,1.33h-.23l-.55-.5c1.56-1.37,3.89-2.06,7.01-2.06Z"/>
      <path id="_맛을_x5F_을" data-name="맛을_x5F_을" class="st0" d="M654.33,62.71l.32.91c-.18.64-2.7,3.08-7.56,7.31l.23.37c1.83-.64,3.57-.81,5.22-.5l1.37.23.41.59-.23.55c-4.12,3.35-6.32,5.39-6.6,6.12l1.74.82,9.12-.09-.14.55c-.31,1.07-4.22,1.51-11.73,1.32l-1.1-.23c-.98-.12-1.44-.49-1.38-1.1l.18-.73c.46-1.46,2.6-3.52,6.41-6.17l.05-.27-.82-.14-6.19.59h-.27l-.32-.59c2.14-2.38,4.89-4.98,8.25-7.81l.14-.55h-.27c-3.18.3-5.65,1.26-7.42,2.88l-1.74.27-.41-.64c4.92-3.05,9.16-4.28,12.74-3.7ZM646.5,56.14c8.1-1.28,13.5-1.74,16.22-1.37l.18.27v.27c-.37.55-4.64,1.23-12.83,2.06-4.64.79-8.9,1.78-12.78,2.97h-.27l-.5-.64c.7-.58,2.44-1.33,5.22-2.24l4.77-1.32ZM653.23,37.36l.18.27-.05.55-1.38,2.01.18.05c2.29.91,3.33,2.18,3.12,3.79l-.09.27c-.4,2.68-2.96,4.96-7.7,6.85l-1.7.05c-.98-.12-1.56-.58-1.74-1.37l.14-1.1c.28-1.83,1.51-4.4,3.71-7.72l-.27-.09-.46-.59c1.96-.88,3.21-1.8,3.76-2.74l2.29-.23ZM650.25,42.15c-1.56,2.83-2.44,5.01-2.66,6.53l.14.87h.28c2.23-1.31,3.44-2.59,3.62-3.84l.23-1.1c.12-1.01-.23-1.8-1.05-2.38l-.55-.09Z"/>
      <path id="_선사합니다._x5F_선" data-name="선사합니다._x5F_선" class="st0" d="M692.46,63.26h.78l.46.55c-1.65,2.22-2.47,4.6-2.47,7.13v.55c.34.73.93,1.1,1.79,1.1l2.02-.41,5.82-2.33c5.1-1.92,6.96-2.3,5.59-1.14-1.38,1.13-5.77,3.06-13.2,5.8l-2.02.27c-1.77,0-2.66-.73-2.66-2.19v-.27c0-3.17,1.3-6.18,3.9-9.05ZM708.09,43.57l.55.82c-2.35,2.71-5.47,7.83-9.35,15.35l-1.37.27h-.55l-.55-.55c1.28-3.29,2.75-6.31,4.4-9.05v-.27c-4.64,3.66-7.76,5.48-9.35,5.48h-.82v-.27c0-.3,1.37-1.13,4.12-2.47l11.27-9.05,1.65-.27ZM688.71,47.36h.55l.46.55c-1.5,1.58-3.19,3.87-5.09,6.85,1.25,4.78,1.92,8.53,2.02,11.24-.34,1.22-.83,1.36-1.47.41-.37-.34-1.15-3.35-2.34-9.05-1.5,2.28-2.96,3.43-4.4,3.43h-.46v-.82c5.04-8.41,8.61-12.61,10.72-12.61Z"/>
      <path id="_선사합니다._x5F_사" data-name="선사합니다._x5F_사" class="st0" d="M737.61,46.08l.27.27v.55c-4.76,7.74-7.15,12.85-7.15,15.35,0,1.46.64,2.19,1.93,2.19l9.35-3.29.28.27v.27c-4.92,2.92-9.04,4.48-12.37,4.66-1.65-.21-2.47-1.04-2.47-2.47,0-4.42,2.75-10.17,8.25-17.27l1.92-.55ZM721.52,52.34h.55l.55.55c-1.62,1.58-3.45,3.87-5.5,6.85,1.31,4.78,2.05,8.53,2.2,11.24-.37,1.22-.9,1.36-1.6.41-.4-.33-1.24-3.35-2.52-9.05-1.62,2.28-3.18,3.43-4.67,3.43h-.55v-.82c5.41-8.41,9.26-12.61,11.55-12.61Z"/>
      <path id="_선사합니다._x5F_합" data-name="선사합니다._x5F_합" class="st0" d="M763.01,63.81l1.1.05.55.64-.14.82-.96,4.29h5.5l1.1.14.46.55c-.09.91-2.8,1.19-8.11.82-2.23,3.84-4.95,6.34-8.16,7.49l-.83-.09c-.37-.03-.54-.32-.5-.87.34-2.99,2.9-5.48,7.7-7.49l.92-3.75-.23-.37.14-1.1,1.47-1.14ZM756.55,64.77c-1.83,8.25-3.53,12.32-5.09,12.2l-.28-.09-.23-.27-.27-.05c1.8-8.1,3.41-12.06,4.81-11.88l1.05.09ZM756,75.74l-.09.55c1.65-1.16,2.83-2.51,3.53-4.07l-.28-.05c-.98-.09-2.03,1.1-3.16,3.56ZM771.44,39.73l.28.27v.55c-3.88,6.27-5.82,10.66-5.82,13.16,0,1.46.64,2.19,1.92,2.19l9.35-3.29.27.27v.27c-4.92,2.92-9.04,4.48-12.37,4.66-1.65-.21-2.48-1.04-2.48-2.47,0-4.42,2.31-9.44,6.92-15.08l1.92-.55ZM757.01,43.8l.23.32-.09.27c-.12.52-2.84.47-8.16-.14l-.83-.18-.41-.64c3.6-.4,6.69-.27,9.26.37ZM754.76,48.32l1.38.32c.3.15.53.69.69,1.6l-3.02,4.02c2.05.82,3.01,1.54,2.89,2.15l-.14.55c-.55,2.04-3.05,4.05-7.51,6.03l-1.7.14-.55-.14c-.92-.24-1.38-.65-1.38-1.23l.14-.5c.58-2.38,3.12-6.08,7.61-11.1l.23-.82c-1.89-.46-4.49.03-7.79,1.46l-1.65-.14-.28-.09.14-.46c3.45-2.16,7.1-2.76,10.95-1.78ZM752.29,55.86c-1.53,2.13-2.44,3.88-2.75,5.25,2.05-1.4,3.21-2.6,3.48-3.61l.09-.55-.55-1.05-.27-.05Z"/>
      <path id="_선사합니다._x5F_니" data-name="선사합니다._x5F_니" class="st0" d="M806.66,46.45h1.38v.27c-2.35,3.32-6.61,11.18-12.78,23.58-.79,1.1-1.62,1.64-2.47,1.64l-.27-.27v-.27c5.13-12.85,9.48-21.08,13.06-24.67l1.1-.27ZM784.94,53.58l.27.82-.78,1.14c-1.19,1.89-2.03,4.2-2.52,6.94l.27,1.1,9.35-4.11,1.1-.27h.27v.55c-6.02,4.02-9.73,6.03-11.13,6.03h-1.1c-1.28,0-1.93-.64-1.93-1.92,0-3.38,1.42-6.72,4.26-10.01l1.92-.27Z"/>
      <path id="_선사합니다._x5F_다" data-name="선사합니다._x5F_다" class="st0" d="M811.97,65.23l1.79.64c5.71-1.19,11.55-4.84,17.5-10.97,2.17-2.99,3.73-4.61,4.67-4.89h.82l.23.27h.27c-2.57,4.26-3.85,7.36-3.85,9.27v.55c0,1.46,1.11,2.19,3.35,2.19l8.61-1.92v.55c-1.47,1.04-4.08,1.95-7.83,2.74l-3.39.27h-1.01c-2.63,0-3.94-1.28-3.94-3.84v-.27c-6.08,5.67-11.55,8.5-16.4,8.5-2.26-.18-3.39-.64-3.39-1.37v-.55c0-1.46.85-1.86,2.57-1.19ZM814.17,58.05c1.47-1.1,2.12-1.13,1.97-.09-1.41,1.71-2.47,4.13-3.21,7.26-.18,1.16,3.59-.03,11.32-3.56,1.37-.18,1.36.14-.05.96-6.41,3.66-10.34,5.48-11.78,5.48h-1.1c-1.28,0-1.92-.55-1.92-1.64,0-2.83,1.59-5.64,4.77-8.41ZM821.77,53.44l.28.37-.05.27-7.28,2.38c-1.71,1.07-2.99,1.52-3.85,1.37l-.23-.32.09-.27c4.12-3.02,7.8-4.28,11.04-3.79Z"/>
      <path id="_선사합니다._x5F_." data-name="선사합니다._x5F_." class="st0" d="M848.42,66.28c1.28.09,1.79.79,1.51,2.1-.18.97-.72,1.51-1.6,1.6-.64.12-1.18.03-1.6-.27-.43-.34-.6-.87-.5-1.6.18-1.13.92-1.74,2.2-1.83Z"/>
      <path id="Whole_x5F_W" class="st0" d="M100.69,3.88l.69.51c-1.55,2.17-3.52,5.82-5.93,10.94-.63,1.54-1.41,2.69-2.35,3.46-.52,0-1.03-2.31-1.55-6.94v-1.37l-2.75,7.02c-.67,1.98-1.21,2.94-1.63,2.88-.32,0-.83-2.82-1.52-8.45-.52-5.94-.17-8.91,1.03-8.91l.34,1.2.14,5.05.52,6.68c1.66-4.11,2.79-6.94,3.38-8.48.67-1.54,1.21-2.04,1.63-1.48l.32,2.17.72,6.51c2.35-4.74,4.35-8.28,6.01-10.62l.95-.17Z"/>
      <path id="Whole_x5F_h" class="st0" d="M109.71.94h1.06l.4.37c-.92,0-2.74,4.11-5.47,12.34,2.73-3.16,4.81-4.74,6.24-4.74h.17l.37.37v.74l-2,8.05v.37l.37.4.92-.4.2.57c-.59,1.09-1.51,1.63-2.75,1.63-.52-.17-.89-.48-1.12-.91v-.54c0-.78.79-3.71,2.38-8.8-3.59,2.89-5.8,5.94-6.62,9.14-.63.86-1.26,1.28-1.89,1.28l-.17-.17v-1.68c1.26-5.44,3.41-10.97,6.44-16.56l1.46-1.46Z"/>
      <path id="Whole_x5F_o" class="st0" d="M119.86,7.68h.54l.34.4c-1.72.34-3.06,1.1-4.01,2.28-.93,1.16-1.46,2.51-1.57,4.05l.17,1.4c.29,1.26,1.09,1.85,2.41,1.77,1.03,0,2.11-1.05,3.24-3.14l.29-1.46c-.02-1.48-.99-2.51-2.92-3.08.46-.59,1.26-.89,2.41-.89,1.24.17,1.86,1.29,1.86,3.34s-1.23,4.17-3.69,6.17c-1.15.63-2.22.94-3.24.94-1.85,0-2.78-1.06-2.78-3.17,0-3.98,1.75-6.8,5.24-8.45l1.72-.17Z"/>
      <path id="Whole_x5F_l" class="st0" d="M132.34,0v.23c-1.7,4.63-3.49,9.83-5.38,15.62l-.34,2.66v.74c-.71,1.16-1.42,1.74-2.15,1.74l-.17-.51c1.13-7.44,3.21-14.08,6.24-19.9L132.34,0Z"/>
      <path id="Whole_x5F_e" class="st0" d="M139.46,7.48h.6c1.34,0,2.15.61,2.43,1.83v.4c-.12,2.68-2.35,4.86-6.7,6.54l-.03.23c.48,1.09,1.19,1.63,2.15,1.63h.63c1.01,0,2.69-.85,5.04-2.54l.17.23v.17c-1.87,2.36-3.95,3.54-6.24,3.54h-1.23c-1.32-.36-2.18-.94-2.58-1.74l-.43-1.11h-.95c-.9-.15-1.47-.54-1.72-1.17v-.2c.31-.61.66-.77,1.06-.49.4.29.94.43,1.63.43l.06-.8c.54-2.21,1.34-3.86,2.41-4.94,1.09-1.09,2.32-1.75,3.69-2ZM135.46,14.93c3.38-1.09,5.1-2.56,5.15-4.43l.06-.6c.02-.8-.21-1.2-.69-1.2-2.86,1.18-4.37,3.26-4.52,6.23Z"/>
      <path id="coffee_x5F_c" class="st0" d="M162.26,7.48c.86.11,1.29.3,1.29.54,0,.27-.37.46-1.12.57l-.92-.17c-1.2,0-2.76,1.54-4.67,4.63l-.92,3.51c.23.57.48.89.74.94h.95c.74,0,1.79-.25,3.12-.74h.4v.17c-1.81,1.48-3.87,2.23-6.16,2.23-.94,0-1.68-.37-2.23-1.11v-1.11c0-1.9,1.43-4.37,4.29-7.4,2.01-1.37,3.74-2.06,5.21-2.06Z"/>
      <path id="coffee_x5F_o" class="st0" d="M170.93,7.68h.54l.34.4c-1.72.34-3.05,1.1-4.01,2.28-.93,1.16-1.46,2.51-1.57,4.05l.17,1.4c.29,1.26,1.09,1.85,2.41,1.77,1.03,0,2.11-1.05,3.24-3.14l.29-1.46c-.02-1.48-.99-2.51-2.92-3.08.46-.59,1.26-.89,2.4-.89,1.24.17,1.86,1.29,1.86,3.34s-1.23,4.17-3.69,6.17c-1.15.63-2.22.94-3.24.94-1.85,0-2.78-1.06-2.78-3.17,0-3.98,1.75-6.8,5.24-8.45l1.72-.17Z"/>
      <path id="coffee_x5F_f" class="st0" d="M187.01.94c.93,0,1.48.25,1.63.74-.12.69-.66,1.18-1.63,1.48.51-.88.21-1.3-.92-1.29-1.72,1.24-2.72,3.52-3.01,6.85,2.04.4,3.72,0,5.04-1.23h.52l.2.17v.37c-.92,1.71-2.92,2.56-6.01,2.54-.42,3.6-1.82,6.52-4.21,8.77-.82.72-1.86,1.23-3.12,1.51-.95-.11-1.03-.34-.23-.69.8-.34,1.52-.86,2.15-1.54,2.23-2.61,3.26-5.34,3.09-8.2-1.32-.17-2.16.03-2.52.6l-.23.4v.17c0,.46-.47.55-1.4.29l-.23-.2v-.17c0-1.37,1.54-2.28,4.61-2.74.8-3.26,1.6-5.27,2.41-6.05.97-1.37,2.26-1.97,3.87-1.8Z"/>
      <path id="coffee_x5F_f2" class="st0" d="M202.22.94c.94,0,1.48.25,1.63.74-.11.69-.66,1.18-1.63,1.48.52-.88.21-1.3-.92-1.29-1.72,1.24-2.72,3.52-3.01,6.85,2.04.4,3.72,0,5.04-1.23h.51l.2.17v.37c-.92,1.71-2.92,2.56-6.01,2.54-.42,3.6-1.82,6.52-4.21,8.77-.82.72-1.86,1.23-3.12,1.51-.96-.11-1.03-.34-.23-.69.8-.34,1.52-.86,2.15-1.54,2.23-2.61,3.26-5.34,3.09-8.2-1.32-.17-2.16.03-2.52.6l-.23.4v.17c0,.46-.47.55-1.4.29l-.23-.2v-.17c0-1.37,1.54-2.28,4.61-2.74.8-3.26,1.6-5.27,2.4-6.05.97-1.37,2.26-1.97,3.87-1.8Z"/>
      <path id="coffee_x5F_e" class="st0" d="M212.48,7.48h.6c1.34,0,2.15.61,2.43,1.83v.4c-.11,2.68-2.35,4.86-6.7,6.54l-.03.23c.48,1.09,1.19,1.63,2.15,1.63h.63c1.01,0,2.69-.85,5.04-2.54l.17.23v.17c-1.87,2.36-3.95,3.54-6.24,3.54h-1.23c-1.32-.36-2.18-.94-2.58-1.74l-.43-1.11h-.95c-.9-.15-1.47-.54-1.72-1.17v-.2c.31-.61.66-.77,1.06-.49.4.29.95.43,1.63.43l.06-.8c.53-2.21,1.34-3.86,2.4-4.94,1.09-1.09,2.32-1.75,3.69-2ZM208.47,14.93c3.38-1.09,5.1-2.56,5.15-4.43l.06-.6c.02-.8-.21-1.2-.69-1.2-2.86,1.18-4.37,3.26-4.52,6.23Z"/>
      <path id="coffee_x5F_e2" class="st0" d="M225.18,7.48h.6c1.34,0,2.15.61,2.43,1.83v.4c-.12,2.68-2.35,4.86-6.7,6.54l-.03.23c.48,1.09,1.19,1.63,2.15,1.63h.63c1.01,0,2.69-.85,5.04-2.54l.17.23v.17c-1.87,2.36-3.95,3.54-6.24,3.54h-1.23c-1.32-.36-2.18-.94-2.58-1.74l-.43-1.11h-.95c-.9-.15-1.47-.54-1.72-1.17v-.2c.31-.61.66-.77,1.06-.49.4.29.94.43,1.63.43l.06-.8c.54-2.21,1.34-3.86,2.41-4.94,1.09-1.09,2.32-1.75,3.69-2ZM221.17,14.93c3.38-1.09,5.1-2.56,5.15-4.43l.06-.6c.02-.8-.21-1.2-.69-1.2-2.86,1.18-4.37,3.26-4.52,6.23Z"/>
      <path id="premium_x5F_p" class="st0" d="M244.92,6.08c.32.13.47.3.43.51-.11.4-.26.89-.43,1.46,1.15-.55,2.28-.83,3.41-.83,2.12.44,3.1,1.41,2.95,2.91l-.2,1.54c-.52,2.28-2.41,4.13-5.67,5.54-1.38.46-2.48.78-3.32.97l-1.72,7.54-.26.6c-1.39.8-1.99.62-1.8-.54l.83-4.34.51-2.14.2-1.03c-1.05,0-1.6-.35-1.66-1.06-.06-.72.29-1.2,1.03-1.43-.27.86.05,1.22.95,1.09.8-3.18,1.67-6.51,2.61-9.99.44-.36,1.15-.63,2.15-.8ZM242.51,16.53c3.93-1.37,5.99-2.99,6.16-4.85.36-1.71-.14-2.69-1.52-2.94h-.51c-1.57.48-2.55,1.48-2.95,3l-1.17,4.8Z"/>
      <path id="premium_x5F_r" class="st0" d="M261.82,8.22c.86.17,1.32.46,1.37.86l-.26.34-1.89-.17c-1.57,0-3.03,1.6-4.38,4.8-.74,3.54-1.86,5.31-3.35,5.31l-.08-.17v-.17l1.8-7.2-.09-.17.06-.69.12-.17c.06-1.03-.23-1.54-.86-1.54l-.09-.17v-.17c.11-.34.37-.51.77-.51h.83c.99,0,1.43.86,1.32,2.57,1.76-1.83,3.33-2.74,4.73-2.74Z"/>
      <path id="premium_x5F_e" class="st0" d="M270.77,7.48h.6c1.34,0,2.15.61,2.43,1.83v.4c-.11,2.68-2.35,4.86-6.7,6.54l-.03.23c.48,1.09,1.19,1.63,2.15,1.63h.63c1.01,0,2.69-.85,5.04-2.54l.17.23v.17c-1.87,2.36-3.95,3.54-6.24,3.54h-1.23c-1.32-.36-2.18-.94-2.58-1.74l-.43-1.11h-.95c-.9-.15-1.47-.54-1.72-1.17v-.2c.31-.61.66-.77,1.06-.49.4.29.95.43,1.63.43l.06-.8c.53-2.21,1.34-3.86,2.4-4.94,1.09-1.09,2.32-1.75,3.7-2ZM266.76,14.93c3.38-1.09,5.1-2.56,5.15-4.43l.06-.6c.02-.8-.21-1.2-.69-1.2-2.86,1.18-4.37,3.26-4.52,6.23Z"/>
      <path id="premium_x5F_m" class="st0" d="M288.01,7.6l.69.11c.67.44.92,1.29.74,2.54-.74,3.83-1.71,6.65-2.89,8.48,0,.3-.47.54-1.4.71l-.17-.51c1.43-3.94,2.27-6.46,2.52-7.57.27-1.12.14-1.75-.37-1.88-1.2.42-2.38,2.14-3.52,5.17-1.26,3.41-2.28,4.95-3.06,4.63-.4-.11.06-1.84,1.38-5.17,1.32-3.35,1.29-4.71-.09-4.08l-1.12,1.8c-1.57,3.24-2.46,5.23-2.69,5.97-.23.74-.63,1.22-1.2,1.43-.55.19-1.01.1-1.37-.29,2.02-4.7,2.96-7.43,2.81-8.2-.13-.76-.54-.72-1.23.11-.42.8-1.05.95-1.89.46-.34-.4-.3-.63.14-.69.42-.06.89-.51,1.4-1.37.52-.86,1.08-1.29,1.69-1.29h.54c.8.27,1.05,1.11.74,2.54.92-2.04,2.04-3.06,3.38-3.06.97.06,1.57.68,1.8,1.86.92-1.14,1.98-1.71,3.18-1.71Z"/>
      <path id="premium_x5F_i" class="st0" d="M297.61,3.86c.4,0,.76.57,1.09,1.71-.5.51-.92.77-1.26.77-.71,0-1.23-.32-1.58-.97v-.4c0-.46.58-.83,1.75-1.11ZM297.35,7.71l.17.23v.17c-.52,1.03-1.47,4.75-2.86,11.17l-1.17.94h-.37l-.4-.37c.86-8.09,2.34-12.14,4.44-12.14h.2Z"/>
      <path id="premium_x5F_u" class="st0" d="M309.11,7.74c-.82,1.73-1.48,4.31-1.98,7.74l.09,3.23c-.57.48-1.07.71-1.49.71-.63-.53-.77-1.94-.43-4.23l.2-1.43c-.97,3.24-2.55,5.12-4.73,5.65l-1.32.14c-1.2-.21-1.89-.98-2.06-2.31.42-5.03,1.82-7.91,4.21-8.65h.86v.17c-1.49.91-2.46,2.92-2.92,6.03-.4,1.87-.03,2.78,1.12,2.74,1.15-.06,2.26-.97,3.35-2.74,1.09-1.79,1.92-3.57,2.49-5.34.42-1.48,1.29-2.06,2.61-1.71Z"/>
      <path id="premium_x5F_m2" class="st0" d="M322.08,7.6l.69.11c.67.44.92,1.29.74,2.54-.74,3.83-1.71,6.65-2.89,8.48,0,.3-.47.54-1.4.71l-.17-.51c1.43-3.94,2.27-6.46,2.52-7.57.27-1.12.14-1.75-.37-1.88-1.2.42-2.38,2.14-3.52,5.17-1.26,3.41-2.28,4.95-3.06,4.63-.4-.11.06-1.84,1.37-5.17,1.32-3.35,1.29-4.71-.09-4.08l-1.12,1.8c-1.57,3.24-2.46,5.23-2.69,5.97-.23.74-.63,1.22-1.2,1.43-.55.19-1.01.1-1.38-.29,2.02-4.7,2.96-7.43,2.81-8.2-.13-.76-.54-.72-1.23.11-.42.8-1.05.95-1.89.46-.34-.4-.3-.63.14-.69.42-.06.89-.51,1.4-1.37.52-.86,1.08-1.29,1.69-1.29h.54c.8.27,1.05,1.11.74,2.54.92-2.04,2.04-3.06,3.38-3.06.97.06,1.58.68,1.8,1.86.92-1.14,1.98-1.71,3.18-1.71Z"/>
      <path id="beans_x5F_b" class="st0" d="M342.17,1.94h.43c.84.08,1.26.29,1.26.63-1.3.17-2.92,3.31-4.87,9.42v.23c2.04-1.98,3.95-2.75,5.73-2.31.69.08,1.13.48,1.32,1.2v.37c-.25,3.98-3.26,6.72-9.05,8.22-.74,0-1.16.23-1.26.69l-1.03.23h-.63c-.29,0-.43-.22-.43-.66.99-3.62,3.11-8.99,6.36-16.11.65-1.28,1.38-1.91,2.18-1.91ZM336.59,18.65c2.52-.21,4.87-2.21,7.05-6l.23-.86-.23-.83h-.2c-1.7,0-3.49,1.25-5.38,3.74l-1.46,3.94Z"/>
      <path id="beans_x5F_e" class="st0" d="M354.47,7.48h.6c1.34,0,2.15.61,2.43,1.83v.4c-.11,2.68-2.35,4.86-6.7,6.54l-.03.23c.48,1.09,1.19,1.63,2.15,1.63h.63c1.01,0,2.69-.85,5.04-2.54l.17.23v.17c-1.87,2.36-3.95,3.54-6.24,3.54h-1.23c-1.32-.36-2.18-.94-2.58-1.74l-.43-1.11h-.95c-.9-.15-1.47-.54-1.72-1.17v-.2c.3-.61.66-.77,1.06-.49.4.29.95.43,1.63.43l.06-.8c.54-2.21,1.34-3.86,2.41-4.94,1.09-1.09,2.32-1.75,3.69-2ZM350.46,14.93c3.38-1.09,5.1-2.56,5.15-4.43l.06-.6c.02-.8-.21-1.2-.69-1.2-2.86,1.18-4.37,3.26-4.52,6.23Z"/>
      <path id="beans_x5F_a" class="st0" d="M370.49,7.85c.65-.13.8-.04.46.29-.34.3-.77.91-1.29,1.83l-.52,1.29-.74,2.03-.17.63c-.52,1.98-.1,3.44,1.26,4.37.46.29.2.42-.77.4-1.64,0-2.53-1.08-2.66-3.23h.26c-2.06,2.74-3.81,4.07-5.24,4-1.26.02-1.68-1.07-1.26-3.26,1.49-5.03,3.64-7.79,6.44-8.28h.26c.74,0,1.37.45,1.89,1.34.74-.8,1.44-1.27,2.09-1.4ZM361.75,14.39c-.63,1.94-.59,2.89.11,2.86,1.43-.08,2.81-1.2,4.12-3.37.61-1.18.93-2.2.94-3.06.04-.88-.34-1.25-1.14-1.11h-.06c-.86.06-1.86.96-3.01,2.71l-.97,1.97Z"/>
      <path id="beans_x5F_n" class="st0" d="M381.55,9.45c.31.55-.06,2.08-1.09,4.57s-.93,3.98.32,4.45c1.26.48.86.74-1.2.8-1.78,0-2.05-1.67-.83-5,1.24-3.35,1.17-4.71-.2-4.08l-1.12,1.8c-1.58,3.22-2.49,5.2-2.72,5.94-.23.74-.62,1.22-1.17,1.43-.55.19-1.02.1-1.4-.26,2.04-4.72,2.99-7.45,2.84-8.2-.13-.76-.62-1.03-1.46-.8-.57.7-1.12.19-1.63-1.54.5.69,1,.79,1.52.31.52-.49,1.07-.74,1.66-.74h.57c.8.25,1.04,1.09.72,2.51.92-2.02,2.05-3.03,3.41-3.03.97.06,1.58.67,1.8,1.83Z"/>
      <path id="beans_x5F_s" class="st0" d="M390.53,7.65c1.68.1,2.52.4,2.52.91,0,.3-.49.54-1.46.71l-1.4-.37h-1.29c-.4.17-1.05.77-1.95,1.8,0,.7,1.51,1.6,4.52,2.68l.89,1.09v.34c.32,1.6-.66,2.91-2.95,3.94l-2.63.51h-1.23c-.57,0-1.39-.4-2.46-1.2v-.69c0-.78.49-1.32,1.46-1.63,0,.69.97,1.23,2.92,1.63,1.98.06,3.01-.49,3.06-1.63v-.17c-.67-.72-2.29-1.68-4.87-2.88l-.54-.71v-.91c0-1.71,1.8-2.86,5.41-3.43Z"/>
      <path id="provide_x5F_p" class="st0" d="M408.52,6.08c.32.13.47.3.43.51-.11.4-.26.89-.43,1.46,1.14-.55,2.28-.83,3.41-.83,2.12.44,3.1,1.41,2.95,2.91l-.2,1.54c-.52,2.28-2.41,4.13-5.67,5.54-1.38.46-2.48.78-3.32.97l-1.72,7.54-.26.6c-1.39.8-1.99.62-1.8-.54l.83-4.34.52-2.14.2-1.03c-1.05,0-1.6-.35-1.66-1.06-.06-.72.29-1.2,1.03-1.43-.27.86.05,1.22.95,1.09.8-3.18,1.67-6.51,2.61-9.99.44-.36,1.15-.63,2.15-.8ZM406.11,16.53c3.93-1.37,5.99-2.99,6.16-4.85.36-1.71-.14-2.69-1.52-2.94h-.52c-1.57.48-2.55,1.48-2.95,3l-1.17,4.8Z"/>
      <path id="provide_x5F_r" class="st0" d="M425.42,8.22c.86.17,1.32.46,1.37.86l-.26.34-1.89-.17c-1.57,0-3.03,1.6-4.38,4.8-.74,3.54-1.86,5.31-3.35,5.31l-.09-.17v-.17l1.8-7.2-.09-.17.06-.69.11-.17c.06-1.03-.23-1.54-.86-1.54l-.09-.17v-.17c.11-.34.37-.51.77-.51h.83c.99,0,1.43.86,1.32,2.57,1.76-1.83,3.33-2.74,4.73-2.74Z"/>
      <path id="provide_x5F_o" class="st0" d="M433.34,7.68h.54l.34.4c-1.72.34-3.05,1.1-4.01,2.28-.93,1.16-1.46,2.51-1.58,4.05l.17,1.4c.29,1.26,1.09,1.85,2.41,1.77,1.03,0,2.11-1.05,3.24-3.14l.29-1.46c-.02-1.48-.99-2.51-2.92-3.08.46-.59,1.26-.89,2.4-.89,1.24.17,1.86,1.29,1.86,3.34s-1.23,4.17-3.69,6.17c-1.15.63-2.23.94-3.24.94-1.85,0-2.78-1.06-2.78-3.17,0-3.98,1.75-6.8,5.24-8.45l1.72-.17Z"/>
      <path id="provide_x5F_v" class="st0" d="M446.27,8.02l.26.34c-1.72,2.23-3.41,4.79-5.07,7.68-1.3,2.11-2.32,3.24-3.06,3.37-1.28-2.59-1.6-6.07-.97-10.45.13-.74.45-.94.95-.6h.95l-.23,1.11-.34,5.4.32,1.94c3.63-5.86,6.03-8.8,7.22-8.8Z"/>
      <path id="provide_x5F_i" class="st0" d="M453.55,3.86c.4,0,.76.57,1.09,1.71-.5.51-.92.77-1.26.77-.71,0-1.23-.32-1.57-.97v-.4c0-.46.58-.83,1.75-1.11ZM453.29,7.71l.17.23v.17c-.51,1.03-1.47,4.75-2.86,11.17l-1.17.94h-.37l-.4-.37c.86-8.09,2.34-12.14,4.44-12.14h.2Z"/>
      <path id="provide_x5F_d" class="st0" d="M465.11,1.14h1.09l.37.34v.17c-.8.86-2.06,4.45-3.78,10.79-1.16,4.26-2.15,6.97-2.95,8.11l-.83-.09-.54-.86c-.61.63-1.67,1.01-3.18,1.14h-.69c-.61,0-1.01-.89-1.2-2.66l-.06-.17.17-.17-.17-.17c.86-5.77,3.06-8.65,6.62-8.65l1.26.34c1.78-5.27,3.07-7.99,3.9-8.14ZM455.48,18.28l.43,1.26h.17c1.47,0,2.52-.89,3.15-2.66l1.49-5.28c-.29-1.43-1.06-1.83-2.32-1.2-2.14,1.47-3.11,4.09-2.92,7.88Z"/>
      <path id="provide_x5F_e" class="st0" d="M474.97,7.48h.6c1.34,0,2.15.61,2.43,1.83v.4c-.11,2.68-2.35,4.86-6.7,6.54l-.03.23c.48,1.09,1.19,1.63,2.15,1.63h.63c1.01,0,2.69-.85,5.04-2.54l.17.23v.17c-1.87,2.36-3.95,3.54-6.24,3.54h-1.23c-1.32-.36-2.18-.94-2.58-1.74l-.43-1.11h-.94c-.9-.15-1.47-.54-1.72-1.17v-.2c.31-.61.66-.77,1.06-.49.4.29.94.43,1.63.43l.06-.8c.53-2.21,1.34-3.86,2.41-4.94,1.09-1.09,2.32-1.75,3.69-2ZM470.96,14.93c3.38-1.09,5.1-2.56,5.15-4.43l.06-.6c.02-.8-.21-1.2-.69-1.2-2.86,1.18-4.37,3.26-4.52,6.23Z"/>
      <path id="rich_x5F_r" class="st0" d="M497.72,8.22c.86.17,1.32.46,1.37.86l-.26.34-1.89-.17c-1.57,0-3.03,1.6-4.38,4.8-.74,3.54-1.86,5.31-3.35,5.31l-.09-.17v-.17l1.8-7.2-.09-.17.06-.69.12-.17c.06-1.03-.23-1.54-.86-1.54l-.09-.17v-.17c.11-.34.37-.51.77-.51h.83c.99,0,1.43.86,1.32,2.57,1.76-1.83,3.33-2.74,4.73-2.74Z"/>
      <path id="rich_x5F_i" class="st0" d="M505.28,3.86c.4,0,.76.57,1.09,1.71-.5.51-.92.77-1.26.77-.71,0-1.23-.32-1.57-.97v-.4c0-.46.58-.83,1.75-1.11ZM505.03,7.71l.17.23v.17c-.51,1.03-1.47,4.75-2.86,11.17l-1.17.94h-.37l-.4-.37c.86-8.09,2.34-12.14,4.44-12.14h.2Z"/>
      <path id="rich_x5F_c" class="st0" d="M514.58,7.48c.86.11,1.29.3,1.29.54,0,.27-.37.46-1.12.57l-.92-.17c-1.2,0-2.76,1.54-4.67,4.63l-.92,3.51c.23.57.48.89.74.94h.95c.74,0,1.79-.25,3.12-.74h.4v.17c-1.81,1.48-3.87,2.23-6.16,2.23-.94,0-1.68-.37-2.23-1.11v-1.11c0-1.9,1.43-4.37,4.3-7.4,2-1.37,3.74-2.06,5.21-2.06Z"/>
      <path id="rich_x5F_h" class="st0" d="M524.19.94h1.06l.4.37c-.92,0-2.74,4.11-5.47,12.34,2.73-3.16,4.81-4.74,6.24-4.74h.17l.37.37v.74l-2,8.05v.37l.37.4.92-.4.2.57c-.59,1.09-1.51,1.63-2.75,1.63-.52-.17-.89-.48-1.12-.91v-.54c0-.78.79-3.71,2.38-8.8-3.59,2.89-5.79,5.94-6.62,9.14-.63.86-1.26,1.28-1.89,1.28l-.17-.17v-1.68c1.26-5.44,3.41-10.97,6.44-16.56l1.46-1.46Z"/>
      <path id="aroma_x5F_a" class="st0" d="M547.29,7.85c.65-.13.8-.04.46.29-.34.3-.77.91-1.29,1.83l-.52,1.29-.74,2.03-.17.63c-.52,1.98-.1,3.44,1.26,4.37.46.29.2.42-.77.4-1.64,0-2.53-1.08-2.66-3.23h.26c-2.06,2.74-3.81,4.07-5.24,4-1.26.02-1.68-1.07-1.26-3.26,1.49-5.03,3.64-7.79,6.44-8.28h.26c.74,0,1.37.45,1.89,1.34.74-.8,1.44-1.27,2.09-1.4ZM538.55,14.39c-.63,1.94-.59,2.89.11,2.86,1.43-.08,2.81-1.2,4.12-3.37.61-1.18.93-2.2.95-3.06.04-.88-.34-1.25-1.14-1.11h-.06c-.86.06-1.86.96-3.01,2.71l-.97,1.97Z"/>
      <path id="aroma_x5F_r" class="st0" d="M558.12,8.22c.86.17,1.32.46,1.38.86l-.26.34-1.89-.17c-1.57,0-3.03,1.6-4.38,4.8-.74,3.54-1.86,5.31-3.35,5.31l-.09-.17v-.17l1.8-7.2-.08-.17.06-.69.11-.17c.06-1.03-.23-1.54-.86-1.54l-.09-.17v-.17c.12-.34.37-.51.77-.51h.83c.99,0,1.43.86,1.32,2.57,1.76-1.83,3.33-2.74,4.72-2.74Z"/>
      <path id="aroma_x5F_o" class="st0" d="M566.03,7.68h.54l.34.4c-1.72.34-3.05,1.1-4.01,2.28-.94,1.16-1.46,2.51-1.58,4.05l.17,1.4c.29,1.26,1.09,1.85,2.41,1.77,1.03,0,2.11-1.05,3.24-3.14l.29-1.46c-.02-1.48-.99-2.51-2.92-3.08.46-.59,1.26-.89,2.41-.89,1.24.17,1.86,1.29,1.86,3.34s-1.23,4.17-3.69,6.17c-1.15.63-2.22.94-3.24.94-1.85,0-2.78-1.06-2.78-3.17,0-3.98,1.75-6.8,5.24-8.45l1.72-.17Z"/>
      <path id="aroma_x5F_m" class="st0" d="M581.71,7.6l.69.11c.67.44.92,1.29.74,2.54-.74,3.83-1.71,6.65-2.89,8.48,0,.3-.47.54-1.4.71l-.17-.51c1.43-3.94,2.27-6.46,2.52-7.57.27-1.12.14-1.75-.37-1.88-1.2.42-2.38,2.14-3.52,5.17-1.26,3.41-2.28,4.95-3.06,4.63-.4-.11.06-1.84,1.38-5.17,1.32-3.35,1.29-4.71-.09-4.08l-1.12,1.8c-1.57,3.24-2.46,5.23-2.69,5.97-.23.74-.63,1.22-1.2,1.43-.55.19-1.01.1-1.37-.29,2.02-4.7,2.96-7.43,2.81-8.2-.13-.76-.54-.72-1.23.11-.42.8-1.05.95-1.89.46-.34-.4-.3-.63.14-.69.42-.06.89-.51,1.4-1.37.52-.86,1.08-1.29,1.69-1.29h.54c.8.27,1.05,1.11.74,2.54.92-2.04,2.04-3.06,3.38-3.06.97.06,1.58.68,1.8,1.86.92-1.14,1.98-1.71,3.18-1.71Z"/>
      <path id="aroma_x5F_a2" class="st0" d="M596,7.85c.65-.13.8-.04.46.29-.34.3-.77.91-1.29,1.83l-.52,1.29-.74,2.03-.17.63c-.52,1.98-.1,3.44,1.26,4.37.46.29.2.42-.77.4-1.64,0-2.53-1.08-2.66-3.23h.26c-2.06,2.74-3.81,4.07-5.24,4-1.26.02-1.68-1.07-1.26-3.26,1.49-5.03,3.64-7.79,6.44-8.28h.26c.75,0,1.38.45,1.89,1.34.74-.8,1.44-1.27,2.09-1.4ZM587.27,14.39c-.63,1.94-.59,2.89.11,2.86,1.43-.08,2.81-1.2,4.12-3.37.61-1.18.93-2.2.95-3.06.04-.88-.34-1.25-1.15-1.11h-.06c-.86.06-1.86.96-3.01,2.71l-.97,1.97Z"/>
      <path id="and_x5F_a" class="st0" d="M617.29,7.85c.65-.13.8-.04.46.29-.34.3-.77.91-1.29,1.83l-.52,1.29-.74,2.03-.17.63c-.52,1.98-.1,3.44,1.26,4.37.46.29.2.42-.77.4-1.64,0-2.53-1.08-2.66-3.23h.26c-2.06,2.74-3.81,4.07-5.24,4-1.26.02-1.68-1.07-1.26-3.26,1.49-5.03,3.64-7.79,6.44-8.28h.26c.74,0,1.37.45,1.89,1.34.74-.8,1.44-1.27,2.09-1.4ZM608.55,14.39c-.63,1.94-.59,2.89.11,2.86,1.43-.08,2.81-1.2,4.12-3.37.61-1.18.93-2.2.95-3.06.04-.88-.34-1.25-1.15-1.11h-.06c-.86.06-1.86.96-3.01,2.71l-.97,1.97Z"/>
      <path id="and_x5F_n" class="st0" d="M628.35,9.45c.31.55-.06,2.08-1.09,4.57s-.93,3.98.32,4.45c1.26.48.86.74-1.2.8-1.77,0-2.05-1.67-.83-5,1.24-3.35,1.17-4.71-.2-4.08l-1.12,1.8c-1.59,3.22-2.49,5.2-2.72,5.94-.23.74-.62,1.22-1.17,1.43-.55.19-1.02.1-1.4-.26,2.04-4.72,2.99-7.45,2.84-8.2-.13-.76-.62-1.03-1.46-.8-.57.7-1.12.19-1.63-1.54.5.69,1,.79,1.52.31.52-.49,1.07-.74,1.66-.74h.57c.8.25,1.04,1.09.72,2.51.92-2.02,2.05-3.03,3.41-3.03.97.06,1.58.67,1.8,1.83Z"/>
      <path id="and_x5F_d" class="st0" d="M641.65,1.14h1.09l.37.34v.17c-.8.86-2.06,4.45-3.78,10.79-1.17,4.26-2.15,6.97-2.95,8.11l-.83-.09-.54-.86c-.61.63-1.67,1.01-3.18,1.14h-.69c-.61,0-1.01-.89-1.2-2.66l-.06-.17.17-.17-.17-.17c.86-5.77,3.07-8.65,6.62-8.65l1.26.34c1.77-5.27,3.07-7.99,3.89-8.14ZM632.03,18.28l.43,1.26h.17c1.47,0,2.52-.89,3.15-2.66l1.49-5.28c-.29-1.43-1.06-1.83-2.32-1.2-2.14,1.47-3.11,4.09-2.92,7.88Z"/>
      <path id="deep_x5F_d" class="st0" d="M663.89,1.14h1.09l.37.34v.17c-.8.86-2.06,4.45-3.78,10.79-1.16,4.26-2.15,6.97-2.95,8.11l-.83-.09-.55-.86c-.61.63-1.67,1.01-3.18,1.14h-.69c-.61,0-1.01-.89-1.2-2.66l-.06-.17.17-.17-.17-.17c.86-5.77,3.07-8.65,6.62-8.65l1.26.34c1.78-5.27,3.07-7.99,3.89-8.14ZM654.27,18.28l.43,1.26h.17c1.47,0,2.52-.89,3.15-2.66l1.49-5.28c-.29-1.43-1.06-1.83-2.32-1.2-2.14,1.47-3.11,4.09-2.92,7.88Z"/>
      <path id="deep_x5F_e" class="st0" d="M673.76,7.48h.6c1.34,0,2.15.61,2.43,1.83v.4c-.11,2.68-2.35,4.86-6.7,6.54l-.03.23c.48,1.09,1.19,1.63,2.15,1.63h.63c1.01,0,2.69-.85,5.04-2.54l.17.23v.17c-1.87,2.36-3.95,3.54-6.24,3.54h-1.23c-1.32-.36-2.18-.94-2.58-1.74l-.43-1.11h-.94c-.9-.15-1.47-.54-1.72-1.17v-.2c.3-.61.66-.77,1.06-.49.4.29.94.43,1.63.43l.06-.8c.53-2.21,1.34-3.86,2.4-4.94,1.09-1.09,2.32-1.75,3.7-2ZM669.75,14.93c3.38-1.09,5.1-2.56,5.16-4.43l.06-.6c.02-.8-.21-1.2-.69-1.2-2.86,1.18-4.37,3.26-4.53,6.23Z"/>
      <path id="deep_x5F_e2" class="st0" d="M686.45,7.48h.6c1.34,0,2.15.61,2.43,1.83v.4c-.11,2.68-2.35,4.86-6.7,6.54l-.03.23c.48,1.09,1.19,1.63,2.15,1.63h.63c1.01,0,2.69-.85,5.04-2.54l.17.23v.17c-1.87,2.36-3.95,3.54-6.24,3.54h-1.23c-1.32-.36-2.18-.94-2.58-1.74l-.43-1.11h-.95c-.9-.15-1.47-.54-1.72-1.17v-.2c.31-.61.66-.77,1.06-.49.4.29.95.43,1.63.43l.06-.8c.53-2.21,1.34-3.86,2.41-4.94,1.09-1.09,2.32-1.75,3.69-2ZM682.44,14.93c3.38-1.09,5.1-2.56,5.15-4.43l.06-.6c.02-.8-.21-1.2-.69-1.2-2.86,1.18-4.37,3.26-4.52,6.23Z"/>
      <path id="deep_x5F_p" class="st0" d="M697.6,6.08c.33.13.47.3.43.51-.11.4-.26.89-.43,1.46,1.15-.55,2.28-.83,3.41-.83,2.12.44,3.1,1.41,2.95,2.91l-.2,1.54c-.52,2.28-2.4,4.13-5.67,5.54-1.38.46-2.48.78-3.32.97l-1.72,7.54-.26.6c-1.39.8-1.99.62-1.8-.54l.83-4.34.51-2.14.2-1.03c-1.05,0-1.6-.35-1.66-1.06-.06-.72.29-1.2,1.03-1.43-.27.86.05,1.22.95,1.09.8-3.18,1.67-6.51,2.6-9.99.44-.36,1.15-.63,2.15-.8ZM695.2,16.53c3.93-1.37,5.99-2.99,6.16-4.85.36-1.71-.14-2.69-1.52-2.94h-.52c-1.56.48-2.55,1.48-2.95,3l-1.17,4.8Z"/>
      <path id="taste._x5F_t" class="st0" d="M723.15,3.86l.8.26v.17c-.02.21-.45.34-1.29.4-1.22.51-2.21,1.46-2.95,2.83l.17.03,3.35.06c.57.19.61.49.11.89l-3.98.57c-.96,1.79-1.63,4.16-2.03,7.11l-.11,1.2c-.04.65.09,1,.37,1.06l.52.06c.44-.1,1.53-.94,3.27-2.54l.92-.43.17.17-.06.17c-2.35,3.12-4.45,4.57-6.3,4.34-.9-.38-1.23-1.38-1-3,.61-3.41,1.23-5.97,1.86-7.68l.03-.17-1.2-.11c-1.16-.55-1.66-1.14-1.49-1.77.11-.97.66-1.37,1.63-1.2.65.4.56.65-.26.74-.33.69.05.97,1.12.86.82.02,1.35-.35,1.57-1.11,1.64-2.09,3.24-3.06,4.78-2.88Z"/>
      <path id="taste._x5F_a" class="st0" d="M735.83,7.85c.65-.13.8-.04.46.29-.34.3-.77.91-1.29,1.83l-.52,1.29-.74,2.03-.17.63c-.52,1.98-.1,3.44,1.26,4.37.46.29.2.42-.77.4-1.64,0-2.53-1.08-2.66-3.23h.26c-2.06,2.74-3.81,4.07-5.24,4-1.26.02-1.68-1.07-1.26-3.26,1.49-5.03,3.64-7.79,6.44-8.28h.26c.74,0,1.38.45,1.89,1.34.74-.8,1.44-1.27,2.09-1.4ZM727.1,14.39c-.63,1.94-.59,2.89.11,2.86,1.43-.08,2.81-1.2,4.12-3.37.61-1.18.93-2.2.95-3.06.04-.88-.34-1.25-1.14-1.11h-.06c-.86.06-1.86.96-3.01,2.71l-.97,1.97Z"/>
      <path id="taste._x5F_s" class="st0" d="M744.66,7.65c1.68.1,2.52.4,2.52.91,0,.3-.49.54-1.46.71l-1.4-.37h-1.29c-.4.17-1.05.77-1.95,1.8,0,.7,1.51,1.6,4.53,2.68l.89,1.09v.34c.33,1.6-.66,2.91-2.95,3.94l-2.64.51h-1.23c-.57,0-1.39-.4-2.46-1.2v-.69c0-.78.49-1.32,1.46-1.63,0,.69.97,1.23,2.92,1.63,1.99.06,3.01-.49,3.07-1.63v-.17c-.67-.72-2.29-1.68-4.87-2.88l-.54-.71v-.91c0-1.71,1.8-2.86,5.41-3.43Z"/>
      <path id="taste._x5F_t1" data-name="taste._x5F_t" class="st0" d="M757.13,3.86l.8.26v.17c-.02.21-.45.34-1.29.4-1.22.51-2.21,1.46-2.95,2.83l.17.03,3.35.06c.57.19.61.49.11.89l-3.98.57c-.96,1.79-1.63,4.16-2.03,7.11l-.11,1.2c-.04.65.09,1,.37,1.06l.52.06c.44-.1,1.53-.94,3.26-2.54l.92-.43.17.17-.06.17c-2.35,3.12-4.45,4.57-6.3,4.34-.9-.38-1.23-1.38-1-3,.61-3.41,1.23-5.97,1.86-7.68l.03-.17-1.2-.11c-1.16-.55-1.66-1.14-1.49-1.77.11-.97.66-1.37,1.63-1.2.65.4.56.65-.26.74-.32.69.05.97,1.12.86.82.02,1.35-.35,1.58-1.11,1.64-2.09,3.24-3.06,4.78-2.88Z"/>
      <path id="taste._x5F_e" class="st0" d="M766.49,7.48h.6c1.34,0,2.15.61,2.43,1.83v.4c-.11,2.68-2.35,4.86-6.7,6.54l-.03.23c.48,1.09,1.19,1.63,2.15,1.63h.63c1.01,0,2.69-.85,5.04-2.54l.17.23v.17c-1.87,2.36-3.95,3.54-6.24,3.54h-1.23c-1.32-.36-2.18-.94-2.58-1.74l-.43-1.11h-.95c-.9-.15-1.47-.54-1.72-1.17v-.2c.3-.61.66-.77,1.06-.49.4.29.95.43,1.63.43l.06-.8c.53-2.21,1.34-3.86,2.41-4.94,1.09-1.09,2.32-1.75,3.69-2ZM762.48,14.93c3.38-1.09,5.1-2.56,5.15-4.43l.06-.6c.02-.8-.21-1.2-.69-1.2-2.86,1.18-4.37,3.26-4.52,6.23Z"/>
      <path id="taste._x5F_." class="st0" d="M772.66,16.22c.8.06,1.12.5.95,1.31-.11.61-.45.94-1,1-.4.08-.73.02-1-.17-.27-.21-.37-.54-.31-1,.11-.7.57-1.09,1.37-1.14Z"/>
    </g>
    <polyline class="st2" points="85.99 2.35 87.44 18.84 92.21 5.81 93.32 18.6 100.41 3.94 101.38 3.41"/>
    <path class="st2" d="M110.19.64s-8.64,17.94-7.85,19.75,7.71-14.23,8.77-11.68-3.03,11.71-1.65,11.25,3.02-1.85,3.02-1.85"/>
    <path class="st2" d="M119.36,8.48s-.37-1.32-1.61,0-4.14,4.35-4.01,5.94.59,3.82,1.52,3.82,3.7.34,4.1-.79,1.7-2.64,2.1-3.3.92-3.16.4-3.56-4.75-1.89-4.75-1.89"/>
    <path class="st2" d="M131.22-.88s-6.26,19-5.54,21.86"/>
    <path class="st2" d="M130.79,14.99s3.13,3.29,8.67-1.41.53-5.68.53-5.68c0,0-5.74,1.69-6,7.04s5.69,4.54,9.77.86"/>
    <path class="st2" d="M163.97,8.29"/>
  </g>
</svg>