<svg width="147" height="183" viewBox="0 0 147 183" fill="none" xmlns="http://www.w3.org/2000/svg">
<path d="M135.275 1.47437C137.989 1.47437 140.23 3.59415 140.365 6.30802H140.379C141.824 34.3513 146.995 174.878 144.294 177.592C141.581 180.32 137.3 180.509 133.452 180.536C92.839 180.806 52.212 181.089 11.5985 181.359C9.31667 181.373 6.77833 181.292 5.15811 179.685C3.76742 178.321 3.24085 174.284 3.24085 174.284C3.24085 174.284 3.45688 65.7431 1.36409 9.18391C1.21557 4.97134 4.59103 1.47437 8.8171 1.47437H46.4197C52.1985 1.21783 103.006 1.47437 103.006 1.47437H135.275Z" fill="#DBCCB3" stroke="#030316" stroke-width="2.72" stroke-linecap="round" stroke-linejoin="round"/>
<path d="M130.782 158.014C127.434 161.228 17.6776 164.36 15.5443 162.294C13.8836 160.688 13.6811 158.136 13.573 155.827C12.3309 129.377 10.0356 26.601 12.3309 15.462C13.3435 10.6014 21.0936 11.0604 25.8867 11.0604H76.6131C91.2896 11.0604 106.115 11.587 120.602 11.911C122.938 11.965 125.26 12.5186 127.366 13.5042C128.474 14.0308 129.54 14.6924 130.269 15.6645C130.931 16.5422 131.268 17.6223 131.579 18.6754C134.05 26.9656 132.767 36.2818 132.767 44.977V141.745C132.767 145.876 133.429 150.642 132.538 154.693C132.227 156.124 131.606 157.204 130.769 158.001L130.782 158.014Z" fill="#F5F2EB" stroke="#030316" stroke-width="2.72" stroke-linecap="round" stroke-linejoin="round"/>
<path d="M34.8853 40.4546C30.1191 36.9981 23.5302 39.9821 22.8146 45.1533C22.3151 48.7987 24.7454 52.7953 28.9175 53.5649C31.8339 54.105 35.0608 52.8493 36.627 50.581C38.6253 47.6781 37.8962 42.6284 34.8853 40.4546Z" stroke="#030316" stroke-width="1.36" stroke-miterlimit="10"/>
<path d="M42.2422 35.9576C42.3232 36.0791 42.3367 36.2546 42.2962 36.3896C41.9317 37.4833 31.0492 48.6628 30.4416 49.2974C30.3471 49.4054 30.2391 49.4999 30.1041 49.5404C29.861 49.5944 29.6315 49.3919 29.4695 49.2029C28.3353 47.9472 27.2822 46.624 26.3236 45.2333C25.7835 44.4637 26.6476 42.884 27.5387 43.6806C27.8898 43.9912 29.4695 45.9354 29.9961 46.3945C30.0501 46.435 30.1041 46.489 30.1716 46.489C30.2526 46.489 30.3066 46.435 30.3606 46.381C31.1302 45.6519 31.8458 44.8688 32.5209 44.0587C33.142 43.3161 33.8441 42.695 34.4652 41.9389C35.9099 40.1971 37.4221 38.4959 38.9613 36.8352C39.7444 35.9981 40.622 35.9441 41.7291 35.8225C41.8642 35.809 42.0127 35.7955 42.1207 35.8631C42.1612 35.8901 42.2017 35.9171 42.2287 35.9576H42.2422Z" fill="#030316"/>
<path d="M34.8853 82.7398C30.1191 79.2833 23.5302 82.2672 22.8146 87.4384C22.3151 91.0839 24.7454 95.0804 28.9175 95.85C31.8339 96.3901 35.0608 95.1344 36.627 92.8661C38.6253 89.9632 37.8962 84.9136 34.8853 82.7398Z" stroke="#030316" stroke-width="1.36" stroke-miterlimit="10"/>
<path d="M42.2422 78.2583C42.3232 78.3799 42.3367 78.5554 42.2962 78.6904C41.9317 79.7841 31.0492 90.9636 30.4416 91.5982C30.3471 91.7062 30.2391 91.8007 30.1041 91.8412C29.861 91.8952 29.6315 91.6927 29.4695 91.5036C28.3353 90.248 27.2822 88.9248 26.3236 87.5341C25.7835 86.7645 26.6476 85.1848 27.5387 85.9814C27.8898 86.2919 29.4695 88.2362 29.9961 88.6953C30.0501 88.7358 30.1041 88.7898 30.1716 88.7898C30.2526 88.7898 30.3066 88.7358 30.3606 88.6818C31.1302 87.9527 31.8458 87.1696 32.5209 86.3594C33.142 85.6168 33.8441 84.9958 34.4652 84.2397C35.9099 82.4979 37.4221 80.7967 38.9613 79.136C39.7444 78.2989 40.622 78.2448 41.7291 78.1233C41.8642 78.1098 42.0127 78.0963 42.1207 78.1638C42.1612 78.1908 42.2017 78.2178 42.2287 78.2583H42.2422Z" fill="#030316"/>
<path d="M34.8853 125.095C30.1191 121.639 23.5302 124.623 22.8146 129.794C22.3151 133.439 24.7454 137.436 28.9175 138.206C31.8339 138.746 35.0608 137.49 36.627 135.222C38.6253 132.319 37.8962 127.269 34.8853 125.095Z" stroke="#030316" stroke-width="1.36" stroke-miterlimit="10"/>
<path d="M42.2422 120.614C42.3232 120.735 42.3367 120.911 42.2962 121.046C41.9317 122.14 31.0492 133.319 30.4416 133.954C30.3471 134.062 30.2391 134.156 30.1041 134.197C29.861 134.251 29.6315 134.048 29.4695 133.859C28.3353 132.603 27.2822 131.28 26.3236 129.89C25.7835 129.12 26.6476 127.54 27.5387 128.337C27.8898 128.647 29.4695 130.592 29.9961 131.051C30.0501 131.091 30.1041 131.145 30.1716 131.145C30.2526 131.145 30.3066 131.091 30.3606 131.037C31.1302 130.308 31.8458 129.525 32.5209 128.715C33.142 127.972 33.8441 127.351 34.4652 126.595C35.9099 124.853 37.4221 123.152 38.9613 121.491C39.7444 120.654 40.622 120.6 41.7291 120.479C41.8642 120.465 42.0127 120.452 42.1207 120.519C42.1612 120.546 42.2017 120.573 42.2287 120.614H42.2422Z" fill="#030316"/>
<path d="M47.2862 47.3935C48.3529 47.4611 49.4195 47.5556 50.4862 47.6096C50.9992 47.6366 51.5258 47.6231 52.0524 47.6366C52.579 47.6501 53.092 47.6501 53.6051 47.6636C55.7114 47.7041 57.8177 47.7176 59.9239 47.7176C64.1365 47.7176 68.3491 47.6771 72.5617 47.6366C76.7742 47.5961 80.9868 47.4881 85.1994 47.38C89.4119 47.272 93.6245 47.1505 97.8371 47.002C99.9299 46.9345 102.023 46.8265 104.115 46.705C106.208 46.5834 108.328 46.5024 110.434 46.2999C110.947 46.2459 111.474 46.2054 111.987 46.1514C112.284 46.1244 112.541 45.9083 112.541 45.5978C112.541 45.2873 112.284 45.0442 111.987 45.0442C110.92 45.0442 109.854 45.0172 108.787 45.0442C107.72 45.0712 106.708 45.0982 105.668 45.1117C103.562 45.1657 101.456 45.1792 99.3493 45.2603C95.1367 45.4088 90.9241 45.5438 86.7116 45.6653C82.499 45.7868 78.2864 45.8543 74.0739 45.9624C69.8613 46.0704 65.6487 46.1649 61.4361 46.2459C59.3434 46.2864 57.2506 46.3134 55.1578 46.3674C54.1047 46.3944 53.0515 46.4214 51.9984 46.4484C51.4718 46.4619 50.9317 46.4484 50.3917 46.5024C49.8516 46.5564 49.352 46.5834 48.8254 46.6239C48.2989 46.6644 47.7858 46.6915 47.2592 46.732C46.8407 46.759 46.8407 47.3665 47.2592 47.3935H47.2862Z" fill="#030316"/>
<path d="M47.2862 52.4307C48.3529 52.4982 49.4195 52.5927 50.4862 52.6467C50.9992 52.6737 51.5258 52.6602 52.0524 52.6737C52.579 52.6872 53.092 52.6872 53.6051 52.7007C55.7114 52.7412 57.8177 52.7547 59.9239 52.7547C64.1365 52.7547 68.3491 52.7142 72.5617 52.6737C76.7742 52.6332 80.9868 52.5252 85.1994 52.4172C89.4119 52.3091 93.6245 52.1876 97.8371 52.0391C99.9299 51.9716 102.023 51.8636 104.115 51.7421C106.208 51.6205 108.328 51.5395 110.434 51.337C110.947 51.283 111.474 51.2425 111.987 51.1885C112.284 51.1615 112.541 50.9455 112.541 50.6349C112.541 50.3244 112.284 50.0813 111.987 50.0813C110.92 50.0813 109.854 50.0543 108.787 50.0813C107.72 50.1083 106.708 50.1353 105.668 50.1489C103.562 50.2029 101.456 50.2164 99.3493 50.2974C95.1367 50.4459 90.9241 50.5809 86.7116 50.7024C82.499 50.8239 78.2864 50.8914 74.0739 50.9995C69.8613 51.1075 65.6487 51.202 61.4361 51.283C59.3434 51.3235 57.2506 51.3505 55.1578 51.4045C54.1047 51.4315 53.0515 51.4585 51.9984 51.4855C51.4718 51.499 50.9317 51.4855 50.3917 51.5395C49.8516 51.5935 49.352 51.6205 48.8254 51.6611C48.2989 51.7016 47.7858 51.7286 47.2592 51.7691C46.8407 51.7961 46.8407 52.4037 47.2592 52.4307H47.2862Z" fill="#030316"/>
<path d="M47.2862 89.29C48.3529 89.3575 49.4195 89.4521 50.4862 89.5061C50.9992 89.5331 51.5258 89.5196 52.0524 89.5331C52.579 89.5466 53.092 89.5466 53.6051 89.5601C55.7114 89.6006 57.8177 89.6141 59.9239 89.6141C64.1365 89.6141 68.3491 89.5736 72.5617 89.5331C76.7742 89.4926 80.9868 89.3845 85.1994 89.2765C89.4119 89.1685 93.6245 89.047 97.8371 88.8985C99.9299 88.831 102.023 88.723 104.115 88.6014C106.208 88.4799 108.328 88.3989 110.434 88.1964C110.947 88.1424 111.474 88.1019 111.987 88.0479C112.284 88.0209 112.541 87.8048 112.541 87.4943C112.541 87.1838 112.284 86.9407 111.987 86.9407C110.92 86.9407 109.854 86.9137 108.787 86.9407C107.72 86.9677 106.708 86.9947 105.668 87.0082C103.562 87.0622 101.456 87.0757 99.3493 87.1567C95.1367 87.3053 90.9241 87.4403 86.7116 87.5618C82.499 87.6833 78.2864 87.7508 74.0739 87.8588C69.8613 87.9669 65.6487 88.0614 61.4361 88.1424C59.3434 88.1829 57.2506 88.2099 55.1578 88.2639C54.1047 88.2909 53.0515 88.3179 51.9984 88.3449C51.4718 88.3584 50.9317 88.3449 50.3917 88.3989C49.8516 88.4529 49.352 88.4799 48.8254 88.5204C48.2989 88.5609 47.7858 88.5879 47.2592 88.6284C46.8407 88.6554 46.8407 89.263 47.2592 89.29H47.2862Z" fill="#030316"/>
<path d="M47.2862 93.543C48.3529 93.6105 49.4195 93.705 50.4862 93.759C50.9992 93.786 51.5258 93.7725 52.0524 93.786C52.579 93.7995 53.092 93.7995 53.6051 93.813C55.7114 93.8535 57.8177 93.867 59.9239 93.867C64.1365 93.867 68.3491 93.8265 72.5617 93.786C76.7742 93.7455 80.9868 93.6375 85.1994 93.5295C89.4119 93.4214 93.6245 93.2999 97.8371 93.1514C99.9299 93.0839 102.023 92.9759 104.115 92.8544C106.208 92.7329 108.328 92.6518 110.434 92.4493C110.947 92.3953 111.474 92.3548 111.987 92.3008C112.284 92.2738 112.541 92.0578 112.541 91.7472C112.541 91.4367 112.284 91.1936 111.987 91.1936C110.92 91.1936 109.854 91.1666 108.787 91.1936C107.72 91.2206 106.708 91.2477 105.668 91.2612C103.562 91.3152 101.456 91.3287 99.3493 91.4097C95.1367 91.5582 90.9241 91.6932 86.7116 91.8147C82.499 91.9362 78.2864 92.0038 74.0739 92.1118C69.8613 92.2198 65.6487 92.3143 61.4361 92.3953C59.3434 92.4358 57.2506 92.4628 55.1578 92.5168C54.1047 92.5438 53.0515 92.5708 51.9984 92.5978C51.4718 92.6113 50.9317 92.5978 50.3917 92.6518C49.8516 92.7058 49.352 92.7328 48.8254 92.7734C48.2989 92.8139 47.7858 92.8409 47.2592 92.8814C46.8407 92.9084 46.8407 93.516 47.2592 93.543H47.2862Z" fill="#030316"/>
<path d="M47.2862 131.267C48.3529 131.334 49.4195 131.429 50.4862 131.483C50.9992 131.51 51.5258 131.496 52.0524 131.51C52.579 131.523 53.092 131.523 53.6051 131.537C55.7114 131.577 57.8177 131.591 59.9239 131.591C64.1365 131.591 68.3491 131.55 72.5617 131.51C76.7742 131.469 80.9868 131.361 85.1994 131.253C89.4119 131.145 93.6245 131.024 97.8371 130.875C99.9299 130.808 102.023 130.7 104.115 130.578C106.208 130.456 108.328 130.375 110.434 130.173C110.947 130.119 111.474 130.078 111.987 130.024C112.284 129.997 112.541 129.781 112.541 129.471C112.541 129.16 112.284 128.917 111.987 128.917C110.92 128.917 109.854 128.89 108.787 128.917C107.72 128.944 106.708 128.971 105.668 128.985C103.562 129.039 101.456 129.052 99.3493 129.133C95.1367 129.282 90.9241 129.417 86.7116 129.538C82.499 129.66 78.2864 129.727 74.0739 129.835C69.8613 129.943 65.6487 130.038 61.4361 130.119C59.3434 130.159 57.2506 130.186 55.1578 130.24C54.1047 130.267 53.0515 130.294 51.9984 130.321C51.4718 130.335 50.9317 130.321 50.3917 130.375C49.8516 130.429 49.352 130.456 48.8254 130.497C48.2989 130.537 47.7858 130.564 47.2592 130.605C46.8407 130.632 46.8407 131.24 47.2592 131.267H47.2862Z" fill="#030316"/>
<path d="M47.2862 135.884C48.3529 135.951 49.4195 136.046 50.4862 136.1C50.9992 136.127 51.5258 136.113 52.0524 136.127C52.579 136.14 53.092 136.14 53.6051 136.154C55.7114 136.194 57.8177 136.208 59.9239 136.208C64.1365 136.208 68.3491 136.167 72.5617 136.127C76.7742 136.086 80.9868 135.978 85.1994 135.87C89.4119 135.762 93.6245 135.641 97.8371 135.492C99.9299 135.425 102.023 135.317 104.115 135.195C106.208 135.074 108.328 134.993 110.434 134.79C110.947 134.736 111.474 134.696 111.987 134.642C112.284 134.615 112.541 134.399 112.541 134.088C112.541 133.778 112.284 133.534 111.987 133.534C110.92 133.534 109.854 133.507 108.787 133.534C107.72 133.561 106.708 133.588 105.668 133.602C103.562 133.656 101.456 133.669 99.3493 133.75C95.1367 133.899 90.9241 134.034 86.7116 134.156C82.499 134.277 78.2864 134.345 74.0739 134.453C69.8613 134.561 65.6487 134.655 61.4361 134.736C59.3434 134.777 57.2506 134.804 55.1578 134.858C54.1047 134.885 53.0515 134.912 51.9984 134.939C51.4718 134.952 50.9317 134.939 50.3917 134.993C49.8516 135.047 49.352 135.074 48.8254 135.114C48.2989 135.155 47.7858 135.182 47.2592 135.222C46.8407 135.249 46.8407 135.857 47.2592 135.884H47.2862Z" fill="#030316"/>
<path d="M104.467 165.224C105.358 165.251 106.235 165.265 107.127 165.292C108.018 165.319 108.855 165.251 109.719 165.211C111.474 165.13 113.229 165.049 114.971 164.9C115.498 164.86 116.024 164.752 116.537 164.657C117.05 164.563 117.536 164.482 118.023 164.387C118.279 164.347 118.428 164.05 118.401 163.807C118.36 163.55 118.144 163.347 117.874 163.347C116.996 163.347 116.119 163.334 115.255 163.334C114.823 163.334 114.391 163.388 113.958 163.415C113.526 163.442 113.067 163.483 112.635 163.523C111.771 163.591 110.907 163.658 110.043 163.726C109.179 163.793 108.288 163.807 107.41 163.915C106.424 164.023 105.439 164.131 104.453 164.225C104.197 164.252 103.94 164.441 103.954 164.725C103.967 165.008 104.17 165.224 104.453 165.224H104.467Z" fill="#030316"/>
<path d="M119.54 164.225C119.675 164.265 119.797 164.306 119.932 164.333C119.999 164.346 120.067 164.36 120.121 164.373C120.242 164.4 120.364 164.427 120.485 164.427C120.823 164.414 121.147 164.373 121.471 164.319C121.511 164.319 121.552 164.306 121.579 164.292C121.673 164.279 121.754 164.225 121.835 164.184C121.903 164.157 121.97 164.117 122.038 164.076L122.159 163.982C122.159 163.982 122.267 163.86 122.281 163.779C122.308 163.725 122.321 163.685 122.321 163.617C122.335 163.536 122.335 163.455 122.321 163.374L122.254 163.226L122.159 163.104C122.159 163.104 122.038 162.996 121.957 162.983C121.889 162.942 121.808 162.929 121.714 162.929C121.646 162.929 121.565 162.929 121.498 162.929C121.403 162.929 121.322 162.929 121.214 162.956C121.174 162.956 121.147 162.969 121.106 162.983C120.958 163.01 120.809 163.037 120.661 163.064L120.836 163.037C120.728 163.05 120.634 163.064 120.526 163.064C120.418 163.064 120.31 163.064 120.215 163.104C120.175 163.118 120.121 163.131 120.08 163.145C119.891 163.199 119.702 163.239 119.513 163.266L119.391 163.32C119.391 163.32 119.283 163.388 119.256 163.442C119.229 163.469 119.202 163.509 119.189 163.55C119.162 163.604 119.148 163.671 119.148 163.739V163.874C119.148 163.874 119.202 163.955 119.216 163.995C119.243 164.049 119.283 164.103 119.337 164.13C119.378 164.171 119.445 164.198 119.499 164.211L119.54 164.225Z" fill="#030316"/>
<path d="M136.328 44.7469C136.328 45.557 136.355 46.3806 136.369 47.1907C136.382 48.2303 136.396 49.27 136.409 50.3096C136.423 51.5383 136.436 52.7804 136.45 54.0091C136.463 55.4133 136.477 56.8175 136.504 58.2352C136.517 59.8014 136.544 61.3541 136.571 62.9203C136.598 64.608 136.625 66.2823 136.652 67.97C136.679 69.7522 136.706 71.5345 136.747 73.3167C136.787 75.099 136.814 77.0432 136.841 78.893C136.868 80.7427 136.909 82.714 136.936 84.6313C136.963 86.5485 137.003 88.5333 137.03 90.4911C137.057 92.4488 137.084 94.3931 137.125 96.3373C137.165 98.2816 137.206 100.199 137.246 102.13C137.287 104.06 137.327 105.924 137.368 107.827C137.408 109.731 137.449 111.473 137.476 113.309C137.503 115.145 137.543 116.779 137.584 118.521C137.611 120.141 137.651 121.761 137.678 123.395C137.705 124.894 137.759 126.379 137.8 127.878C137.84 129.201 137.881 130.524 137.921 131.847C137.962 132.995 138.016 134.129 138.07 135.263C138.07 135.52 138.097 135.776 138.11 136.019C138.11 136.073 138.11 136.141 138.11 136.195C138.11 136.249 138.11 136.303 138.124 136.357C138.164 136.64 138.11 136.181 138.124 136.384C138.124 136.505 138.151 136.613 138.164 136.735C138.205 137.18 138.259 137.626 138.299 138.058C138.313 138.247 138.34 138.436 138.353 138.625C138.38 138.841 138.353 139.165 138.475 139.354L138.421 139.125C138.421 139.125 138.421 139.192 138.421 139.219C138.421 139.786 139.312 139.786 139.312 139.219C139.312 139.192 139.312 139.152 139.312 139.125L139.258 139.354C139.366 139.152 139.353 138.841 139.366 138.612C139.38 138.409 139.393 138.22 139.407 138.017C139.434 137.572 139.461 137.14 139.501 136.694C139.569 135.655 139.542 134.602 139.542 133.548C139.542 132.306 139.542 131.064 139.528 129.835C139.528 128.418 139.501 127.013 139.488 125.596C139.474 124.03 139.42 122.463 139.393 120.897C139.353 119.209 139.312 117.535 139.272 115.847C139.231 114.065 139.191 112.283 139.15 110.487C139.11 108.692 139.055 106.761 139.015 104.897C138.974 103.034 138.92 101.063 138.88 99.1592C138.839 97.2555 138.785 95.2572 138.718 93.2994C138.65 91.3417 138.596 89.3974 138.542 87.4531C138.488 85.5089 138.421 83.5916 138.367 81.6609C138.313 79.7301 138.245 77.8668 138.191 75.9631C138.137 74.0593 138.083 72.3176 138.029 70.4948C137.975 68.6721 137.921 67.0249 137.867 65.2966C137.813 63.6764 137.773 62.0562 137.719 60.436C137.665 58.9508 137.611 57.4656 137.543 55.9669C137.489 54.6437 137.435 53.3205 137.395 52.0108C137.354 50.8767 137.3 49.7425 137.26 48.6084C137.219 47.6768 137.179 46.7451 137.152 45.8135C137.138 45.449 137.125 45.0844 137.111 44.7199C137.084 44.2473 136.355 44.2338 136.369 44.7199L136.328 44.7469Z" fill="#030316"/>
<path d="M7.65641 139.098C7.61591 139.192 7.58891 139.287 7.5484 139.368C7.49439 139.503 7.49439 139.638 7.48089 139.786C7.46739 140.016 7.45389 140.245 7.44039 140.488C7.41338 140.947 7.39988 141.42 7.38638 141.879C7.35937 142.784 7.35938 143.688 7.35938 144.606C7.35938 146.443 7.35937 148.279 7.41338 150.115C7.42688 150.628 7.44039 151.141 7.45389 151.654C7.45389 151.965 7.5349 152.275 7.58891 152.586C7.61591 152.708 7.62941 152.829 7.65641 152.951C7.68342 153.086 7.72392 153.207 7.77793 153.342C7.87244 153.558 8.04797 153.761 8.318 153.747C8.58804 153.734 8.77707 153.585 8.85808 153.342C9.0201 152.87 9.0336 152.357 9.08761 151.87C9.11461 151.641 9.08761 151.398 9.08761 151.168C9.08761 150.939 9.07411 150.709 9.0606 150.466C9.0336 149.535 8.97959 148.603 8.92559 147.671C8.83107 145.835 8.76356 143.985 8.60154 142.163C8.54754 141.65 8.52053 141.136 8.45302 140.623C8.42602 140.367 8.38551 140.11 8.35851 139.854C8.34501 139.692 8.33151 139.516 8.264 139.368C8.20999 139.26 8.15598 139.152 8.10198 139.03C7.99396 138.814 7.72392 138.909 7.65641 139.084V139.098Z" fill="#030316"/>
<path d="M7.902 156.935C7.902 157.353 7.902 157.772 7.902 158.19C7.902 158.298 7.902 158.393 7.902 158.501C7.902 158.609 7.91551 158.704 7.92901 158.812C7.94251 158.92 7.95601 159.014 7.96951 159.122C7.98301 159.23 7.98301 159.325 8.02352 159.433C8.03702 159.487 8.06403 159.541 8.07753 159.595C8.11803 159.703 8.15854 159.811 8.19904 159.919C8.22605 160.013 8.26655 160.108 8.30706 160.189C8.34756 160.27 8.41507 160.324 8.48258 160.391C8.5771 160.486 8.69861 160.526 8.83363 160.499C8.96865 160.472 9.07666 160.418 9.13067 160.297C9.15767 160.256 9.17118 160.229 9.19818 160.189C9.26569 160.067 9.26569 159.932 9.27919 159.811C9.27919 159.703 9.27919 159.608 9.29269 159.5C9.29269 159.446 9.29269 159.392 9.29269 159.338C9.29269 159.311 9.29269 159.284 9.29269 159.257C9.29269 159.176 9.29269 159.095 9.26569 159.014C9.25219 158.906 9.22518 158.812 9.21168 158.704C9.19818 158.595 9.17118 158.501 9.15767 158.393C9.14417 158.285 9.10367 158.19 9.07666 158.096C9.02266 157.893 8.95515 157.691 8.90114 157.488C8.83363 157.259 8.76612 157.043 8.69861 156.813C8.67161 156.719 8.6041 156.611 8.50959 156.57C8.42858 156.53 8.33406 156.503 8.23955 156.516C8.15854 156.516 8.06403 156.57 7.99652 156.624C7.91551 156.705 7.875 156.8 7.875 156.921L7.902 156.935Z" fill="#030316"/>
<path d="M134.503 18.958C134.489 19.1875 134.449 19.417 134.422 19.6465L134.449 19.4575C134.449 19.525 134.422 19.606 134.422 19.6736C134.422 19.6871 134.422 19.7006 134.422 19.7141C134.422 19.7411 134.422 19.7816 134.422 19.8086C134.422 19.8761 134.422 19.9301 134.422 19.9976C134.422 20.1191 134.422 20.2541 134.435 20.3756C134.435 20.6322 134.449 20.8887 134.449 21.1453C134.449 21.2938 134.476 21.4288 134.489 21.5773C134.489 21.6853 134.503 21.7933 134.557 21.8879C134.584 21.9824 134.638 22.0769 134.719 22.1444C134.786 22.2254 134.881 22.2794 134.975 22.3064C135.07 22.3604 135.178 22.3739 135.286 22.3739L135.502 22.3469C135.637 22.3064 135.759 22.2389 135.853 22.1444L135.975 21.9824C136.042 21.8608 136.083 21.7258 136.083 21.5773C136.083 21.4558 136.083 21.3208 136.069 21.1858C136.042 20.9967 136.015 20.8077 135.988 20.6052C135.948 20.3486 135.907 20.1056 135.867 19.8491C135.867 19.7816 135.84 19.7006 135.826 19.633C135.826 19.5925 135.826 19.5655 135.813 19.525C135.813 19.5115 135.813 19.4845 135.813 19.471C135.813 19.471 135.813 19.471 135.813 19.4575C135.813 19.417 135.799 19.39 135.772 19.363C135.772 19.336 135.745 19.2955 135.732 19.2685L135.799 19.444C135.691 19.1875 135.583 18.9445 135.475 18.6879L135.529 18.8094C135.516 18.7284 135.475 18.6744 135.435 18.6204C135.394 18.5664 135.354 18.5124 135.286 18.4854L135.164 18.4314C135.097 18.4044 135.029 18.4044 134.948 18.4314C134.894 18.4314 134.854 18.4314 134.813 18.4719C134.746 18.4989 134.692 18.5259 134.638 18.5799L134.557 18.6879C134.503 18.7689 134.489 18.8634 134.489 18.958H134.503Z" fill="#030316"/>
<path d="M134.966 24.6025C134.925 24.7781 134.858 24.9536 134.858 25.1291C134.858 25.2911 134.858 25.4532 134.858 25.6017C134.858 25.9257 134.844 26.2363 134.858 26.5603C134.885 27.2084 134.952 27.8565 134.979 28.5046C135.006 29.1527 135.033 29.7872 135.047 30.4218C135.06 31.0564 135.114 31.718 135.141 32.3661C135.141 32.7171 135.168 33.0682 135.168 33.4192C135.168 33.6488 135.209 33.8648 135.236 34.0808C135.249 34.1753 135.263 34.2698 135.276 34.3509C135.303 34.4724 135.371 34.5804 135.411 34.7019C135.587 35.0665 136.181 35.053 136.356 34.7019C136.41 34.6074 136.464 34.4994 136.491 34.4049C136.518 34.3374 136.518 34.2563 136.532 34.1753C136.572 33.9593 136.613 33.7568 136.626 33.5407C136.626 33.2167 136.64 32.9062 136.64 32.5821C136.64 31.934 136.64 31.2859 136.64 30.6379C136.64 29.9898 136.545 29.3552 136.491 28.7206C136.437 28.086 136.356 27.4379 136.275 26.8033C136.221 26.3848 136.14 25.9932 136.046 25.5882C136.005 25.4126 135.965 25.2506 135.924 25.0751C135.87 24.8591 135.776 24.6835 135.668 24.4945C135.506 24.211 135.047 24.265 134.966 24.589V24.6025Z" fill="#030316"/>
<path d="M43.7557 6.55221C43.0671 6.47119 42.392 6.40369 41.7034 6.32267C41.6359 6.32267 41.5819 6.30917 41.5144 6.29567C41.5009 6.29567 41.4334 6.29567 41.4199 6.29567C41.4199 6.29567 41.6359 6.32267 41.4334 6.29567C41.3929 6.29567 41.3524 6.29567 41.3119 6.29567C41.1768 6.29567 41.0418 6.28217 40.9068 6.26867C40.6098 6.25517 40.3127 6.22816 40.0157 6.21466C39.3541 6.17415 38.6925 6.12015 38.0309 6.10665C36.4377 6.07964 34.858 6.06614 33.2648 6.03914C31.496 6.01213 29.7273 5.99863 27.9585 6.01213C26.1898 6.02563 24.3806 6.05264 22.5983 6.07964C20.9646 6.10665 19.3444 6.13365 17.7107 6.18766C16.4145 6.22816 15.1183 6.28217 13.8221 6.34968C12.958 6.40369 12.0804 6.45769 11.2163 6.59271C10.8382 6.66022 10.5142 6.82224 10.1631 7.01127C8.92097 7.69986 7.80032 8.64499 7.00371 9.83315C6.12609 11.1293 5.81555 12.682 5.64003 14.2077C5.54551 14.9908 5.51851 15.774 5.49151 16.5706C5.451 17.4077 5.4375 18.2313 5.4375 19.0684C5.4375 19.9055 5.451 20.6751 5.4645 21.4852C5.4645 21.7553 5.69403 21.9848 5.96407 21.9848C6.26111 21.9848 6.43663 21.7553 6.46364 21.4852C6.66617 19.8515 6.86869 18.2043 7.04422 16.5706C7.13873 15.7875 7.23324 14.9908 7.32776 14.2077C7.32776 14.1537 7.36826 13.9242 7.32776 14.0997C7.32776 14.0187 7.35476 13.9242 7.36826 13.8432C7.39526 13.6542 7.42227 13.4786 7.46277 13.2896C7.53028 12.9251 7.6248 12.5605 7.73281 12.2095C7.78682 12.0474 7.84083 11.8854 7.90833 11.7234C7.97584 11.5749 7.90833 11.6964 7.90833 11.7234C7.92184 11.6829 7.93534 11.6559 7.94884 11.6154C7.98934 11.5074 8.04335 11.4129 8.09736 11.3184C8.24588 11.0348 8.4079 10.7648 8.59693 10.5082C8.61043 10.4812 8.63743 10.4542 8.65093 10.4272C8.52942 10.5352 8.61043 10.4812 8.65093 10.4407C8.70494 10.3867 8.74545 10.3192 8.79945 10.2652C8.90747 10.1437 9.01548 10.0222 9.137 9.90066C9.36653 9.67113 9.60956 9.41459 9.8796 9.23907C9.8526 9.25257 9.73108 9.34708 9.8661 9.25257C9.8931 9.23907 9.92011 9.21207 9.94711 9.19856C10.0146 9.15806 10.0686 9.10405 10.1361 9.06355C10.2712 8.96903 10.4062 8.87452 10.5547 8.79351C10.8382 8.61799 11.1353 8.46947 11.4188 8.30744C11.5673 8.22643 11.1353 8.40196 11.3243 8.34795C11.3648 8.34795 11.4053 8.32095 11.4458 8.32095C11.5538 8.29394 11.6618 8.28044 11.7834 8.26694C11.9589 8.23993 11.5943 8.29394 11.6618 8.28044C11.7023 8.28044 11.7429 8.28044 11.7699 8.26694C11.8509 8.26694 11.9319 8.25344 12.0129 8.23993C12.4314 8.19943 12.85 8.17243 13.2686 8.14542C14.4702 8.06441 15.6854 8.0239 16.9006 7.9969C18.4533 7.9564 20.0195 7.91589 21.5722 7.88889C23.3274 7.86188 25.0827 7.83488 26.8379 7.80788C28.5931 7.78087 30.3889 7.75387 32.1576 7.71336C33.7778 7.67286 35.4116 7.63235 37.0318 7.60535C38.3415 7.57834 39.6376 7.49733 40.9338 7.41632C41.0688 7.41632 41.2038 7.41632 41.3389 7.38932H41.4064C41.5144 7.36232 41.5009 7.36232 41.3929 7.38932H41.4334C41.4604 7.38932 41.4874 7.38932 41.5279 7.38932C41.5954 7.38932 41.6629 7.37582 41.7304 7.36232C41.9464 7.33531 42.176 7.30831 42.392 7.2813C42.7295 7.2408 43.0671 7.20029 43.4046 7.17329C43.5126 7.17329 43.6207 7.14629 43.7287 7.13278C44.0797 7.09228 44.0797 6.63322 43.7287 6.59271L43.7557 6.55221Z" fill="#030316"/>
<path d="M5.31819 24.4688C5.31819 24.9684 5.31819 25.4545 5.31819 25.954C5.31819 26.2106 5.31819 26.4536 5.31819 26.7101C5.31819 26.8316 5.31819 26.9532 5.31819 27.0747C5.31819 27.1962 5.34519 27.3177 5.35869 27.4392C5.35869 27.4797 5.35869 27.5202 5.35869 27.5472C5.35869 27.5472 5.35869 27.5743 5.35869 27.5878C5.35869 27.6418 5.3722 27.7093 5.3857 27.7633L5.43971 27.8983C5.43971 27.8983 5.49371 28.0063 5.52072 28.0603C5.57472 28.1683 5.64223 28.2898 5.69624 28.3979C5.75025 28.5059 5.89877 28.5734 6.02028 28.5599C6.1553 28.5464 6.24982 28.4519 6.29032 28.3304C6.33083 28.2223 6.37133 28.1008 6.41184 27.9928C6.42534 27.9388 6.45234 27.8983 6.46584 27.8443C6.46584 27.8173 6.49285 27.7903 6.49285 27.7633C6.51985 27.6958 6.51985 27.6013 6.51985 27.5202C6.51985 27.3987 6.51985 27.2772 6.51985 27.1557C6.51985 27.0342 6.50635 26.9127 6.49285 26.7776C6.43884 26.2916 6.38483 25.792 6.31732 25.3059C6.29032 25.0224 6.24982 24.7524 6.22281 24.4688C6.22281 24.4013 6.22281 24.3473 6.18231 24.2933C6.1688 24.2393 6.1283 24.1853 6.08779 24.1448C6.00678 24.0638 5.87176 24.0098 5.76375 24.0098C5.50721 24.0098 5.30469 24.2123 5.30469 24.4688H5.31819Z" fill="#030316"/>
</svg>
